{
	"patcher" : 	{
		"fileversion" : 1,
		"appversion" : 		{
			"major" : 6,
			"minor" : 1,
			"revision" : 8,
			"architecture" : "x86"
		}
,
		"rect" : [ 175.0, 142.0, 1079.0, 498.0 ],
		"bglocked" : 0,
		"openinpresentation" : 1,
		"default_fontsize" : 12.0,
		"default_fontface" : 0,
		"default_fontname" : "Arial",
		"gridonopen" : 0,
		"gridsize" : [ 15.0, 15.0 ],
		"gridsnaponopen" : 0,
		"statusbarvisible" : 2,
		"toolbarvisible" : 1,
		"boxanimatetime" : 200,
		"imprint" : 0,
		"enablehscroll" : 1,
		"enablevscroll" : 1,
		"devicewidth" : 0.0,
		"description" : "",
		"digest" : "",
		"tags" : "",
		"boxes" : [ 			{
				"box" : 				{
					"comment" : "Dropwindow",
					"id" : "obj-15",
					"maxclass" : "inlet",
					"numinlets" : 0,
					"numoutlets" : 1,
					"outlettype" : [ "" ],
					"patching_rect" : [ 1112.079468, 60.338593, 25.0, 25.0 ]
				}

			}
, 			{
				"box" : 				{
					"fontname" : "Arial",
					"fontsize" : 12.0,
					"id" : "obj-43",
					"maxclass" : "newobj",
					"numinlets" : 0,
					"numoutlets" : 1,
					"outlettype" : [ "" ],
					"patching_rect" : [ 523.198486, 322.172272, 77.0, 20.0 ],
					"text" : "r thispatcher"
				}

			}
, 			{
				"box" : 				{
					"fontname" : "Arial",
					"fontsize" : 12.0,
					"id" : "obj-41",
					"maxclass" : "newobj",
					"numinlets" : 1,
					"numoutlets" : 2,
					"outlettype" : [ "", "" ],
					"patching_rect" : [ 523.198486, 358.172272, 69.0, 20.0 ],
					"save" : [ "#N", "thispatcher", ";", "#Q", "end", ";" ],
					"text" : "thispatcher"
				}

			}
, 			{
				"box" : 				{
					"color" : [ 1.0, 1.0, 0.0, 1.0 ],
					"fontname" : "Arial",
					"fontsize" : 12.0,
					"id" : "obj-3",
					"maxclass" : "newobj",
					"numinlets" : 1,
					"numoutlets" : 0,
					"patching_rect" : [ 445.179321, 358.172272, 50.0, 20.0 ],
					"text" : "s hover"
				}

			}
, 			{
				"box" : 				{
					"fontname" : "Arial",
					"fontsize" : 12.0,
					"id" : "obj-14",
					"maxclass" : "newobj",
					"numinlets" : 1,
					"numoutlets" : 4,
					"outlettype" : [ "", "", "", "" ],
					"patching_rect" : [ 445.179321, 322.172272, 59.5, 20.0 ],
					"text" : "hover"
				}

			}
, 			{
				"box" : 				{
					"color" : [ 0.364706, 0.807843, 1.0, 1.0 ],
					"fontname" : "Arial",
					"fontsize" : 12.0,
					"id" : "obj-34",
					"maxclass" : "newobj",
					"numinlets" : 1,
					"numoutlets" : 0,
					"patching_rect" : [ 261.729309, 319.672272, 144.0, 20.0 ],
					"text" : "s combine_selectiveness"
				}

			}
, 			{
				"box" : 				{
					"comment" : "Playback position in buffer",
					"hint" : "to waveform",
					"id" : "obj-4",
					"maxclass" : "outlet",
					"numinlets" : 1,
					"numoutlets" : 0,
					"patching_rect" : [ 164.72934, 317.172272, 25.0, 25.0 ]
				}

			}
, 			{
				"box" : 				{
					"fontname" : "Arial",
					"fontsize" : 12.0,
					"id" : "obj-30",
					"maxclass" : "newobj",
					"numinlets" : 1,
					"numoutlets" : 0,
					"patcher" : 					{
						"fileversion" : 1,
						"appversion" : 						{
							"major" : 6,
							"minor" : 1,
							"revision" : 8,
							"architecture" : "x86"
						}
,
						"rect" : [ 25.0, 69.0, 167.0, 207.0 ],
						"bglocked" : 0,
						"openinpresentation" : 0,
						"default_fontsize" : 12.0,
						"default_fontface" : 0,
						"default_fontname" : "Arial",
						"gridonopen" : 0,
						"gridsize" : [ 15.0, 15.0 ],
						"gridsnaponopen" : 0,
						"statusbarvisible" : 2,
						"toolbarvisible" : 1,
						"boxanimatetime" : 200,
						"imprint" : 0,
						"enablehscroll" : 1,
						"enablevscroll" : 1,
						"devicewidth" : 0.0,
						"description" : "",
						"digest" : "",
						"tags" : "",
						"boxes" : [ 							{
								"box" : 								{
									"color" : [ 0.364706, 0.807843, 1.0, 1.0 ],
									"fontname" : "Arial",
									"fontsize" : 12.0,
									"id" : "obj-2101",
									"maxclass" : "newobj",
									"numinlets" : 1,
									"numoutlets" : 0,
									"patching_rect" : [ 18.0, 146.0, 49.0, 20.0 ],
									"text" : "s leds5"
								}

							}
, 							{
								"box" : 								{
									"fontname" : "Arial",
									"fontsize" : 12.0,
									"id" : "obj-20",
									"maxclass" : "message",
									"numinlets" : 2,
									"numoutlets" : 1,
									"outlettype" : [ "" ],
									"patching_rect" : [ 55.0, 82.5, 53.0, 18.0 ],
									"text" : "set $1 1"
								}

							}
, 							{
								"box" : 								{
									"fontname" : "Arial",
									"fontsize" : 12.0,
									"id" : "obj-18",
									"maxclass" : "newobj",
									"numinlets" : 1,
									"numoutlets" : 1,
									"outlettype" : [ "" ],
									"patching_rect" : [ 18.0, 115.25, 55.0, 20.0 ],
									"text" : "prepend"
								}

							}
, 							{
								"box" : 								{
									"fontname" : "Arial",
									"fontsize" : 12.0,
									"id" : "obj-15",
									"maxclass" : "newobj",
									"numinlets" : 2,
									"numoutlets" : 1,
									"outlettype" : [ "int" ],
									"patching_rect" : [ 55.0, 51.75, 32.5, 20.0 ],
									"text" : "- 1"
								}

							}
, 							{
								"box" : 								{
									"fontname" : "Arial",
									"fontsize" : 12.0,
									"id" : "obj-14",
									"maxclass" : "newobj",
									"numinlets" : 1,
									"numoutlets" : 1,
									"outlettype" : [ "" ],
									"patching_rect" : [ 55.0, 21.0, 79.0, 20.0 ],
									"text" : "loadmess #1"
								}

							}
, 							{
								"box" : 								{
									"comment" : "",
									"id" : "obj-29",
									"maxclass" : "inlet",
									"numinlets" : 0,
									"numoutlets" : 1,
									"outlettype" : [ "" ],
									"patching_rect" : [ 18.0, 21.0, 25.0, 25.0 ]
								}

							}
 ],
						"lines" : [ 							{
								"patchline" : 								{
									"destination" : [ "obj-15", 0 ],
									"disabled" : 0,
									"hidden" : 0,
									"source" : [ "obj-14", 0 ]
								}

							}
, 							{
								"patchline" : 								{
									"destination" : [ "obj-20", 0 ],
									"disabled" : 0,
									"hidden" : 0,
									"source" : [ "obj-15", 0 ]
								}

							}
, 							{
								"patchline" : 								{
									"destination" : [ "obj-2101", 0 ],
									"disabled" : 0,
									"hidden" : 0,
									"source" : [ "obj-18", 0 ]
								}

							}
, 							{
								"patchline" : 								{
									"destination" : [ "obj-18", 0 ],
									"disabled" : 0,
									"hidden" : 0,
									"source" : [ "obj-20", 0 ]
								}

							}
, 							{
								"patchline" : 								{
									"destination" : [ "obj-18", 0 ],
									"disabled" : 0,
									"hidden" : 0,
									"source" : [ "obj-29", 0 ]
								}

							}
 ]
					}
,
					"patching_rect" : [ 9.0, 223.672272, 43.0, 20.0 ],
					"saved_object_attributes" : 					{
						"default_fontface" : 0,
						"default_fontname" : "Arial",
						"default_fontsize" : 12.0,
						"description" : "",
						"digest" : "",
						"fontface" : 0,
						"fontname" : "Arial",
						"fontsize" : 12.0,
						"globalpatchername" : "",
						"tags" : ""
					}
,
					"text" : "p leds"
				}

			}
, 			{
				"box" : 				{
					"comment" : "Bang to autoload",
					"id" : "obj-25",
					"maxclass" : "inlet",
					"numinlets" : 0,
					"numoutlets" : 1,
					"outlettype" : [ "" ],
					"patching_rect" : [ 1244.315063, 60.338593, 25.0, 25.0 ]
				}

			}
, 			{
				"box" : 				{
					"bgcolor" : [ 0.0, 0.0, 0.0, 1.0 ],
					"color" : [ 0.0, 0.0, 0.0, 1.0 ],
					"fontname" : "Arial",
					"fontsize" : 12.0,
					"id" : "obj-52",
					"maxclass" : "newobj",
					"numinlets" : 1,
					"numoutlets" : 1,
					"outlettype" : [ "" ],
					"patching_rect" : [ 1244.315063, 223.672272, 104.0, 20.0 ],
					"text" : "prepend autoload",
					"textcolor" : [ 1.0, 1.0, 1.0, 1.0 ]
				}

			}
, 			{
				"box" : 				{
					"comment" : "Selectiveness",
					"id" : "obj-24",
					"maxclass" : "inlet",
					"numinlets" : 0,
					"numoutlets" : 1,
					"outlettype" : [ "" ],
					"patching_rect" : [ 754.579468, 60.338593, 25.0, 25.0 ]
				}

			}
, 			{
				"box" : 				{
					"comment" : "Combine on/off",
					"id" : "obj-23",
					"maxclass" : "inlet",
					"numinlets" : 0,
					"numoutlets" : 1,
					"outlettype" : [ "" ],
					"patching_rect" : [ 27.0, 117.172272, 25.0, 25.0 ]
				}

			}
, 			{
				"box" : 				{
					"comment" : "Preset Choice",
					"id" : "obj-22",
					"maxclass" : "inlet",
					"numinlets" : 0,
					"numoutlets" : 1,
					"outlettype" : [ "" ],
					"patching_rect" : [ 175.079437, 60.338593, 25.0, 25.0 ]
				}

			}
, 			{
				"box" : 				{
					"comment" : "Audio out",
					"id" : "obj-1",
					"maxclass" : "outlet",
					"numinlets" : 1,
					"numoutlets" : 0,
					"patching_rect" : [ 67.729355, 317.172272, 25.0, 25.0 ]
				}

			}
, 			{
				"box" : 				{
					"bgcolor" : [ 0.501961, 1.0, 0.0, 1.0 ],
					"fontname" : "Arial",
					"fontsize" : 12.0,
					"id" : "obj-16",
					"maxclass" : "message",
					"numinlets" : 2,
					"numoutlets" : 1,
					"outlettype" : [ "" ],
					"patching_rect" : [ 67.524353, 151.672272, 32.5, 18.0 ],
					"text" : "0"
				}

			}
, 			{
				"box" : 				{
					"color" : [ 0.501961, 1.0, 0.0, 1.0 ],
					"fontname" : "Arial",
					"fontsize" : 12.0,
					"id" : "obj-17",
					"maxclass" : "newobj",
					"numinlets" : 1,
					"numoutlets" : 1,
					"outlettype" : [ "bang" ],
					"patching_rect" : [ 67.524353, 117.172272, 60.0, 20.0 ],
					"text" : "loadbang"
				}

			}
, 			{
				"box" : 				{
					"fontname" : "Arial",
					"fontsize" : 12.0,
					"id" : "obj-1873",
					"maxclass" : "newobj",
					"numinlets" : 2,
					"numoutlets" : 4,
					"outlettype" : [ "", "", "", "" ],
					"patcher" : 					{
						"fileversion" : 1,
						"appversion" : 						{
							"major" : 6,
							"minor" : 1,
							"revision" : 8,
							"architecture" : "x86"
						}
,
						"rect" : [ 87.0, 87.0, 1099.0, 570.0 ],
						"bglocked" : 0,
						"openinpresentation" : 0,
						"default_fontsize" : 12.0,
						"default_fontface" : 0,
						"default_fontname" : "Arial",
						"gridonopen" : 0,
						"gridsize" : [ 15.0, 15.0 ],
						"gridsnaponopen" : 0,
						"statusbarvisible" : 2,
						"toolbarvisible" : 1,
						"boxanimatetime" : 200,
						"imprint" : 0,
						"enablehscroll" : 1,
						"enablevscroll" : 1,
						"devicewidth" : 0.0,
						"description" : "",
						"digest" : "",
						"tags" : "",
						"boxes" : [ 							{
								"box" : 								{
									"fontname" : "Arial",
									"fontsize" : 12.0,
									"id" : "obj-20",
									"maxclass" : "newobj",
									"numinlets" : 1,
									"numoutlets" : 1,
									"outlettype" : [ "" ],
									"patcher" : 									{
										"fileversion" : 1,
										"appversion" : 										{
											"major" : 6,
											"minor" : 1,
											"revision" : 8,
											"architecture" : "x86"
										}
,
										"rect" : [ 25.0, 69.0, 354.0, 246.0 ],
										"bglocked" : 0,
										"openinpresentation" : 0,
										"default_fontsize" : 12.0,
										"default_fontface" : 0,
										"default_fontname" : "Arial",
										"gridonopen" : 0,
										"gridsize" : [ 15.0, 15.0 ],
										"gridsnaponopen" : 0,
										"statusbarvisible" : 2,
										"toolbarvisible" : 1,
										"boxanimatetime" : 200,
										"imprint" : 0,
										"enablehscroll" : 1,
										"enablevscroll" : 1,
										"devicewidth" : 0.0,
										"description" : "",
										"digest" : "",
										"tags" : "",
										"boxes" : [ 											{
												"box" : 												{
													"fontname" : "Arial",
													"fontsize" : 12.0,
													"id" : "obj-17",
													"maxclass" : "newobj",
													"numinlets" : 4,
													"numoutlets" : 1,
													"outlettype" : [ "" ],
													"patching_rect" : [ 37.0, 132.927734, 226.799805, 20.0 ],
													"text" : "pack f f f f"
												}

											}
, 											{
												"box" : 												{
													"fontname" : "Arial",
													"fontsize" : 12.0,
													"id" : "obj-15",
													"maxclass" : "newobj",
													"numinlets" : 1,
													"numoutlets" : 1,
													"outlettype" : [ "float" ],
													"patcher" : 													{
														"fileversion" : 1,
														"appversion" : 														{
															"major" : 6,
															"minor" : 1,
															"revision" : 8,
															"architecture" : "x86"
														}
,
														"rect" : [ 25.0, 69.0, 178.0, 232.0 ],
														"bglocked" : 0,
														"openinpresentation" : 0,
														"default_fontsize" : 12.0,
														"default_fontface" : 0,
														"default_fontname" : "Arial",
														"gridonopen" : 0,
														"gridsize" : [ 15.0, 15.0 ],
														"gridsnaponopen" : 0,
														"statusbarvisible" : 2,
														"toolbarvisible" : 1,
														"boxanimatetime" : 200,
														"imprint" : 0,
														"enablehscroll" : 1,
														"enablevscroll" : 1,
														"devicewidth" : 0.0,
														"description" : "",
														"digest" : "",
														"tags" : "",
														"boxes" : [ 															{
																"box" : 																{
																	"fontname" : "Arial",
																	"fontsize" : 12.0,
																	"id" : "obj-15",
																	"maxclass" : "newobj",
																	"numinlets" : 2,
																	"numoutlets" : 1,
																	"outlettype" : [ "float" ],
																	"patching_rect" : [ 23.0, 114.544556, 42.0, 20.0 ],
																	"text" : "* 0.98"
																}

															}
, 															{
																"box" : 																{
																	"fontname" : "Arial",
																	"fontsize" : 12.0,
																	"id" : "obj-14",
																	"maxclass" : "newobj",
																	"numinlets" : 2,
																	"numoutlets" : 1,
																	"outlettype" : [ "float" ],
																	"patching_rect" : [ 23.0, 85.272278, 67.0, 20.0 ],
																	"text" : "/ 1000000."
																}

															}
, 															{
																"box" : 																{
																	"fontname" : "Arial",
																	"fontsize" : 12.0,
																	"id" : "obj-1",
																	"maxclass" : "newobj",
																	"numinlets" : 2,
																	"numoutlets" : 1,
																	"outlettype" : [ "int" ],
																	"patching_rect" : [ 23.0, 56.0, 105.0, 20.0 ],
																	"text" : "random 1000000."
																}

															}
, 															{
																"box" : 																{
																	"comment" : "",
																	"id" : "obj-7",
																	"maxclass" : "inlet",
																	"numinlets" : 0,
																	"numoutlets" : 1,
																	"outlettype" : [ "bang" ],
																	"patching_rect" : [ 23.0, 15.0, 25.0, 25.0 ]
																}

															}
, 															{
																"box" : 																{
																	"comment" : "",
																	"id" : "obj-8",
																	"maxclass" : "outlet",
																	"numinlets" : 1,
																	"numoutlets" : 0,
																	"patching_rect" : [ 23.0, 153.544556, 25.0, 25.0 ]
																}

															}
 ],
														"lines" : [ 															{
																"patchline" : 																{
																	"destination" : [ "obj-14", 0 ],
																	"disabled" : 0,
																	"hidden" : 0,
																	"source" : [ "obj-1", 0 ]
																}

															}
, 															{
																"patchline" : 																{
																	"destination" : [ "obj-15", 0 ],
																	"disabled" : 0,
																	"hidden" : 0,
																	"source" : [ "obj-14", 0 ]
																}

															}
, 															{
																"patchline" : 																{
																	"destination" : [ "obj-8", 0 ],
																	"disabled" : 0,
																	"hidden" : 0,
																	"source" : [ "obj-15", 0 ]
																}

															}
, 															{
																"patchline" : 																{
																	"destination" : [ "obj-1", 0 ],
																	"disabled" : 0,
																	"hidden" : 0,
																	"source" : [ "obj-7", 0 ]
																}

															}
 ]
													}
,
													"patching_rect" : [ 244.799805, 92.0, 61.0, 20.0 ],
													"saved_object_attributes" : 													{
														"default_fontface" : 0,
														"default_fontname" : "Arial",
														"default_fontsize" : 12.0,
														"description" : "",
														"digest" : "",
														"fontface" : 0,
														"fontname" : "Arial",
														"fontsize" : 12.0,
														"globalpatchername" : "",
														"tags" : ""
													}
,
													"text" : "p random"
												}

											}
, 											{
												"box" : 												{
													"fontname" : "Arial",
													"fontsize" : 12.0,
													"id" : "obj-14",
													"maxclass" : "newobj",
													"numinlets" : 1,
													"numoutlets" : 1,
													"outlettype" : [ "float" ],
													"patcher" : 													{
														"fileversion" : 1,
														"appversion" : 														{
															"major" : 6,
															"minor" : 1,
															"revision" : 8,
															"architecture" : "x86"
														}
,
														"rect" : [ 25.0, 69.0, 178.0, 232.0 ],
														"bglocked" : 0,
														"openinpresentation" : 0,
														"default_fontsize" : 12.0,
														"default_fontface" : 0,
														"default_fontname" : "Arial",
														"gridonopen" : 0,
														"gridsize" : [ 15.0, 15.0 ],
														"gridsnaponopen" : 0,
														"statusbarvisible" : 2,
														"toolbarvisible" : 1,
														"boxanimatetime" : 200,
														"imprint" : 0,
														"enablehscroll" : 1,
														"enablevscroll" : 1,
														"devicewidth" : 0.0,
														"description" : "",
														"digest" : "",
														"tags" : "",
														"boxes" : [ 															{
																"box" : 																{
																	"fontname" : "Arial",
																	"fontsize" : 12.0,
																	"id" : "obj-15",
																	"maxclass" : "newobj",
																	"numinlets" : 2,
																	"numoutlets" : 1,
																	"outlettype" : [ "float" ],
																	"patching_rect" : [ 23.0, 114.544556, 42.0, 20.0 ],
																	"text" : "* 0.98"
																}

															}
, 															{
																"box" : 																{
																	"fontname" : "Arial",
																	"fontsize" : 12.0,
																	"id" : "obj-14",
																	"maxclass" : "newobj",
																	"numinlets" : 2,
																	"numoutlets" : 1,
																	"outlettype" : [ "float" ],
																	"patching_rect" : [ 23.0, 85.272278, 67.0, 20.0 ],
																	"text" : "/ 1000000."
																}

															}
, 															{
																"box" : 																{
																	"fontname" : "Arial",
																	"fontsize" : 12.0,
																	"id" : "obj-1",
																	"maxclass" : "newobj",
																	"numinlets" : 2,
																	"numoutlets" : 1,
																	"outlettype" : [ "int" ],
																	"patching_rect" : [ 23.0, 56.0, 105.0, 20.0 ],
																	"text" : "random 1000000."
																}

															}
, 															{
																"box" : 																{
																	"comment" : "",
																	"id" : "obj-7",
																	"maxclass" : "inlet",
																	"numinlets" : 0,
																	"numoutlets" : 1,
																	"outlettype" : [ "bang" ],
																	"patching_rect" : [ 23.0, 15.0, 25.0, 25.0 ]
																}

															}
, 															{
																"box" : 																{
																	"comment" : "",
																	"id" : "obj-8",
																	"maxclass" : "outlet",
																	"numinlets" : 1,
																	"numoutlets" : 0,
																	"patching_rect" : [ 23.0, 153.544556, 25.0, 25.0 ]
																}

															}
 ],
														"lines" : [ 															{
																"patchline" : 																{
																	"destination" : [ "obj-14", 0 ],
																	"disabled" : 0,
																	"hidden" : 0,
																	"source" : [ "obj-1", 0 ]
																}

															}
, 															{
																"patchline" : 																{
																	"destination" : [ "obj-15", 0 ],
																	"disabled" : 0,
																	"hidden" : 0,
																	"source" : [ "obj-14", 0 ]
																}

															}
, 															{
																"patchline" : 																{
																	"destination" : [ "obj-8", 0 ],
																	"disabled" : 0,
																	"hidden" : 0,
																	"source" : [ "obj-15", 0 ]
																}

															}
, 															{
																"patchline" : 																{
																	"destination" : [ "obj-1", 0 ],
																	"disabled" : 0,
																	"hidden" : 0,
																	"source" : [ "obj-7", 0 ]
																}

															}
 ]
													}
,
													"patching_rect" : [ 175.533203, 92.0, 61.0, 20.0 ],
													"saved_object_attributes" : 													{
														"default_fontface" : 0,
														"default_fontname" : "Arial",
														"default_fontsize" : 12.0,
														"description" : "",
														"digest" : "",
														"fontface" : 0,
														"fontname" : "Arial",
														"fontsize" : 12.0,
														"globalpatchername" : "",
														"tags" : ""
													}
,
													"text" : "p random"
												}

											}
, 											{
												"box" : 												{
													"fontname" : "Arial",
													"fontsize" : 12.0,
													"id" : "obj-13",
													"maxclass" : "newobj",
													"numinlets" : 1,
													"numoutlets" : 1,
													"outlettype" : [ "float" ],
													"patcher" : 													{
														"fileversion" : 1,
														"appversion" : 														{
															"major" : 6,
															"minor" : 1,
															"revision" : 8,
															"architecture" : "x86"
														}
,
														"rect" : [ 25.0, 69.0, 178.0, 232.0 ],
														"bglocked" : 0,
														"openinpresentation" : 0,
														"default_fontsize" : 12.0,
														"default_fontface" : 0,
														"default_fontname" : "Arial",
														"gridonopen" : 0,
														"gridsize" : [ 15.0, 15.0 ],
														"gridsnaponopen" : 0,
														"statusbarvisible" : 2,
														"toolbarvisible" : 1,
														"boxanimatetime" : 200,
														"imprint" : 0,
														"enablehscroll" : 1,
														"enablevscroll" : 1,
														"devicewidth" : 0.0,
														"description" : "",
														"digest" : "",
														"tags" : "",
														"boxes" : [ 															{
																"box" : 																{
																	"fontname" : "Arial",
																	"fontsize" : 12.0,
																	"id" : "obj-15",
																	"maxclass" : "newobj",
																	"numinlets" : 2,
																	"numoutlets" : 1,
																	"outlettype" : [ "float" ],
																	"patching_rect" : [ 23.0, 114.544556, 42.0, 20.0 ],
																	"text" : "* 0.98"
																}

															}
, 															{
																"box" : 																{
																	"fontname" : "Arial",
																	"fontsize" : 12.0,
																	"id" : "obj-14",
																	"maxclass" : "newobj",
																	"numinlets" : 2,
																	"numoutlets" : 1,
																	"outlettype" : [ "float" ],
																	"patching_rect" : [ 23.0, 85.272278, 67.0, 20.0 ],
																	"text" : "/ 1000000."
																}

															}
, 															{
																"box" : 																{
																	"fontname" : "Arial",
																	"fontsize" : 12.0,
																	"id" : "obj-1",
																	"maxclass" : "newobj",
																	"numinlets" : 2,
																	"numoutlets" : 1,
																	"outlettype" : [ "int" ],
																	"patching_rect" : [ 23.0, 56.0, 105.0, 20.0 ],
																	"text" : "random 1000000."
																}

															}
, 															{
																"box" : 																{
																	"comment" : "",
																	"id" : "obj-7",
																	"maxclass" : "inlet",
																	"numinlets" : 0,
																	"numoutlets" : 1,
																	"outlettype" : [ "bang" ],
																	"patching_rect" : [ 23.0, 15.0, 25.0, 25.0 ]
																}

															}
, 															{
																"box" : 																{
																	"comment" : "",
																	"id" : "obj-8",
																	"maxclass" : "outlet",
																	"numinlets" : 1,
																	"numoutlets" : 0,
																	"patching_rect" : [ 23.0, 153.544556, 25.0, 25.0 ]
																}

															}
 ],
														"lines" : [ 															{
																"patchline" : 																{
																	"destination" : [ "obj-14", 0 ],
																	"disabled" : 0,
																	"hidden" : 0,
																	"source" : [ "obj-1", 0 ]
																}

															}
, 															{
																"patchline" : 																{
																	"destination" : [ "obj-15", 0 ],
																	"disabled" : 0,
																	"hidden" : 0,
																	"source" : [ "obj-14", 0 ]
																}

															}
, 															{
																"patchline" : 																{
																	"destination" : [ "obj-8", 0 ],
																	"disabled" : 0,
																	"hidden" : 0,
																	"source" : [ "obj-15", 0 ]
																}

															}
, 															{
																"patchline" : 																{
																	"destination" : [ "obj-1", 0 ],
																	"disabled" : 0,
																	"hidden" : 0,
																	"source" : [ "obj-7", 0 ]
																}

															}
 ]
													}
,
													"patching_rect" : [ 106.266602, 92.0, 61.0, 20.0 ],
													"saved_object_attributes" : 													{
														"default_fontface" : 0,
														"default_fontname" : "Arial",
														"default_fontsize" : 12.0,
														"description" : "",
														"digest" : "",
														"fontface" : 0,
														"fontname" : "Arial",
														"fontsize" : 12.0,
														"globalpatchername" : "",
														"tags" : ""
													}
,
													"text" : "p random"
												}

											}
, 											{
												"box" : 												{
													"fontname" : "Arial",
													"fontsize" : 12.0,
													"id" : "obj-9",
													"maxclass" : "newobj",
													"numinlets" : 1,
													"numoutlets" : 1,
													"outlettype" : [ "float" ],
													"patcher" : 													{
														"fileversion" : 1,
														"appversion" : 														{
															"major" : 6,
															"minor" : 1,
															"revision" : 8,
															"architecture" : "x86"
														}
,
														"rect" : [ 25.0, 69.0, 178.0, 232.0 ],
														"bglocked" : 0,
														"openinpresentation" : 0,
														"default_fontsize" : 12.0,
														"default_fontface" : 0,
														"default_fontname" : "Arial",
														"gridonopen" : 0,
														"gridsize" : [ 15.0, 15.0 ],
														"gridsnaponopen" : 0,
														"statusbarvisible" : 2,
														"toolbarvisible" : 1,
														"boxanimatetime" : 200,
														"imprint" : 0,
														"enablehscroll" : 1,
														"enablevscroll" : 1,
														"devicewidth" : 0.0,
														"description" : "",
														"digest" : "",
														"tags" : "",
														"boxes" : [ 															{
																"box" : 																{
																	"fontname" : "Arial",
																	"fontsize" : 12.0,
																	"id" : "obj-15",
																	"maxclass" : "newobj",
																	"numinlets" : 2,
																	"numoutlets" : 1,
																	"outlettype" : [ "float" ],
																	"patching_rect" : [ 23.0, 114.544556, 42.0, 20.0 ],
																	"text" : "* 0.98"
																}

															}
, 															{
																"box" : 																{
																	"fontname" : "Arial",
																	"fontsize" : 12.0,
																	"id" : "obj-14",
																	"maxclass" : "newobj",
																	"numinlets" : 2,
																	"numoutlets" : 1,
																	"outlettype" : [ "float" ],
																	"patching_rect" : [ 23.0, 85.272278, 67.0, 20.0 ],
																	"text" : "/ 1000000."
																}

															}
, 															{
																"box" : 																{
																	"fontname" : "Arial",
																	"fontsize" : 12.0,
																	"id" : "obj-1",
																	"maxclass" : "newobj",
																	"numinlets" : 2,
																	"numoutlets" : 1,
																	"outlettype" : [ "int" ],
																	"patching_rect" : [ 23.0, 56.0, 105.0, 20.0 ],
																	"text" : "random 1000000."
																}

															}
, 															{
																"box" : 																{
																	"comment" : "",
																	"id" : "obj-7",
																	"maxclass" : "inlet",
																	"numinlets" : 0,
																	"numoutlets" : 1,
																	"outlettype" : [ "bang" ],
																	"patching_rect" : [ 23.0, 15.0, 25.0, 25.0 ]
																}

															}
, 															{
																"box" : 																{
																	"comment" : "",
																	"id" : "obj-8",
																	"maxclass" : "outlet",
																	"numinlets" : 1,
																	"numoutlets" : 0,
																	"patching_rect" : [ 23.0, 153.544556, 25.0, 25.0 ]
																}

															}
 ],
														"lines" : [ 															{
																"patchline" : 																{
																	"destination" : [ "obj-14", 0 ],
																	"disabled" : 0,
																	"hidden" : 0,
																	"source" : [ "obj-1", 0 ]
																}

															}
, 															{
																"patchline" : 																{
																	"destination" : [ "obj-15", 0 ],
																	"disabled" : 0,
																	"hidden" : 0,
																	"source" : [ "obj-14", 0 ]
																}

															}
, 															{
																"patchline" : 																{
																	"destination" : [ "obj-8", 0 ],
																	"disabled" : 0,
																	"hidden" : 0,
																	"source" : [ "obj-15", 0 ]
																}

															}
, 															{
																"patchline" : 																{
																	"destination" : [ "obj-1", 0 ],
																	"disabled" : 0,
																	"hidden" : 0,
																	"source" : [ "obj-7", 0 ]
																}

															}
 ]
													}
,
													"patching_rect" : [ 37.0, 92.0, 61.0, 20.0 ],
													"saved_object_attributes" : 													{
														"default_fontface" : 0,
														"default_fontname" : "Arial",
														"default_fontsize" : 12.0,
														"description" : "",
														"digest" : "",
														"fontface" : 0,
														"fontname" : "Arial",
														"fontsize" : 12.0,
														"globalpatchername" : "",
														"tags" : ""
													}
,
													"text" : "p random"
												}

											}
, 											{
												"box" : 												{
													"comment" : "",
													"id" : "obj-18",
													"maxclass" : "inlet",
													"numinlets" : 0,
													"numoutlets" : 1,
													"outlettype" : [ "bang" ],
													"patching_rect" : [ 37.0, 21.0, 25.0, 25.0 ]
												}

											}
, 											{
												"box" : 												{
													"comment" : "",
													"id" : "obj-19",
													"maxclass" : "outlet",
													"numinlets" : 1,
													"numoutlets" : 0,
													"patching_rect" : [ 37.0, 176.927734, 25.0, 25.0 ]
												}

											}
 ],
										"lines" : [ 											{
												"patchline" : 												{
													"destination" : [ "obj-17", 1 ],
													"disabled" : 0,
													"hidden" : 0,
													"source" : [ "obj-13", 0 ]
												}

											}
, 											{
												"patchline" : 												{
													"destination" : [ "obj-17", 2 ],
													"disabled" : 0,
													"hidden" : 0,
													"source" : [ "obj-14", 0 ]
												}

											}
, 											{
												"patchline" : 												{
													"destination" : [ "obj-17", 3 ],
													"disabled" : 0,
													"hidden" : 0,
													"source" : [ "obj-15", 0 ]
												}

											}
, 											{
												"patchline" : 												{
													"destination" : [ "obj-19", 0 ],
													"disabled" : 0,
													"hidden" : 0,
													"source" : [ "obj-17", 0 ]
												}

											}
, 											{
												"patchline" : 												{
													"destination" : [ "obj-13", 0 ],
													"disabled" : 0,
													"hidden" : 0,
													"source" : [ "obj-18", 0 ]
												}

											}
, 											{
												"patchline" : 												{
													"destination" : [ "obj-14", 0 ],
													"disabled" : 0,
													"hidden" : 0,
													"source" : [ "obj-18", 0 ]
												}

											}
, 											{
												"patchline" : 												{
													"destination" : [ "obj-15", 0 ],
													"disabled" : 0,
													"hidden" : 0,
													"source" : [ "obj-18", 0 ]
												}

											}
, 											{
												"patchline" : 												{
													"destination" : [ "obj-9", 0 ],
													"disabled" : 0,
													"hidden" : 0,
													"source" : [ "obj-18", 0 ]
												}

											}
, 											{
												"patchline" : 												{
													"destination" : [ "obj-17", 0 ],
													"disabled" : 0,
													"hidden" : 0,
													"source" : [ "obj-9", 0 ]
												}

											}
 ]
									}
,
									"patching_rect" : [ 115.983398, 133.231934, 61.0, 20.0 ],
									"saved_object_attributes" : 									{
										"default_fontface" : 0,
										"default_fontname" : "Arial",
										"default_fontsize" : 12.0,
										"description" : "",
										"digest" : "",
										"fontface" : 0,
										"fontname" : "Arial",
										"fontsize" : 12.0,
										"globalpatchername" : "",
										"tags" : ""
									}
,
									"text" : "p random"
								}

							}
, 							{
								"box" : 								{
									"fontname" : "Arial",
									"fontsize" : 12.0,
									"frgb" : 0.0,
									"id" : "obj-6",
									"maxclass" : "comment",
									"numinlets" : 1,
									"numoutlets" : 0,
									"patching_rect" : [ 614.0, 42.5, 117.0, 20.0 ],
									"text" : "incoming selectivity\n"
								}

							}
, 							{
								"box" : 								{
									"fontname" : "Arial",
									"fontsize" : 12.0,
									"frgb" : 0.0,
									"id" : "obj-4",
									"linecount" : 2,
									"maxclass" : "comment",
									"numinlets" : 1,
									"numoutlets" : 0,
									"patching_rect" : [ 586.0, 343.0, 150.0, 33.0 ],
									"text" : "use split to adjust selectivity with one control"
								}

							}
, 							{
								"box" : 								{
									"fontname" : "Arial",
									"fontsize" : 12.0,
									"frgb" : 0.0,
									"id" : "obj-2",
									"maxclass" : "comment",
									"numinlets" : 1,
									"numoutlets" : 0,
									"patching_rect" : [ 222.0, 303.641174, 150.0, 20.0 ],
									"text" : "unpack the list for scaling"
								}

							}
, 							{
								"box" : 								{
									"fontname" : "Arial",
									"fontsize" : 12.0,
									"frgb" : 0.0,
									"id" : "obj-1812",
									"linecount" : 3,
									"maxclass" : "comment",
									"numinlets" : 1,
									"numoutlets" : 0,
									"patching_rect" : [ 179.0, 34.0, 150.0, 47.0 ],
									"text" : "change matching parameters depending on the corpus loaded"
								}

							}
, 							{
								"box" : 								{
									"fontname" : "Arial",
									"fontsize" : 12.0,
									"id" : "obj-1856",
									"maxclass" : "newobj",
									"numinlets" : 6,
									"numoutlets" : 1,
									"outlettype" : [ "" ],
									"patching_rect" : [ 812.0, 439.56604, 99.0, 20.0 ],
									"text" : "scale 0. 0.5 0. 1."
								}

							}
, 							{
								"box" : 								{
									"fontname" : "Arial",
									"fontsize" : 12.0,
									"id" : "obj-1857",
									"maxclass" : "newobj",
									"numinlets" : 3,
									"numoutlets" : 2,
									"outlettype" : [ "float", "float" ],
									"patching_rect" : [ 812.0, 410.0, 133.0, 20.0 ],
									"text" : "split 0. 0.5"
								}

							}
, 							{
								"box" : 								{
									"fontname" : "Arial",
									"fontsize" : 12.0,
									"id" : "obj-1858",
									"maxclass" : "newobj",
									"numinlets" : 6,
									"numoutlets" : 1,
									"outlettype" : [ "" ],
									"patching_rect" : [ 926.0, 439.56604, 99.0, 20.0 ],
									"text" : "scale 0.5 1. 0. 1."
								}

							}
, 							{
								"box" : 								{
									"fontname" : "Arial",
									"fontsize" : 12.0,
									"id" : "obj-1853",
									"maxclass" : "newobj",
									"numinlets" : 6,
									"numoutlets" : 1,
									"outlettype" : [ "" ],
									"patching_rect" : [ 551.0, 439.56604, 99.0, 20.0 ],
									"text" : "scale 0. 0.5 0. 1."
								}

							}
, 							{
								"box" : 								{
									"fontname" : "Arial",
									"fontsize" : 12.0,
									"id" : "obj-1854",
									"maxclass" : "newobj",
									"numinlets" : 3,
									"numoutlets" : 2,
									"outlettype" : [ "float", "float" ],
									"patching_rect" : [ 551.0, 410.0, 133.0, 20.0 ],
									"text" : "split 0. 0.5"
								}

							}
, 							{
								"box" : 								{
									"fontname" : "Arial",
									"fontsize" : 12.0,
									"id" : "obj-1855",
									"maxclass" : "newobj",
									"numinlets" : 6,
									"numoutlets" : 1,
									"outlettype" : [ "" ],
									"patching_rect" : [ 665.0, 439.56604, 99.0, 20.0 ],
									"text" : "scale 0.5 1. 0. 1."
								}

							}
, 							{
								"box" : 								{
									"fontname" : "Arial",
									"fontsize" : 12.0,
									"id" : "obj-1850",
									"maxclass" : "newobj",
									"numinlets" : 6,
									"numoutlets" : 1,
									"outlettype" : [ "" ],
									"patching_rect" : [ 306.412109, 439.56604, 99.0, 20.0 ],
									"text" : "scale 0. 0.5 0. 1."
								}

							}
, 							{
								"box" : 								{
									"fontname" : "Arial",
									"fontsize" : 12.0,
									"id" : "obj-1851",
									"maxclass" : "newobj",
									"numinlets" : 3,
									"numoutlets" : 2,
									"outlettype" : [ "float", "float" ],
									"patching_rect" : [ 306.412109, 410.0, 133.0, 20.0 ],
									"text" : "split 0. 0.5"
								}

							}
, 							{
								"box" : 								{
									"fontname" : "Arial",
									"fontsize" : 12.0,
									"id" : "obj-1852",
									"maxclass" : "newobj",
									"numinlets" : 6,
									"numoutlets" : 1,
									"outlettype" : [ "" ],
									"patching_rect" : [ 420.412109, 439.56604, 99.0, 20.0 ],
									"text" : "scale 0.5 1. 0. 1."
								}

							}
, 							{
								"box" : 								{
									"fontname" : "Arial",
									"fontsize" : 12.0,
									"id" : "obj-1841",
									"maxclass" : "newobj",
									"numinlets" : 6,
									"numoutlets" : 1,
									"outlettype" : [ "" ],
									"patching_rect" : [ 50.0, 439.56604, 99.0, 20.0 ],
									"text" : "scale 0. 0.5 0. 1."
								}

							}
, 							{
								"box" : 								{
									"fontname" : "Arial",
									"fontsize" : 12.0,
									"id" : "obj-1842",
									"maxclass" : "newobj",
									"numinlets" : 3,
									"numoutlets" : 2,
									"outlettype" : [ "float", "float" ],
									"patching_rect" : [ 50.0, 410.0, 133.0, 20.0 ],
									"text" : "split 0. 0.5"
								}

							}
, 							{
								"box" : 								{
									"fontname" : "Arial",
									"fontsize" : 12.0,
									"id" : "obj-1843",
									"maxclass" : "newobj",
									"numinlets" : 6,
									"numoutlets" : 1,
									"outlettype" : [ "" ],
									"patching_rect" : [ 164.0, 439.56604, 99.0, 20.0 ],
									"text" : "scale 0.5 1. 0. 1."
								}

							}
, 							{
								"box" : 								{
									"fontname" : "Arial",
									"fontsize" : 12.0,
									"id" : "obj-1813",
									"maxclass" : "newobj",
									"numinlets" : 1,
									"numoutlets" : 4,
									"outlettype" : [ "float", "float", "float", "float" ],
									"patching_rect" : [ 115.983398, 303.641174, 76.0, 20.0 ],
									"text" : "unpack f f f f"
								}

							}
, 							{
								"box" : 								{
									"fontname" : "Arial",
									"fontsize" : 12.0,
									"id" : "obj-1283",
									"maxclass" : "message",
									"numinlets" : 2,
									"numoutlets" : 1,
									"outlettype" : [ "" ],
									"patching_rect" : [ 382.769043, 246.159668, 87.0, 18.0 ],
									"text" : "0.3 0.8 0.3 0.9"
								}

							}
, 							{
								"box" : 								{
									"fontname" : "Arial",
									"fontsize" : 12.0,
									"id" : "obj-1282",
									"maxclass" : "message",
									"numinlets" : 2,
									"numoutlets" : 1,
									"outlettype" : [ "" ],
									"patching_rect" : [ 329.411621, 217.927734, 94.0, 18.0 ],
									"text" : "0.75 0.6 0.4 0.8"
								}

							}
, 							{
								"box" : 								{
									"fontname" : "Arial",
									"fontsize" : 12.0,
									"id" : "obj-1212",
									"maxclass" : "message",
									"numinlets" : 2,
									"numoutlets" : 1,
									"outlettype" : [ "" ],
									"patching_rect" : [ 276.054688, 189.695801, 87.0, 18.0 ],
									"text" : "0.9 0.4 0.3 0.7"
								}

							}
, 							{
								"box" : 								{
									"fontname" : "Arial",
									"fontsize" : 12.0,
									"id" : "obj-1166",
									"maxclass" : "message",
									"numinlets" : 2,
									"numoutlets" : 1,
									"outlettype" : [ "" ],
									"patching_rect" : [ 222.697266, 161.463867, 87.0, 18.0 ],
									"text" : "0.8 0.9 0.6 0.4"
								}

							}
, 							{
								"box" : 								{
									"fontname" : "Arial",
									"fontsize" : 12.0,
									"id" : "obj-1025",
									"maxclass" : "message",
									"numinlets" : 2,
									"numoutlets" : 1,
									"outlettype" : [ "" ],
									"patching_rect" : [ 169.340332, 133.231934, 81.0, 18.0 ],
									"text" : "0.4 0.6 0. 0.9"
								}

							}
, 							{
								"box" : 								{
									"fontname" : "Arial",
									"fontsize" : 12.0,
									"id" : "obj-24",
									"maxclass" : "newobj",
									"numinlets" : 9,
									"numoutlets" : 9,
									"outlettype" : [ "bang", "bang", "bang", "bang", "bang", "bang", "bang", "bang", "" ],
									"patching_rect" : [ 115.983398, 100.0, 445.855469, 20.0 ],
									"text" : "sel 1 2 3 4 5 6 7 8"
								}

							}
, 							{
								"box" : 								{
									"comment" : "selectivity control",
									"id" : "obj-1867",
									"maxclass" : "inlet",
									"numinlets" : 0,
									"numoutlets" : 1,
									"outlettype" : [ "" ],
									"patching_rect" : [ 576.75, 40.0, 25.0, 25.0 ]
								}

							}
, 							{
								"box" : 								{
									"comment" : "corpus",
									"id" : "obj-1868",
									"maxclass" : "inlet",
									"numinlets" : 0,
									"numoutlets" : 1,
									"outlettype" : [ "" ],
									"patching_rect" : [ 115.983398, 40.0, 25.0, 25.0 ]
								}

							}
, 							{
								"box" : 								{
									"comment" : "",
									"id" : "obj-1869",
									"maxclass" : "outlet",
									"numinlets" : 1,
									"numoutlets" : 0,
									"patching_rect" : [ 50.0, 494.56604, 25.0, 25.0 ]
								}

							}
, 							{
								"box" : 								{
									"comment" : "",
									"id" : "obj-1870",
									"maxclass" : "outlet",
									"numinlets" : 1,
									"numoutlets" : 0,
									"patching_rect" : [ 306.412109, 494.56604, 25.0, 25.0 ]
								}

							}
, 							{
								"box" : 								{
									"comment" : "",
									"id" : "obj-1871",
									"maxclass" : "outlet",
									"numinlets" : 1,
									"numoutlets" : 0,
									"patching_rect" : [ 551.0, 494.56604, 25.0, 25.0 ]
								}

							}
, 							{
								"box" : 								{
									"comment" : "",
									"id" : "obj-1872",
									"maxclass" : "outlet",
									"numinlets" : 1,
									"numoutlets" : 0,
									"patching_rect" : [ 812.0, 494.56604, 25.0, 25.0 ]
								}

							}
 ],
						"lines" : [ 							{
								"patchline" : 								{
									"destination" : [ "obj-1813", 0 ],
									"disabled" : 0,
									"hidden" : 0,
									"source" : [ "obj-1025", 0 ]
								}

							}
, 							{
								"patchline" : 								{
									"destination" : [ "obj-1813", 0 ],
									"disabled" : 0,
									"hidden" : 0,
									"source" : [ "obj-1166", 0 ]
								}

							}
, 							{
								"patchline" : 								{
									"destination" : [ "obj-1813", 0 ],
									"disabled" : 0,
									"hidden" : 0,
									"source" : [ "obj-1212", 0 ]
								}

							}
, 							{
								"patchline" : 								{
									"destination" : [ "obj-1813", 0 ],
									"disabled" : 0,
									"hidden" : 0,
									"source" : [ "obj-1282", 0 ]
								}

							}
, 							{
								"patchline" : 								{
									"destination" : [ "obj-1813", 0 ],
									"disabled" : 0,
									"hidden" : 0,
									"source" : [ "obj-1283", 0 ]
								}

							}
, 							{
								"patchline" : 								{
									"destination" : [ "obj-1841", 4 ],
									"disabled" : 0,
									"hidden" : 0,
									"source" : [ "obj-1813", 0 ]
								}

							}
, 							{
								"patchline" : 								{
									"destination" : [ "obj-1843", 3 ],
									"disabled" : 0,
									"hidden" : 0,
									"source" : [ "obj-1813", 0 ]
								}

							}
, 							{
								"patchline" : 								{
									"destination" : [ "obj-1850", 4 ],
									"disabled" : 0,
									"hidden" : 0,
									"source" : [ "obj-1813", 1 ]
								}

							}
, 							{
								"patchline" : 								{
									"destination" : [ "obj-1852", 3 ],
									"disabled" : 0,
									"hidden" : 0,
									"source" : [ "obj-1813", 1 ]
								}

							}
, 							{
								"patchline" : 								{
									"destination" : [ "obj-1853", 4 ],
									"disabled" : 0,
									"hidden" : 0,
									"source" : [ "obj-1813", 2 ]
								}

							}
, 							{
								"patchline" : 								{
									"destination" : [ "obj-1855", 3 ],
									"disabled" : 0,
									"hidden" : 0,
									"source" : [ "obj-1813", 2 ]
								}

							}
, 							{
								"patchline" : 								{
									"destination" : [ "obj-1856", 4 ],
									"disabled" : 0,
									"hidden" : 0,
									"source" : [ "obj-1813", 3 ]
								}

							}
, 							{
								"patchline" : 								{
									"destination" : [ "obj-1858", 3 ],
									"disabled" : 0,
									"hidden" : 0,
									"source" : [ "obj-1813", 3 ]
								}

							}
, 							{
								"patchline" : 								{
									"destination" : [ "obj-1869", 0 ],
									"disabled" : 0,
									"hidden" : 0,
									"source" : [ "obj-1813", 0 ]
								}

							}
, 							{
								"patchline" : 								{
									"destination" : [ "obj-1870", 0 ],
									"disabled" : 0,
									"hidden" : 0,
									"source" : [ "obj-1813", 1 ]
								}

							}
, 							{
								"patchline" : 								{
									"destination" : [ "obj-1871", 0 ],
									"disabled" : 0,
									"hidden" : 0,
									"source" : [ "obj-1813", 2 ]
								}

							}
, 							{
								"patchline" : 								{
									"destination" : [ "obj-1872", 0 ],
									"disabled" : 0,
									"hidden" : 0,
									"source" : [ "obj-1813", 3 ]
								}

							}
, 							{
								"patchline" : 								{
									"destination" : [ "obj-1869", 0 ],
									"disabled" : 0,
									"hidden" : 0,
									"source" : [ "obj-1841", 0 ]
								}

							}
, 							{
								"patchline" : 								{
									"destination" : [ "obj-1841", 0 ],
									"disabled" : 0,
									"hidden" : 0,
									"source" : [ "obj-1842", 0 ]
								}

							}
, 							{
								"patchline" : 								{
									"destination" : [ "obj-1843", 0 ],
									"disabled" : 0,
									"hidden" : 0,
									"source" : [ "obj-1842", 1 ]
								}

							}
, 							{
								"patchline" : 								{
									"destination" : [ "obj-1869", 0 ],
									"disabled" : 0,
									"hidden" : 0,
									"source" : [ "obj-1843", 0 ]
								}

							}
, 							{
								"patchline" : 								{
									"destination" : [ "obj-1870", 0 ],
									"disabled" : 0,
									"hidden" : 0,
									"source" : [ "obj-1850", 0 ]
								}

							}
, 							{
								"patchline" : 								{
									"destination" : [ "obj-1850", 0 ],
									"disabled" : 0,
									"hidden" : 0,
									"source" : [ "obj-1851", 0 ]
								}

							}
, 							{
								"patchline" : 								{
									"destination" : [ "obj-1852", 0 ],
									"disabled" : 0,
									"hidden" : 0,
									"source" : [ "obj-1851", 1 ]
								}

							}
, 							{
								"patchline" : 								{
									"destination" : [ "obj-1870", 0 ],
									"disabled" : 0,
									"hidden" : 0,
									"source" : [ "obj-1852", 0 ]
								}

							}
, 							{
								"patchline" : 								{
									"destination" : [ "obj-1871", 0 ],
									"disabled" : 0,
									"hidden" : 0,
									"source" : [ "obj-1853", 0 ]
								}

							}
, 							{
								"patchline" : 								{
									"destination" : [ "obj-1853", 0 ],
									"disabled" : 0,
									"hidden" : 0,
									"source" : [ "obj-1854", 0 ]
								}

							}
, 							{
								"patchline" : 								{
									"destination" : [ "obj-1855", 0 ],
									"disabled" : 0,
									"hidden" : 0,
									"source" : [ "obj-1854", 1 ]
								}

							}
, 							{
								"patchline" : 								{
									"destination" : [ "obj-1871", 0 ],
									"disabled" : 0,
									"hidden" : 0,
									"source" : [ "obj-1855", 0 ]
								}

							}
, 							{
								"patchline" : 								{
									"destination" : [ "obj-1872", 0 ],
									"disabled" : 0,
									"hidden" : 0,
									"source" : [ "obj-1856", 0 ]
								}

							}
, 							{
								"patchline" : 								{
									"destination" : [ "obj-1856", 0 ],
									"disabled" : 0,
									"hidden" : 0,
									"source" : [ "obj-1857", 0 ]
								}

							}
, 							{
								"patchline" : 								{
									"destination" : [ "obj-1858", 0 ],
									"disabled" : 0,
									"hidden" : 0,
									"source" : [ "obj-1857", 1 ]
								}

							}
, 							{
								"patchline" : 								{
									"destination" : [ "obj-1872", 0 ],
									"disabled" : 0,
									"hidden" : 0,
									"source" : [ "obj-1858", 0 ]
								}

							}
, 							{
								"patchline" : 								{
									"destination" : [ "obj-1842", 0 ],
									"disabled" : 0,
									"hidden" : 0,
									"source" : [ "obj-1867", 0 ]
								}

							}
, 							{
								"patchline" : 								{
									"destination" : [ "obj-1851", 0 ],
									"disabled" : 0,
									"hidden" : 0,
									"source" : [ "obj-1867", 0 ]
								}

							}
, 							{
								"patchline" : 								{
									"destination" : [ "obj-1854", 0 ],
									"disabled" : 0,
									"hidden" : 0,
									"source" : [ "obj-1867", 0 ]
								}

							}
, 							{
								"patchline" : 								{
									"destination" : [ "obj-1857", 0 ],
									"disabled" : 0,
									"hidden" : 0,
									"source" : [ "obj-1867", 0 ]
								}

							}
, 							{
								"patchline" : 								{
									"destination" : [ "obj-24", 0 ],
									"disabled" : 0,
									"hidden" : 0,
									"source" : [ "obj-1868", 0 ]
								}

							}
, 							{
								"patchline" : 								{
									"destination" : [ "obj-1813", 0 ],
									"disabled" : 0,
									"hidden" : 0,
									"source" : [ "obj-20", 0 ]
								}

							}
, 							{
								"patchline" : 								{
									"destination" : [ "obj-1025", 0 ],
									"disabled" : 0,
									"hidden" : 0,
									"source" : [ "obj-24", 1 ]
								}

							}
, 							{
								"patchline" : 								{
									"destination" : [ "obj-1166", 0 ],
									"disabled" : 0,
									"hidden" : 0,
									"source" : [ "obj-24", 2 ]
								}

							}
, 							{
								"patchline" : 								{
									"destination" : [ "obj-1212", 0 ],
									"disabled" : 0,
									"hidden" : 0,
									"source" : [ "obj-24", 3 ]
								}

							}
, 							{
								"patchline" : 								{
									"destination" : [ "obj-1282", 0 ],
									"disabled" : 0,
									"hidden" : 0,
									"source" : [ "obj-24", 4 ]
								}

							}
, 							{
								"patchline" : 								{
									"destination" : [ "obj-1283", 0 ],
									"disabled" : 0,
									"hidden" : 0,
									"source" : [ "obj-24", 5 ]
								}

							}
, 							{
								"patchline" : 								{
									"destination" : [ "obj-20", 0 ],
									"disabled" : 0,
									"hidden" : 0,
									"source" : [ "obj-24", 0 ]
								}

							}
 ]
					}
,
					"patching_rect" : [ 544.079468, 122.838593, 229.5, 20.0 ],
					"saved_object_attributes" : 					{
						"default_fontface" : 0,
						"default_fontname" : "Arial",
						"default_fontsize" : 12.0,
						"description" : "",
						"digest" : "",
						"fontface" : 0,
						"fontname" : "Arial",
						"fontsize" : 12.0,
						"globalpatchername" : "",
						"tags" : ""
					}
,
					"text" : "p preset"
				}

			}
, 			{
				"box" : 				{
					"bgcolor" : [ 0.501961, 1.0, 0.0, 1.0 ],
					"fontname" : "Arial",
					"fontsize" : 12.0,
					"id" : "obj-1653",
					"maxclass" : "message",
					"numinlets" : 2,
					"numoutlets" : 1,
					"outlettype" : [ "" ],
					"patching_rect" : [ 105.324402, 151.672272, 32.5, 18.0 ],
					"text" : "#1"
				}

			}
, 			{
				"box" : 				{
					"bgcolor" : [ 0.0, 0.0, 0.0, 1.0 ],
					"color" : [ 0.0, 0.0, 0.0, 1.0 ],
					"fontname" : "Arial",
					"fontsize" : 12.0,
					"id" : "obj-13",
					"maxclass" : "newobj",
					"numinlets" : 1,
					"numoutlets" : 1,
					"outlettype" : [ "" ],
					"patching_rect" : [ 1112.079468, 223.672272, 122.0, 20.0 ],
					"text" : "prepend dropwindow",
					"textcolor" : [ 1.0, 1.0, 1.0, 1.0 ]
				}

			}
, 			{
				"box" : 				{
					"bgcolor" : [ 0.0, 0.0, 0.0, 1.0 ],
					"color" : [ 0.0, 0.0, 0.0, 1.0 ],
					"fontname" : "Arial",
					"fontsize" : 12.0,
					"id" : "obj-12",
					"maxclass" : "newobj",
					"numinlets" : 1,
					"numoutlets" : 1,
					"outlettype" : [ "" ],
					"patching_rect" : [ 996.079468, 223.672272, 107.0, 20.0 ],
					"text" : "prepend inputtype",
					"textcolor" : [ 1.0, 1.0, 1.0, 1.0 ]
				}

			}
, 			{
				"box" : 				{
					"bgcolor" : [ 0.0, 0.0, 0.0, 1.0 ],
					"color" : [ 0.0, 0.0, 0.0, 1.0 ],
					"fontname" : "Arial",
					"fontsize" : 12.0,
					"id" : "obj-11",
					"maxclass" : "newobj",
					"numinlets" : 1,
					"numoutlets" : 1,
					"outlettype" : [ "" ],
					"patching_rect" : [ 872.079468, 223.672272, 114.0, 20.0 ],
					"text" : "prepend roughness",
					"textcolor" : [ 1.0, 1.0, 1.0, 1.0 ]
				}

			}
, 			{
				"box" : 				{
					"bgcolor" : [ 0.0, 0.0, 0.0, 1.0 ],
					"color" : [ 0.0, 0.0, 0.0, 1.0 ],
					"fontname" : "Arial",
					"fontsize" : 12.0,
					"id" : "obj-10",
					"maxclass" : "newobj",
					"numinlets" : 1,
					"numoutlets" : 1,
					"outlettype" : [ "" ],
					"patching_rect" : [ 761.079468, 223.672272, 101.0, 20.0 ],
					"text" : "prepend centroid",
					"textcolor" : [ 1.0, 1.0, 1.0, 1.0 ]
				}

			}
, 			{
				"box" : 				{
					"bgcolor" : [ 0.0, 0.0, 0.0, 1.0 ],
					"color" : [ 0.0, 0.0, 0.0, 1.0 ],
					"fontname" : "Arial",
					"fontsize" : 12.0,
					"id" : "obj-9",
					"maxclass" : "newobj",
					"numinlets" : 1,
					"numoutlets" : 1,
					"outlettype" : [ "" ],
					"patching_rect" : [ 659.079468, 223.672272, 83.0, 20.0 ],
					"text" : "prepend pitch",
					"textcolor" : [ 1.0, 1.0, 1.0, 1.0 ]
				}

			}
, 			{
				"box" : 				{
					"bgcolor" : [ 0.0, 0.0, 0.0, 1.0 ],
					"color" : [ 0.0, 0.0, 0.0, 1.0 ],
					"fontname" : "Arial",
					"fontsize" : 12.0,
					"id" : "obj-8",
					"maxclass" : "newobj",
					"numinlets" : 1,
					"numoutlets" : 1,
					"outlettype" : [ "" ],
					"patching_rect" : [ 544.079468, 223.672272, 106.0, 20.0 ],
					"text" : "prepend loudness",
					"textcolor" : [ 1.0, 1.0, 1.0, 1.0 ]
				}

			}
, 			{
				"box" : 				{
					"bgcolor" : [ 0.0, 0.0, 0.0, 1.0 ],
					"color" : [ 0.0, 0.0, 0.0, 1.0 ],
					"fontname" : "Arial",
					"fontsize" : 12.0,
					"id" : "obj-7",
					"maxclass" : "newobj",
					"numinlets" : 1,
					"numoutlets" : 1,
					"outlettype" : [ "" ],
					"patching_rect" : [ 293.029419, 223.672272, 106.0, 20.0 ],
					"text" : "prepend grainsize",
					"textcolor" : [ 1.0, 1.0, 1.0, 1.0 ]
				}

			}
, 			{
				"box" : 				{
					"bgcolor" : [ 0.0, 0.0, 0.0, 1.0 ],
					"color" : [ 0.0, 0.0, 0.0, 1.0 ],
					"fontname" : "Arial",
					"fontsize" : 12.0,
					"id" : "obj-6",
					"maxclass" : "newobj",
					"numinlets" : 1,
					"numoutlets" : 1,
					"outlettype" : [ "" ],
					"patching_rect" : [ 412.929321, 223.672272, 124.0, 20.0 ],
					"text" : "prepend pitchrandom",
					"textcolor" : [ 1.0, 1.0, 1.0, 1.0 ]
				}

			}
, 			{
				"box" : 				{
					"bgcolor" : [ 0.0, 0.0, 0.0, 1.0 ],
					"color" : [ 0.0, 0.0, 0.0, 1.0 ],
					"fontname" : "Arial",
					"fontsize" : 12.0,
					"id" : "obj-5",
					"maxclass" : "newobj",
					"numinlets" : 1,
					"numoutlets" : 1,
					"outlettype" : [ "" ],
					"patching_rect" : [ 175.079437, 223.672272, 111.0, 20.0 ],
					"text" : "prepend matchrate",
					"textcolor" : [ 1.0, 1.0, 1.0, 1.0 ]
				}

			}
, 			{
				"box" : 				{
					"bgcolor" : [ 0.0, 0.0, 0.0, 1.0 ],
					"color" : [ 0.0, 0.0, 0.0, 1.0 ],
					"fontname" : "Arial",
					"fontsize" : 12.0,
					"id" : "obj-2",
					"maxclass" : "newobj",
					"numinlets" : 1,
					"numoutlets" : 1,
					"outlettype" : [ "" ],
					"patching_rect" : [ 67.729355, 223.672272, 93.0, 20.0 ],
					"text" : "prepend concat",
					"textcolor" : [ 1.0, 1.0, 1.0, 1.0 ]
				}

			}
, 			{
				"box" : 				{
					"fontname" : "Arial",
					"fontsize" : 12.0,
					"id" : "obj-2191",
					"maxclass" : "newobj",
					"numinlets" : 0,
					"numoutlets" : 1,
					"outlettype" : [ "" ],
					"patcher" : 					{
						"fileversion" : 1,
						"appversion" : 						{
							"major" : 6,
							"minor" : 1,
							"revision" : 8,
							"architecture" : "x86"
						}
,
						"rect" : [ 25.0, 69.0, 340.0, 220.0 ],
						"bglocked" : 0,
						"openinpresentation" : 0,
						"default_fontsize" : 12.0,
						"default_fontface" : 0,
						"default_fontname" : "Arial",
						"gridonopen" : 0,
						"gridsize" : [ 15.0, 15.0 ],
						"gridsnaponopen" : 0,
						"statusbarvisible" : 2,
						"toolbarvisible" : 1,
						"boxanimatetime" : 200,
						"imprint" : 0,
						"enablehscroll" : 1,
						"enablevscroll" : 1,
						"devicewidth" : 0.0,
						"description" : "",
						"digest" : "",
						"tags" : "",
						"boxes" : [ 							{
								"box" : 								{
									"fontname" : "Arial",
									"fontsize" : 12.0,
									"frgb" : 0.0,
									"id" : "obj-2",
									"linecount" : 2,
									"maxclass" : "comment",
									"numinlets" : 1,
									"numoutlets" : 0,
									"patching_rect" : [ 88.0, 145.0, 167.0, 33.0 ],
									"text" : "select input type depending on \"setup\" preset chosen"
								}

							}
, 							{
								"box" : 								{
									"fontname" : "Arial",
									"fontsize" : 12.0,
									"id" : "obj-2189",
									"maxclass" : "message",
									"numinlets" : 2,
									"numoutlets" : 1,
									"outlettype" : [ "" ],
									"patching_rect" : [ 169.850098, 94.691925, 32.5, 18.0 ],
									"text" : "2"
								}

							}
, 							{
								"box" : 								{
									"fontname" : "Arial",
									"fontsize" : 12.0,
									"id" : "obj-2188",
									"maxclass" : "message",
									"numinlets" : 2,
									"numoutlets" : 1,
									"outlettype" : [ "" ],
									"patching_rect" : [ 123.899902, 94.691925, 32.5, 18.0 ],
									"text" : "0"
								}

							}
, 							{
								"box" : 								{
									"fontname" : "Arial",
									"fontsize" : 12.0,
									"id" : "obj-2186",
									"maxclass" : "message",
									"numinlets" : 2,
									"numoutlets" : 1,
									"outlettype" : [ "" ],
									"patching_rect" : [ 77.949951, 94.691925, 32.5, 18.0 ],
									"text" : "5"
								}

							}
, 							{
								"box" : 								{
									"fontname" : "Arial",
									"fontsize" : 12.0,
									"id" : "obj-2184",
									"maxclass" : "message",
									"numinlets" : 2,
									"numoutlets" : 1,
									"outlettype" : [ "" ],
									"patching_rect" : [ 32.0, 94.691925, 32.5, 18.0 ],
									"text" : "1"
								}

							}
, 							{
								"box" : 								{
									"fontname" : "Arial",
									"fontsize" : 12.0,
									"id" : "obj-2178",
									"maxclass" : "newobj",
									"numinlets" : 5,
									"numoutlets" : 5,
									"outlettype" : [ "bang", "bang", "bang", "bang", "" ],
									"patching_rect" : [ 32.0, 61.199921, 202.799988, 20.0 ],
									"text" : "sel 1 2 3 4"
								}

							}
, 							{
								"box" : 								{
									"color" : [ 0.501961, 1.0, 0.0, 1.0 ],
									"fontname" : "Arial",
									"fontsize" : 12.0,
									"id" : "obj-24",
									"maxclass" : "newobj",
									"numinlets" : 0,
									"numoutlets" : 1,
									"outlettype" : [ "" ],
									"patching_rect" : [ 32.0, 28.0, 77.0, 20.0 ],
									"text" : "r setupmode"
								}

							}
, 							{
								"box" : 								{
									"comment" : "",
									"id" : "obj-2190",
									"maxclass" : "outlet",
									"numinlets" : 1,
									"numoutlets" : 0,
									"patching_rect" : [ 32.0, 141.691925, 25.0, 25.0 ]
								}

							}
 ],
						"lines" : [ 							{
								"patchline" : 								{
									"destination" : [ "obj-2184", 0 ],
									"disabled" : 0,
									"hidden" : 0,
									"source" : [ "obj-2178", 0 ]
								}

							}
, 							{
								"patchline" : 								{
									"destination" : [ "obj-2186", 0 ],
									"disabled" : 0,
									"hidden" : 0,
									"source" : [ "obj-2178", 1 ]
								}

							}
, 							{
								"patchline" : 								{
									"destination" : [ "obj-2188", 0 ],
									"disabled" : 0,
									"hidden" : 0,
									"source" : [ "obj-2178", 2 ]
								}

							}
, 							{
								"patchline" : 								{
									"destination" : [ "obj-2189", 0 ],
									"disabled" : 0,
									"hidden" : 0,
									"source" : [ "obj-2178", 3 ]
								}

							}
, 							{
								"patchline" : 								{
									"destination" : [ "obj-2190", 0 ],
									"disabled" : 0,
									"hidden" : 0,
									"midpoints" : [ 41.5, 126.691925, 41.5, 126.691925 ],
									"source" : [ "obj-2184", 0 ]
								}

							}
, 							{
								"patchline" : 								{
									"destination" : [ "obj-2190", 0 ],
									"disabled" : 0,
									"hidden" : 0,
									"midpoints" : [ 87.449951, 126.691925, 41.5, 126.691925 ],
									"source" : [ "obj-2186", 0 ]
								}

							}
, 							{
								"patchline" : 								{
									"destination" : [ "obj-2190", 0 ],
									"disabled" : 0,
									"hidden" : 0,
									"midpoints" : [ 133.399902, 126.691925, 41.5, 126.691925 ],
									"source" : [ "obj-2188", 0 ]
								}

							}
, 							{
								"patchline" : 								{
									"destination" : [ "obj-2190", 0 ],
									"disabled" : 0,
									"hidden" : 0,
									"midpoints" : [ 179.350098, 126.691925, 41.5, 126.691925 ],
									"source" : [ "obj-2189", 0 ]
								}

							}
, 							{
								"patchline" : 								{
									"destination" : [ "obj-2178", 0 ],
									"disabled" : 0,
									"hidden" : 0,
									"source" : [ "obj-24", 0 ]
								}

							}
 ]
					}
,
					"patching_rect" : [ 996.079468, 117.172272, 50.0, 20.0 ],
					"saved_object_attributes" : 					{
						"default_fontface" : 0,
						"default_fontname" : "Arial",
						"default_fontsize" : 12.0,
						"description" : "",
						"digest" : "",
						"fontface" : 0,
						"fontname" : "Arial",
						"fontsize" : 12.0,
						"globalpatchername" : "",
						"tags" : ""
					}
,
					"text" : "p setup"
				}

			}
, 			{
				"box" : 				{
					"fontname" : "Arial",
					"fontsize" : 12.0,
					"id" : "obj-1972",
					"maxclass" : "newobj",
					"numinlets" : 1,
					"numoutlets" : 2,
					"outlettype" : [ "float", "float" ],
					"patcher" : 					{
						"fileversion" : 1,
						"appversion" : 						{
							"major" : 6,
							"minor" : 1,
							"revision" : 8,
							"architecture" : "x86"
						}
,
						"rect" : [ 25.0, 69.0, 451.0, 261.0 ],
						"bglocked" : 0,
						"openinpresentation" : 0,
						"default_fontsize" : 12.0,
						"default_fontface" : 0,
						"default_fontname" : "Arial",
						"gridonopen" : 0,
						"gridsize" : [ 15.0, 15.0 ],
						"gridsnaponopen" : 0,
						"statusbarvisible" : 2,
						"toolbarvisible" : 1,
						"boxanimatetime" : 200,
						"imprint" : 0,
						"enablehscroll" : 1,
						"enablevscroll" : 1,
						"devicewidth" : 0.0,
						"description" : "",
						"digest" : "",
						"tags" : "",
						"boxes" : [ 							{
								"box" : 								{
									"fontname" : "Arial",
									"fontsize" : 12.0,
									"frgb" : 0.0,
									"id" : "obj-2",
									"linecount" : 2,
									"maxclass" : "comment",
									"numinlets" : 1,
									"numoutlets" : 0,
									"patching_rect" : [ 89.0, 35.0, 200.0, 33.0 ],
									"text" : "change granular synth settings depending on chosen preset"
								}

							}
, 							{
								"box" : 								{
									"fontname" : "Arial",
									"fontsize" : 12.0,
									"id" : "obj-1966",
									"maxclass" : "newobj",
									"numinlets" : 1,
									"numoutlets" : 2,
									"outlettype" : [ "float", "float" ],
									"patching_rect" : [ 337.0, 106.400024, 54.0, 20.0 ],
									"text" : "t 0.9 0.6"
								}

							}
, 							{
								"box" : 								{
									"fontname" : "Arial",
									"fontsize" : 12.0,
									"id" : "obj-1965",
									"maxclass" : "newobj",
									"numinlets" : 1,
									"numoutlets" : 2,
									"outlettype" : [ "float", "float" ],
									"patching_rect" : [ 285.333496, 106.400024, 54.0, 20.0 ],
									"text" : "t 0.9 0.1"
								}

							}
, 							{
								"box" : 								{
									"fontname" : "Arial",
									"fontsize" : 12.0,
									"id" : "obj-1964",
									"maxclass" : "newobj",
									"numinlets" : 1,
									"numoutlets" : 2,
									"outlettype" : [ "float", "float" ],
									"patching_rect" : [ 233.666504, 106.400024, 54.0, 20.0 ],
									"text" : "t 0.5 0.6"
								}

							}
, 							{
								"box" : 								{
									"fontname" : "Arial",
									"fontsize" : 12.0,
									"id" : "obj-1963",
									"maxclass" : "newobj",
									"numinlets" : 1,
									"numoutlets" : 2,
									"outlettype" : [ "float", "float" ],
									"patching_rect" : [ 182.0, 106.400024, 54.0, 20.0 ],
									"text" : "t 0.5 0.6"
								}

							}
, 							{
								"box" : 								{
									"fontname" : "Arial",
									"fontsize" : 12.0,
									"id" : "obj-1962",
									"maxclass" : "newobj",
									"numinlets" : 1,
									"numoutlets" : 2,
									"outlettype" : [ "float", "float" ],
									"patching_rect" : [ 130.333496, 106.400024, 54.0, 20.0 ],
									"text" : "t 0.5 0.1"
								}

							}
, 							{
								"box" : 								{
									"fontname" : "Arial",
									"fontsize" : 12.0,
									"id" : "obj-1961",
									"maxclass" : "newobj",
									"numinlets" : 1,
									"numoutlets" : 2,
									"outlettype" : [ "float", "float" ],
									"patching_rect" : [ 78.666748, 106.400024, 47.0, 20.0 ],
									"text" : "t 0. 0.8"
								}

							}
, 							{
								"box" : 								{
									"fontname" : "Arial",
									"fontsize" : 12.0,
									"id" : "obj-1960",
									"maxclass" : "newobj",
									"numinlets" : 1,
									"numoutlets" : 2,
									"outlettype" : [ "float", "float" ],
									"patching_rect" : [ 27.0, 106.400024, 47.0, 20.0 ],
									"text" : "t 0. 0.1"
								}

							}
, 							{
								"box" : 								{
									"fontname" : "Arial",
									"fontsize" : 12.0,
									"id" : "obj-1956",
									"maxclass" : "newobj",
									"numinlets" : 7,
									"numoutlets" : 7,
									"outlettype" : [ "bang", "bang", "bang", "bang", "bang", "bang", "" ],
									"patching_rect" : [ 27.0, 78.0, 329.000488, 20.0 ],
									"text" : "sel 6 5 4 3 2 1"
								}

							}
, 							{
								"box" : 								{
									"comment" : "",
									"id" : "obj-1969",
									"maxclass" : "inlet",
									"numinlets" : 0,
									"numoutlets" : 1,
									"outlettype" : [ "" ],
									"patching_rect" : [ 27.0, 23.0, 25.0, 25.0 ]
								}

							}
, 							{
								"box" : 								{
									"comment" : "",
									"id" : "obj-1970",
									"maxclass" : "outlet",
									"numinlets" : 1,
									"numoutlets" : 0,
									"patching_rect" : [ 27.0, 174.400024, 25.0, 25.0 ]
								}

							}
, 							{
								"box" : 								{
									"comment" : "",
									"id" : "obj-1971",
									"maxclass" : "outlet",
									"numinlets" : 1,
									"numoutlets" : 0,
									"patching_rect" : [ 372.0, 174.400024, 25.0, 25.0 ]
								}

							}
 ],
						"lines" : [ 							{
								"patchline" : 								{
									"destination" : [ "obj-1960", 0 ],
									"disabled" : 0,
									"hidden" : 0,
									"source" : [ "obj-1956", 0 ]
								}

							}
, 							{
								"patchline" : 								{
									"destination" : [ "obj-1961", 0 ],
									"disabled" : 0,
									"hidden" : 0,
									"source" : [ "obj-1956", 1 ]
								}

							}
, 							{
								"patchline" : 								{
									"destination" : [ "obj-1962", 0 ],
									"disabled" : 0,
									"hidden" : 0,
									"source" : [ "obj-1956", 2 ]
								}

							}
, 							{
								"patchline" : 								{
									"destination" : [ "obj-1963", 0 ],
									"disabled" : 0,
									"hidden" : 0,
									"source" : [ "obj-1956", 3 ]
								}

							}
, 							{
								"patchline" : 								{
									"destination" : [ "obj-1964", 0 ],
									"disabled" : 0,
									"hidden" : 0,
									"source" : [ "obj-1956", 4 ]
								}

							}
, 							{
								"patchline" : 								{
									"destination" : [ "obj-1965", 0 ],
									"disabled" : 0,
									"hidden" : 0,
									"source" : [ "obj-1956", 5 ]
								}

							}
, 							{
								"patchline" : 								{
									"destination" : [ "obj-1966", 0 ],
									"disabled" : 0,
									"hidden" : 0,
									"source" : [ "obj-1956", 6 ]
								}

							}
, 							{
								"patchline" : 								{
									"destination" : [ "obj-1970", 0 ],
									"disabled" : 0,
									"hidden" : 0,
									"source" : [ "obj-1960", 0 ]
								}

							}
, 							{
								"patchline" : 								{
									"destination" : [ "obj-1971", 0 ],
									"disabled" : 0,
									"hidden" : 0,
									"source" : [ "obj-1960", 1 ]
								}

							}
, 							{
								"patchline" : 								{
									"destination" : [ "obj-1970", 0 ],
									"disabled" : 0,
									"hidden" : 0,
									"source" : [ "obj-1961", 0 ]
								}

							}
, 							{
								"patchline" : 								{
									"destination" : [ "obj-1971", 0 ],
									"disabled" : 0,
									"hidden" : 0,
									"source" : [ "obj-1961", 1 ]
								}

							}
, 							{
								"patchline" : 								{
									"destination" : [ "obj-1970", 0 ],
									"disabled" : 0,
									"hidden" : 0,
									"source" : [ "obj-1962", 0 ]
								}

							}
, 							{
								"patchline" : 								{
									"destination" : [ "obj-1971", 0 ],
									"disabled" : 0,
									"hidden" : 0,
									"source" : [ "obj-1962", 1 ]
								}

							}
, 							{
								"patchline" : 								{
									"destination" : [ "obj-1970", 0 ],
									"disabled" : 0,
									"hidden" : 0,
									"source" : [ "obj-1963", 0 ]
								}

							}
, 							{
								"patchline" : 								{
									"destination" : [ "obj-1971", 0 ],
									"disabled" : 0,
									"hidden" : 0,
									"source" : [ "obj-1963", 1 ]
								}

							}
, 							{
								"patchline" : 								{
									"destination" : [ "obj-1970", 0 ],
									"disabled" : 0,
									"hidden" : 0,
									"source" : [ "obj-1964", 0 ]
								}

							}
, 							{
								"patchline" : 								{
									"destination" : [ "obj-1971", 0 ],
									"disabled" : 0,
									"hidden" : 0,
									"source" : [ "obj-1964", 1 ]
								}

							}
, 							{
								"patchline" : 								{
									"destination" : [ "obj-1970", 0 ],
									"disabled" : 0,
									"hidden" : 0,
									"source" : [ "obj-1965", 0 ]
								}

							}
, 							{
								"patchline" : 								{
									"destination" : [ "obj-1971", 0 ],
									"disabled" : 0,
									"hidden" : 0,
									"source" : [ "obj-1965", 1 ]
								}

							}
, 							{
								"patchline" : 								{
									"destination" : [ "obj-1970", 0 ],
									"disabled" : 0,
									"hidden" : 0,
									"source" : [ "obj-1966", 0 ]
								}

							}
, 							{
								"patchline" : 								{
									"destination" : [ "obj-1971", 0 ],
									"disabled" : 0,
									"hidden" : 0,
									"source" : [ "obj-1966", 1 ]
								}

							}
, 							{
								"patchline" : 								{
									"destination" : [ "obj-1956", 0 ],
									"disabled" : 0,
									"hidden" : 0,
									"source" : [ "obj-1969", 0 ]
								}

							}
 ]
					}
,
					"patching_rect" : [ 175.079437, 117.172272, 54.0, 20.0 ],
					"saved_object_attributes" : 					{
						"default_fontface" : 0,
						"default_fontname" : "Arial",
						"default_fontsize" : 12.0,
						"description" : "",
						"digest" : "",
						"fontface" : 0,
						"fontname" : "Arial",
						"fontsize" : 12.0,
						"globalpatchername" : "",
						"tags" : ""
					}
,
					"text" : "p preset"
				}

			}
, 			{
				"box" : 				{
					"fontname" : "Arial",
					"fontsize" : 12.0,
					"id" : "obj-444",
					"maxclass" : "newobj",
					"numinlets" : 1,
					"numoutlets" : 3,
					"outlettype" : [ "signal", "", "int" ],
					"patching_rect" : [ 67.729355, 279.512604, 212.999954, 20.0 ],
					"text" : "combine_core #1"
				}

			}
, 			{
				"box" : 				{
					"bgcolor" : [ 0.0, 0.0, 0.0, 0.2 ],
					"bgoncolor" : [ 0.741176, 0.184314, 0.756863, 1.0 ],
					"bgovercolor" : [ 0.0, 0.0, 0.0, 0.15 ],
					"bgoveroncolor" : [ 0.741176, 0.184314, 0.756863, 1.0 ],
					"border" : 0,
					"bordercolor" : [ 0.0, 0.0, 0.0, 1.0 ],
					"borderoncolor" : [ 0.0, 0.0, 0.0, 1.0 ],
					"fontname" : "Helvetica",
					"fontsize" : 10.0,
					"hint" : "Engage \"Combine\" module 1",
					"id" : "obj-348",
					"maxclass" : "textbutton",
					"mode" : 1,
					"numinlets" : 1,
					"numoutlets" : 3,
					"outlettype" : [ "", "", "int" ],
					"outputmode" : 0,
					"parameter_enable" : 0,
					"patching_rect" : [ 67.729355, 189.078644, 50.589996, 20.210083 ],
					"presentation" : 1,
					"presentation_rect" : [ 99.765381, 13.937714, 50.589996, 20.210083 ],
					"rounded" : 0.0,
					"text" : "combine",
					"textcolor" : [ 1.0, 1.0, 1.0, 1.0 ],
					"texton" : "combine",
					"textovercolor" : [ 1.0, 1.0, 1.0, 1.0 ],
					"textoveroncolor" : [ 1.0, 1.0, 1.0, 1.0 ],
					"varname" : "#1_c-c-combine"
				}

			}
, 			{
				"box" : 				{
					"fontname" : "Arial",
					"fontsize" : 12.0,
					"frgb" : 0.0,
					"hint" : "Select an input type to match against",
					"id" : "obj-1015",
					"maxclass" : "comment",
					"numinlets" : 1,
					"numoutlets" : 0,
					"patching_rect" : [ 1018.079468, 151.672272, 63.0, 20.0 ],
					"presentation" : 1,
					"presentation_rect" : [ 210.864258, 12.405121, 63.0, 20.0 ],
					"text" : "input type",
					"textcolor" : [ 1.0, 1.0, 1.0, 1.0 ]
				}

			}
, 			{
				"box" : 				{
					"fontname" : "Arial",
					"fontsize" : 10.0,
					"frgb" : 0.0,
					"id" : "obj-1427",
					"maxclass" : "comment",
					"numinlets" : 1,
					"numoutlets" : 0,
					"patching_rect" : [ 894.079468, 151.672272, 57.0, 18.0 ],
					"presentation" : 1,
					"presentation_rect" : [ 262.730469, 40.964996, 57.0, 18.0 ],
					"text" : "roughness",
					"textcolor" : [ 1.0, 1.0, 1.0, 1.0 ]
				}

			}
, 			{
				"box" : 				{
					"fontname" : "Arial",
					"fontsize" : 10.0,
					"frgb" : 0.0,
					"id" : "obj-1428",
					"maxclass" : "comment",
					"numinlets" : 1,
					"numoutlets" : 0,
					"patching_rect" : [ 783.079468, 151.672272, 46.0, 18.0 ],
					"presentation" : 1,
					"presentation_rect" : [ 177.258057, 40.964996, 46.0, 18.0 ],
					"text" : "centroid",
					"textcolor" : [ 1.0, 1.0, 1.0, 1.0 ]
				}

			}
, 			{
				"box" : 				{
					"fontname" : "Arial",
					"fontsize" : 10.0,
					"frgb" : 0.0,
					"id" : "obj-1429",
					"maxclass" : "comment",
					"numinlets" : 1,
					"numoutlets" : 0,
					"patching_rect" : [ 681.079468, 151.672272, 32.0, 18.0 ],
					"presentation" : 1,
					"presentation_rect" : [ 104.832031, 40.964996, 32.0, 18.0 ],
					"text" : "pitch",
					"textcolor" : [ 1.0, 1.0, 1.0, 1.0 ]
				}

			}
, 			{
				"box" : 				{
					"fontname" : "Arial",
					"fontsize" : 10.0,
					"frgb" : 0.0,
					"id" : "obj-1430",
					"maxclass" : "comment",
					"numinlets" : 1,
					"numoutlets" : 0,
					"patching_rect" : [ 566.079468, 151.672272, 51.0, 18.0 ],
					"presentation" : 1,
					"presentation_rect" : [ 12.313232, 40.964996, 51.0, 18.0 ],
					"text" : "loudness",
					"textcolor" : [ 1.0, 1.0, 1.0, 1.0 ]
				}

			}
, 			{
				"box" : 				{
					"bgcolor" : [ 0.0, 0.0, 0.0, 0.2 ],
					"bordercolor" : [ 0.501961, 0.501961, 0.501961, 0.0 ],
					"fontname" : "Arial",
					"fontsize" : 12.0,
					"hbgcolor" : [ 0.0, 0.0, 0.0, 0.2 ],
					"hint" : "Controls how much weight to give to Roughness when matching grains",
					"htricolor" : [ 0.733333, 0.184314, 0.756863, 1.0 ],
					"id" : "obj-1431",
					"maxclass" : "flonum",
					"maximum" : 1.0,
					"minimum" : 0.0,
					"numinlets" : 1,
					"numoutlets" : 2,
					"outlettype" : [ "float", "bang" ],
					"parameter_enable" : 0,
					"patching_rect" : [ 872.079468, 189.078644, 49.0, 20.0 ],
					"presentation" : 1,
					"presentation_rect" : [ 313.230469, 39.802338, 40.725529, 20.0 ],
					"textcolor" : [ 1.0, 1.0, 1.0, 1.0 ],
					"varname" : "#1_concat_roughnessweight"
				}

			}
, 			{
				"box" : 				{
					"bgcolor" : [ 0.0, 0.0, 0.0, 0.2 ],
					"bordercolor" : [ 0.501961, 0.501961, 0.501961, 0.0 ],
					"fontname" : "Arial",
					"fontsize" : 12.0,
					"hbgcolor" : [ 0.0, 0.0, 0.0, 0.2 ],
					"hint" : "Controls how much weight to give to Centroid when matching grains",
					"htricolor" : [ 0.733333, 0.184314, 0.756863, 1.0 ],
					"id" : "obj-1438",
					"maxclass" : "flonum",
					"maximum" : 1.0,
					"minimum" : 0.0,
					"numinlets" : 1,
					"numoutlets" : 2,
					"outlettype" : [ "float", "bang" ],
					"parameter_enable" : 0,
					"patching_rect" : [ 761.079468, 189.078644, 49.0, 20.0 ],
					"presentation" : 1,
					"presentation_rect" : [ 218.258057, 39.802338, 40.725529, 20.0 ],
					"textcolor" : [ 1.0, 1.0, 1.0, 1.0 ],
					"varname" : "#1_concat_centroidweight"
				}

			}
, 			{
				"box" : 				{
					"bgcolor" : [ 0.0, 0.0, 0.0, 0.2 ],
					"bordercolor" : [ 0.501961, 0.501961, 0.501961, 0.0 ],
					"fontname" : "Arial",
					"fontsize" : 12.0,
					"hbgcolor" : [ 0.0, 0.0, 0.0, 0.2 ],
					"hint" : "Controls how much weight to give to Pitch when matching grains",
					"htricolor" : [ 0.733333, 0.184314, 0.756863, 1.0 ],
					"id" : "obj-1439",
					"maxclass" : "flonum",
					"maximum" : 1.0,
					"minimum" : 0.0,
					"numinlets" : 1,
					"numoutlets" : 2,
					"outlettype" : [ "float", "bang" ],
					"parameter_enable" : 0,
					"patching_rect" : [ 659.079468, 189.078644, 49.0, 20.0 ],
					"presentation" : 1,
					"presentation_rect" : [ 132.285645, 39.802338, 40.725529, 20.0 ],
					"textcolor" : [ 1.0, 1.0, 1.0, 1.0 ],
					"varname" : "#1_concat_pitchweight"
				}

			}
, 			{
				"box" : 				{
					"bgcolor" : [ 0.0, 0.0, 0.0, 0.2 ],
					"bordercolor" : [ 0.501961, 0.501961, 0.501961, 0.0 ],
					"fontname" : "Arial",
					"fontsize" : 12.0,
					"hbgcolor" : [ 0.0, 0.0, 0.0, 0.2 ],
					"hint" : "Controls how much weight to give to Loudness when matching grains",
					"htricolor" : [ 0.733333, 0.184314, 0.756863, 1.0 ],
					"id" : "obj-1440",
					"maxclass" : "flonum",
					"maximum" : 1.0,
					"minimum" : 0.0,
					"numinlets" : 1,
					"numoutlets" : 2,
					"outlettype" : [ "float", "bang" ],
					"parameter_enable" : 0,
					"patching_rect" : [ 544.079468, 189.078644, 49.0, 20.0 ],
					"presentation" : 1,
					"presentation_rect" : [ 58.313232, 39.802338, 40.725529, 20.0 ],
					"textcolor" : [ 1.0, 1.0, 1.0, 1.0 ],
					"varname" : "#1_concat_loudnessweight"
				}

			}
, 			{
				"box" : 				{
					"align" : 1,
					"arrow" : 0,
					"arrowframe" : 0,
					"bgcolor" : [ 0.0, 0.0, 0.0, 0.2 ],
					"bgcolor2" : [ 0.0, 0.0, 0.0, 1.0 ],
					"fontname" : "Arial",
					"fontsize" : 12.0,
					"framecolor" : [ 0.0, 0.0, 0.0, 0.0 ],
					"hint" : "The type of input audio to match against",
					"hltcolor" : [ 0.741176, 0.184314, 0.756863, 1.0 ],
					"id" : "obj-1442",
					"items" : [ "contactmic", ",", "drums", ",", "guitar", ",", "bass", ",", "synth", ",", "rhodes", ",", "piano", ",", "male", "vox", ",", "female", "vox", ",", "custom" ],
					"maxclass" : "umenu",
					"numinlets" : 1,
					"numoutlets" : 3,
					"outlettype" : [ "int", "", "" ],
					"parameter_enable" : 0,
					"patching_rect" : [ 996.079468, 189.078644, 75.0, 20.0 ],
					"presentation" : 1,
					"presentation_rect" : [ 279.253052, 12.405121, 75.698792, 20.0 ],
					"rounded" : 4,
					"textcolor" : [ 1.0, 1.0, 1.0, 1.0 ],
					"textcolor2" : [ 1.0, 1.0, 1.0, 1.0 ],
					"varname" : "#1_concat_inputtype"
				}

			}
, 			{
				"box" : 				{
					"fontname" : "Arial",
					"fontsize" : 10.0,
					"frgb" : 0.0,
					"id" : "obj-1467",
					"maxclass" : "comment",
					"numinlets" : 1,
					"numoutlets" : 0,
					"patching_rect" : [ 197.079437, 151.672272, 58.0, 18.0 ],
					"presentation" : 1,
					"presentation_rect" : [ 14.944885, 126.206818, 58.0, 18.0 ],
					"text" : "match rate",
					"textcolor" : [ 1.0, 1.0, 1.0, 1.0 ]
				}

			}
, 			{
				"box" : 				{
					"bgcolor" : [ 0.0, 0.0, 0.0, 0.2 ],
					"bordercolor" : [ 0.501961, 0.501961, 0.501961, 0.0 ],
					"fontname" : "Arial",
					"fontsize" : 12.0,
					"hbgcolor" : [ 0.0, 0.0, 0.0, 0.2 ],
					"hint" : "Controls the rate of matching (effectively grain speed)",
					"htricolor" : [ 0.733333, 0.184314, 0.756863, 1.0 ],
					"id" : "obj-1487",
					"maxclass" : "flonum",
					"maximum" : 1.0,
					"minimum" : 0.0,
					"numinlets" : 1,
					"numoutlets" : 2,
					"outlettype" : [ "float", "bang" ],
					"parameter_enable" : 0,
					"patching_rect" : [ 175.079437, 189.078644, 44.0, 20.0 ],
					"presentation" : 1,
					"presentation_rect" : [ 71.670471, 125.906952, 47.725529, 20.0 ],
					"textcolor" : [ 1.0, 1.0, 1.0, 1.0 ],
					"varname" : "#1_concat_matchrate"
				}

			}
, 			{
				"box" : 				{
					"fontname" : "Arial",
					"fontsize" : 10.0,
					"frgb" : 0.0,
					"id" : "obj-1490",
					"maxclass" : "comment",
					"numinlets" : 1,
					"numoutlets" : 0,
					"patching_rect" : [ 434.929321, 151.672272, 68.0, 18.0 ],
					"presentation" : 1,
					"presentation_rect" : [ 240.342773, 126.206818, 68.0, 18.0 ],
					"text" : "random pitch",
					"textcolor" : [ 1.0, 1.0, 1.0, 1.0 ]
				}

			}
, 			{
				"box" : 				{
					"bgcolor" : [ 0.0, 0.0, 0.0, 0.2 ],
					"bordercolor" : [ 0.501961, 0.501961, 0.501961, 0.0 ],
					"fontname" : "Arial",
					"fontsize" : 12.0,
					"hbgcolor" : [ 0.0, 0.0, 0.0, 0.2 ],
					"hint" : "Randomizes grain pitch",
					"htricolor" : [ 0.733333, 0.184314, 0.756863, 1.0 ],
					"id" : "obj-1507",
					"maxclass" : "flonum",
					"maximum" : 1.0,
					"minimum" : 0.0,
					"numinlets" : 1,
					"numoutlets" : 2,
					"outlettype" : [ "float", "bang" ],
					"parameter_enable" : 0,
					"patching_rect" : [ 412.929321, 189.078644, 44.0, 20.0 ],
					"presentation" : 1,
					"presentation_rect" : [ 306.31012, 125.906952, 47.725529, 20.0 ],
					"textcolor" : [ 1.0, 1.0, 1.0, 1.0 ],
					"varname" : "#1_concat_randompitch"
				}

			}
, 			{
				"box" : 				{
					"fontname" : "Arial",
					"fontsize" : 10.0,
					"frgb" : 0.0,
					"id" : "obj-1508",
					"maxclass" : "comment",
					"numinlets" : 1,
					"numoutlets" : 0,
					"patching_rect" : [ 314.362915, 151.672272, 53.0, 18.0 ],
					"presentation" : 1,
					"presentation_rect" : [ 133.437988, 126.206818, 53.0, 18.0 ],
					"text" : "grain size",
					"textcolor" : [ 1.0, 1.0, 1.0, 1.0 ]
				}

			}
, 			{
				"box" : 				{
					"bgcolor" : [ 0.0, 0.0, 0.0, 0.2 ],
					"bordercolor" : [ 0.501961, 0.501961, 0.501961, 0.0 ],
					"fontname" : "Arial",
					"fontsize" : 12.0,
					"hbgcolor" : [ 0.0, 0.0, 0.0, 0.2 ],
					"hint" : "Controls the size of each grain",
					"htricolor" : [ 0.733333, 0.184314, 0.756863, 1.0 ],
					"id" : "obj-1509",
					"maxclass" : "flonum",
					"maximum" : 1.0,
					"minimum" : 0.0,
					"numinlets" : 1,
					"numoutlets" : 2,
					"outlettype" : [ "float", "bang" ],
					"parameter_enable" : 0,
					"patching_rect" : [ 293.029419, 189.078644, 44.0, 20.0 ],
					"presentation" : 1,
					"presentation_rect" : [ 184.437988, 125.906952, 47.725529, 20.0 ],
					"textcolor" : [ 1.0, 1.0, 1.0, 1.0 ],
					"varname" : "#1_concat_grainsize"
				}

			}
, 			{
				"box" : 				{
					"fontface" : 1,
					"fontname" : "Arial",
					"fontsize" : 36.0,
					"frgb" : 0.0,
					"id" : "obj-837",
					"maxclass" : "comment",
					"numinlets" : 1,
					"numoutlets" : 0,
					"patching_rect" : [ 234.529419, 51.838593, 223.0, 47.0 ],
					"text" : "c-c-combine"
				}

			}
, 			{
				"box" : 				{
					"fontname" : "Helvetica Neue Light",
					"fontsize" : 20.0,
					"frgb" : 0.0,
					"id" : "obj-1443",
					"maxclass" : "comment",
					"numinlets" : 1,
					"numoutlets" : 0,
					"patching_rect" : [ 70.524353, 60.338593, 85.0, 30.0 ],
					"presentation" : 1,
					"presentation_rect" : [ 7.78717, 8.608398, 85.0, 30.0 ],
					"text" : "combine",
					"textcolor" : [ 1.0, 1.0, 1.0, 1.0 ]
				}

			}
, 			{
				"box" : 				{
					"angle" : -90.0,
					"background" : 1,
					"bgcolor" : [ 0.141176, 0.14902, 0.172549, 0.501961 ],
					"border" : 1,
					"grad1" : [ 0.141176, 0.14902, 0.172549, 1.0 ],
					"grad2" : [ 0.176471, 0.188235, 0.219608, 1.0 ],
					"id" : "obj-814",
					"maxclass" : "panel",
					"numinlets" : 1,
					"numoutlets" : 0,
					"patching_rect" : [ 70.524353, 60.338593, 85.0, 30.0 ],
					"presentation" : 1,
					"presentation_rect" : [ 4.960754, 6.332275, 357.389404, 147.708954 ],
					"rounded" : 4
				}

			}
, 			{
				"box" : 				{
					"angle" : -90.0,
					"background" : 1,
					"bgcolor" : [ 0.329412, 0.34902, 0.4, 1.0 ],
					"border" : 1,
					"grad1" : [ 0.329412, 0.34902, 0.4, 0.396078 ],
					"grad2" : [ 0.176471, 0.188235, 0.219608, 0.403922 ],
					"id" : "obj-836",
					"maxclass" : "panel",
					"mode" : 1,
					"numinlets" : 1,
					"numoutlets" : 0,
					"patching_rect" : [ 70.524353, 60.338593, 85.0, 30.0 ],
					"presentation" : 1,
					"presentation_rect" : [ 0.23468, 0.332275, 366.844482, 158.295227 ],
					"rounded" : 0
				}

			}
 ],
		"lines" : [ 			{
				"patchline" : 				{
					"color" : [ 0.0, 0.0, 0.0, 1.0 ],
					"destination" : [ "obj-444", 0 ],
					"disabled" : 0,
					"hidden" : 0,
					"midpoints" : [ 770.579468, 261.092438, 77.229355, 261.092438 ],
					"source" : [ "obj-10", 0 ]
				}

			}
, 			{
				"patchline" : 				{
					"color" : [ 0.0, 0.0, 0.0, 1.0 ],
					"destination" : [ "obj-444", 0 ],
					"disabled" : 0,
					"hidden" : 0,
					"midpoints" : [ 881.579468, 261.092438, 77.229355, 261.092438 ],
					"source" : [ "obj-11", 0 ]
				}

			}
, 			{
				"patchline" : 				{
					"color" : [ 0.0, 0.0, 0.0, 1.0 ],
					"destination" : [ "obj-444", 0 ],
					"disabled" : 0,
					"hidden" : 0,
					"midpoints" : [ 1005.579468, 261.092438, 77.229355, 261.092438 ],
					"source" : [ "obj-12", 0 ]
				}

			}
, 			{
				"patchline" : 				{
					"color" : [ 0.0, 0.0, 0.0, 1.0 ],
					"destination" : [ "obj-444", 0 ],
					"disabled" : 0,
					"hidden" : 0,
					"midpoints" : [ 1121.579468, 261.092438, 77.229355, 261.092438 ],
					"source" : [ "obj-13", 0 ]
				}

			}
, 			{
				"patchline" : 				{
					"destination" : [ "obj-3", 0 ],
					"disabled" : 0,
					"hidden" : 0,
					"source" : [ "obj-14", 0 ]
				}

			}
, 			{
				"patchline" : 				{
					"color" : [ 0.0, 0.0, 0.0, 1.0 ],
					"destination" : [ "obj-11", 0 ],
					"disabled" : 0,
					"hidden" : 0,
					"source" : [ "obj-1431", 0 ]
				}

			}
, 			{
				"patchline" : 				{
					"color" : [ 0.0, 0.0, 0.0, 1.0 ],
					"destination" : [ "obj-10", 0 ],
					"disabled" : 0,
					"hidden" : 0,
					"source" : [ "obj-1438", 0 ]
				}

			}
, 			{
				"patchline" : 				{
					"color" : [ 0.0, 0.0, 0.0, 1.0 ],
					"destination" : [ "obj-9", 0 ],
					"disabled" : 0,
					"hidden" : 0,
					"source" : [ "obj-1439", 0 ]
				}

			}
, 			{
				"patchline" : 				{
					"color" : [ 0.0, 0.0, 0.0, 1.0 ],
					"destination" : [ "obj-8", 0 ],
					"disabled" : 0,
					"hidden" : 0,
					"source" : [ "obj-1440", 0 ]
				}

			}
, 			{
				"patchline" : 				{
					"color" : [ 0.0, 0.0, 0.0, 1.0 ],
					"destination" : [ "obj-12", 0 ],
					"disabled" : 0,
					"hidden" : 0,
					"source" : [ "obj-1442", 0 ]
				}

			}
, 			{
				"patchline" : 				{
					"color" : [ 0.0, 0.0, 0.0, 1.0 ],
					"destination" : [ "obj-5", 0 ],
					"disabled" : 0,
					"hidden" : 0,
					"source" : [ "obj-1487", 0 ]
				}

			}
, 			{
				"patchline" : 				{
					"destination" : [ "obj-13", 0 ],
					"disabled" : 0,
					"hidden" : 0,
					"source" : [ "obj-15", 0 ]
				}

			}
, 			{
				"patchline" : 				{
					"color" : [ 0.0, 0.0, 0.0, 1.0 ],
					"destination" : [ "obj-6", 0 ],
					"disabled" : 0,
					"hidden" : 0,
					"source" : [ "obj-1507", 0 ]
				}

			}
, 			{
				"patchline" : 				{
					"color" : [ 0.0, 0.0, 0.0, 1.0 ],
					"destination" : [ "obj-7", 0 ],
					"disabled" : 0,
					"hidden" : 0,
					"source" : [ "obj-1509", 0 ]
				}

			}
, 			{
				"patchline" : 				{
					"color" : [ 0.501961, 1.0, 0.0, 1.0 ],
					"destination" : [ "obj-1442", 0 ],
					"disabled" : 0,
					"hidden" : 0,
					"midpoints" : [ 77.024353, 175.875458, 1005.579468, 175.875458 ],
					"source" : [ "obj-16", 0 ]
				}

			}
, 			{
				"patchline" : 				{
					"color" : [ 0.501961, 1.0, 0.0, 1.0 ],
					"destination" : [ "obj-1507", 0 ],
					"disabled" : 0,
					"hidden" : 0,
					"midpoints" : [ 77.024353, 175.875458, 422.429321, 175.875458 ],
					"source" : [ "obj-16", 0 ]
				}

			}
, 			{
				"patchline" : 				{
					"color" : [ 0.501961, 1.0, 0.0, 1.0 ],
					"destination" : [ "obj-348", 0 ],
					"disabled" : 0,
					"hidden" : 0,
					"source" : [ "obj-16", 0 ]
				}

			}
, 			{
				"patchline" : 				{
					"color" : [ 0.501961, 1.0, 0.0, 1.0 ],
					"destination" : [ "obj-1873", 0 ],
					"disabled" : 0,
					"hidden" : 0,
					"midpoints" : [ 114.824402, 176.962158, 171.434448, 176.962158, 171.434448, 109.115051, 553.579468, 109.115051 ],
					"source" : [ "obj-1653", 0 ]
				}

			}
, 			{
				"patchline" : 				{
					"color" : [ 0.501961, 1.0, 0.0, 1.0 ],
					"destination" : [ "obj-16", 0 ],
					"disabled" : 0,
					"hidden" : 0,
					"source" : [ "obj-17", 0 ]
				}

			}
, 			{
				"patchline" : 				{
					"color" : [ 0.501961, 1.0, 0.0, 1.0 ],
					"destination" : [ "obj-1653", 0 ],
					"disabled" : 0,
					"hidden" : 0,
					"midpoints" : [ 77.024353, 143.922272, 114.824402, 143.922272 ],
					"source" : [ "obj-17", 0 ]
				}

			}
, 			{
				"patchline" : 				{
					"destination" : [ "obj-1431", 0 ],
					"disabled" : 0,
					"hidden" : 0,
					"source" : [ "obj-1873", 3 ]
				}

			}
, 			{
				"patchline" : 				{
					"destination" : [ "obj-1438", 0 ],
					"disabled" : 0,
					"hidden" : 0,
					"source" : [ "obj-1873", 2 ]
				}

			}
, 			{
				"patchline" : 				{
					"destination" : [ "obj-1439", 0 ],
					"disabled" : 0,
					"hidden" : 0,
					"source" : [ "obj-1873", 1 ]
				}

			}
, 			{
				"patchline" : 				{
					"destination" : [ "obj-1440", 0 ],
					"disabled" : 0,
					"hidden" : 0,
					"source" : [ "obj-1873", 0 ]
				}

			}
, 			{
				"patchline" : 				{
					"destination" : [ "obj-1487", 0 ],
					"disabled" : 0,
					"hidden" : 0,
					"source" : [ "obj-1972", 0 ]
				}

			}
, 			{
				"patchline" : 				{
					"destination" : [ "obj-1509", 0 ],
					"disabled" : 0,
					"hidden" : 0,
					"source" : [ "obj-1972", 1 ]
				}

			}
, 			{
				"patchline" : 				{
					"color" : [ 0.0, 0.0, 0.0, 1.0 ],
					"destination" : [ "obj-444", 0 ],
					"disabled" : 0,
					"hidden" : 0,
					"midpoints" : [ 77.229355, 261.092438, 77.229355, 261.092438 ],
					"source" : [ "obj-2", 0 ]
				}

			}
, 			{
				"patchline" : 				{
					"destination" : [ "obj-1442", 0 ],
					"disabled" : 0,
					"hidden" : 0,
					"source" : [ "obj-2191", 0 ]
				}

			}
, 			{
				"patchline" : 				{
					"destination" : [ "obj-1972", 0 ],
					"disabled" : 0,
					"hidden" : 0,
					"source" : [ "obj-22", 0 ]
				}

			}
, 			{
				"patchline" : 				{
					"destination" : [ "obj-348", 0 ],
					"disabled" : 0,
					"hidden" : 0,
					"source" : [ "obj-23", 0 ]
				}

			}
, 			{
				"patchline" : 				{
					"destination" : [ "obj-1873", 1 ],
					"disabled" : 0,
					"hidden" : 0,
					"source" : [ "obj-24", 0 ]
				}

			}
, 			{
				"patchline" : 				{
					"destination" : [ "obj-52", 0 ],
					"disabled" : 0,
					"hidden" : 0,
					"source" : [ "obj-25", 0 ]
				}

			}
, 			{
				"patchline" : 				{
					"color" : [ 0.0, 0.0, 0.0, 1.0 ],
					"destination" : [ "obj-2", 0 ],
					"disabled" : 0,
					"hidden" : 0,
					"source" : [ "obj-348", 0 ]
				}

			}
, 			{
				"patchline" : 				{
					"color" : [ 1.0, 1.0, 0.0, 1.0 ],
					"destination" : [ "obj-30", 0 ],
					"disabled" : 0,
					"hidden" : 0,
					"source" : [ "obj-348", 0 ]
				}

			}
, 			{
				"patchline" : 				{
					"destination" : [ "obj-41", 0 ],
					"disabled" : 0,
					"hidden" : 0,
					"source" : [ "obj-43", 0 ]
				}

			}
, 			{
				"patchline" : 				{
					"destination" : [ "obj-1", 0 ],
					"disabled" : 0,
					"hidden" : 0,
					"source" : [ "obj-444", 0 ]
				}

			}
, 			{
				"patchline" : 				{
					"destination" : [ "obj-34", 0 ],
					"disabled" : 0,
					"hidden" : 0,
					"source" : [ "obj-444", 2 ]
				}

			}
, 			{
				"patchline" : 				{
					"destination" : [ "obj-4", 0 ],
					"disabled" : 0,
					"hidden" : 0,
					"source" : [ "obj-444", 1 ]
				}

			}
, 			{
				"patchline" : 				{
					"color" : [ 0.0, 0.0, 0.0, 1.0 ],
					"destination" : [ "obj-444", 0 ],
					"disabled" : 0,
					"hidden" : 0,
					"midpoints" : [ 184.579437, 261.092438, 77.229355, 261.092438 ],
					"source" : [ "obj-5", 0 ]
				}

			}
, 			{
				"patchline" : 				{
					"color" : [ 0.0, 0.0, 0.0, 1.0 ],
					"destination" : [ "obj-444", 0 ],
					"disabled" : 0,
					"hidden" : 0,
					"midpoints" : [ 1253.815063, 261.092438, 77.229355, 261.092438 ],
					"source" : [ "obj-52", 0 ]
				}

			}
, 			{
				"patchline" : 				{
					"color" : [ 0.0, 0.0, 0.0, 1.0 ],
					"destination" : [ "obj-444", 0 ],
					"disabled" : 0,
					"hidden" : 0,
					"midpoints" : [ 422.429321, 261.092438, 77.229355, 261.092438 ],
					"source" : [ "obj-6", 0 ]
				}

			}
, 			{
				"patchline" : 				{
					"color" : [ 0.0, 0.0, 0.0, 1.0 ],
					"destination" : [ "obj-444", 0 ],
					"disabled" : 0,
					"hidden" : 0,
					"midpoints" : [ 302.529419, 261.092438, 77.229355, 261.092438 ],
					"source" : [ "obj-7", 0 ]
				}

			}
, 			{
				"patchline" : 				{
					"color" : [ 0.0, 0.0, 0.0, 1.0 ],
					"destination" : [ "obj-444", 0 ],
					"disabled" : 0,
					"hidden" : 0,
					"midpoints" : [ 553.579468, 261.092438, 77.229355, 261.092438 ],
					"source" : [ "obj-8", 0 ]
				}

			}
, 			{
				"patchline" : 				{
					"color" : [ 0.0, 0.0, 0.0, 1.0 ],
					"destination" : [ "obj-444", 0 ],
					"disabled" : 0,
					"hidden" : 0,
					"midpoints" : [ 668.579468, 261.092438, 77.229355, 261.092438 ],
					"source" : [ "obj-9", 0 ]
				}

			}
 ],
		"dependency_cache" : [ 			{
				"name" : "combine_core.maxpat",
				"bootpath" : "/Users/Rodrigo/Dropbox/Patches/The Party Van",
				"patcherrelativepath" : ".",
				"type" : "JSON",
				"implicit" : 1
			}
, 			{
				"name" : "concat~.maxpat",
				"bootpath" : "/Users/Rodrigo/Dropbox/Patches/The Party Van",
				"patcherrelativepath" : ".",
				"type" : "JSON",
				"implicit" : 1
			}
, 			{
				"name" : "minmeanmax.maxpat",
				"bootpath" : "/Users/Rodrigo/Dropbox/Patches/The Party Van",
				"patcherrelativepath" : ".",
				"type" : "JSON",
				"implicit" : 1
			}
, 			{
				"name" : "entrymatcher.mxo",
				"type" : "iLaX"
			}
 ]
	}

}
