{
	"patcher" : 	{
		"fileversion" : 1,
		"appversion" : 		{
			"major" : 6,
			"minor" : 1,
			"revision" : 8,
			"architecture" : "x86"
		}
,
		"rect" : [ 437.0, 174.0, 468.0, 577.0 ],
		"bglocked" : 0,
		"openinpresentation" : 1,
		"default_fontsize" : 12.0,
		"default_fontface" : 0,
		"default_fontname" : "Arial",
		"gridonopen" : 0,
		"gridsize" : [ 15.0, 15.0 ],
		"gridsnaponopen" : 0,
		"statusbarvisible" : 2,
		"toolbarvisible" : 1,
		"boxanimatetime" : 200,
		"imprint" : 0,
		"enablehscroll" : 1,
		"enablevscroll" : 1,
		"devicewidth" : 0.0,
		"description" : "",
		"digest" : "",
		"tags" : "",
		"boxes" : [ 			{
				"box" : 				{
					"fontname" : "Arial",
					"fontsize" : 12.0,
					"id" : "obj-5",
					"maxclass" : "newobj",
					"numinlets" : 1,
					"numoutlets" : 4,
					"outlettype" : [ "", "", "", "" ],
					"patching_rect" : [ 29.0, 32.0, 59.5, 20.0 ],
					"restore" : 					{
						"#1_mod_bang_threshold" : [ 0.0 ],
						"#1_mod_highinput_scaling" : [ 1.0 ],
						"#1_mod_highoutput_scaling" : [ 1.0 ],
						"#1_mod_lfo_speed" : [ 0.0 ],
						"#1_mod_lowinput_scaling" : [ 0.0 ],
						"#1_mod_lowoutput_scaling" : [ 0.0 ],
						"#1_modifiermapping" : [ 38 ],
						"#1_modifiersourceselect" : [ 2 ]
					}
,
					"text" : "autopattr",
					"varname" : "u106002546"
				}

			}
, 			{
				"box" : 				{
					"fontname" : "Arial",
					"fontsize" : 12.0,
					"id" : "obj-52",
					"maxclass" : "newobj",
					"numinlets" : 2,
					"numoutlets" : 0,
					"patcher" : 					{
						"fileversion" : 1,
						"appversion" : 						{
							"major" : 6,
							"minor" : 1,
							"revision" : 8,
							"architecture" : "x86"
						}
,
						"rect" : [ 36.0, 335.0, 694.0, 429.0 ],
						"bglocked" : 0,
						"openinpresentation" : 0,
						"default_fontsize" : 12.0,
						"default_fontface" : 0,
						"default_fontname" : "Arial",
						"gridonopen" : 0,
						"gridsize" : [ 15.0, 15.0 ],
						"gridsnaponopen" : 0,
						"statusbarvisible" : 2,
						"toolbarvisible" : 1,
						"boxanimatetime" : 200,
						"imprint" : 0,
						"enablehscroll" : 1,
						"enablevscroll" : 1,
						"devicewidth" : 0.0,
						"description" : "",
						"digest" : "",
						"tags" : "",
						"boxes" : [ 							{
								"box" : 								{
									"bgcolor" : [ 1.0, 0.0, 0.501961, 1.0 ],
									"color" : [ 0.364706, 0.807843, 1.0, 1.0 ],
									"fontname" : "Arial",
									"fontsize" : 12.0,
									"id" : "obj-52",
									"maxclass" : "newobj",
									"numinlets" : 1,
									"numoutlets" : 0,
									"patching_rect" : [ 185.0, 355.122925, 134.0, 20.0 ],
									"text" : "s 1wtparandomposition",
									"textcolor" : [ 1.0, 1.0, 1.0, 1.0 ]
								}

							}
, 							{
								"box" : 								{
									"color" : [ 0.364706, 0.807843, 1.0, 1.0 ],
									"fontname" : "Arial",
									"fontsize" : 12.0,
									"id" : "obj-2",
									"maxclass" : "newobj",
									"numinlets" : 1,
									"numoutlets" : 0,
									"patching_rect" : [ 549.5, 152.861877, 86.0, 20.0 ],
									"text" : "s 1patternplay"
								}

							}
, 							{
								"box" : 								{
									"color" : [ 0.364706, 0.807843, 1.0, 1.0 ],
									"fontname" : "Arial",
									"fontsize" : 12.0,
									"id" : "obj-4",
									"maxclass" : "newobj",
									"numinlets" : 1,
									"numoutlets" : 0,
									"patching_rect" : [ 347.0, 152.861877, 95.0, 20.0 ],
									"text" : "s 1grainposition"
								}

							}
, 							{
								"box" : 								{
									"color" : [ 0.364706, 0.807843, 1.0, 1.0 ],
									"fontname" : "Arial",
									"fontsize" : 12.0,
									"id" : "obj-3",
									"maxclass" : "newobj",
									"numinlets" : 1,
									"numoutlets" : 0,
									"patching_rect" : [ 374.0, 202.339905, 86.0, 20.0 ],
									"text" : "s 1grainspeed"
								}

							}
, 							{
								"box" : 								{
									"color" : [ 0.364706, 0.807843, 1.0, 1.0 ],
									"fontname" : "Arial",
									"fontsize" : 12.0,
									"id" : "obj-1",
									"maxclass" : "newobj",
									"numinlets" : 1,
									"numoutlets" : 0,
									"patching_rect" : [ 158.0, 301.556763, 72.0, 20.0 ],
									"text" : "s 1wtpaend"
								}

							}
, 							{
								"box" : 								{
									"color" : [ 0.364706, 0.807843, 1.0, 1.0 ],
									"fontname" : "Arial",
									"fontsize" : 12.0,
									"id" : "obj-1260",
									"maxclass" : "newobj",
									"numinlets" : 1,
									"numoutlets" : 0,
									"patching_rect" : [ 455.0, 152.861877, 120.0, 20.0 ],
									"text" : "s 1combineloudness"
								}

							}
, 							{
								"box" : 								{
									"color" : [ 0.364706, 0.807843, 1.0, 1.0 ],
									"fontname" : "Arial",
									"fontsize" : 12.0,
									"id" : "obj-1274",
									"maxclass" : "newobj",
									"numinlets" : 1,
									"numoutlets" : 0,
									"patching_rect" : [ 441.5, 128.122925, 72.0, 20.0 ],
									"text" : "s 1combine"
								}

							}
, 							{
								"box" : 								{
									"color" : [ 0.364706, 0.807843, 1.0, 1.0 ],
									"fontname" : "Arial",
									"fontsize" : 12.0,
									"id" : "obj-1273",
									"maxclass" : "newobj",
									"numinlets" : 1,
									"numoutlets" : 0,
									"patching_rect" : [ 536.0, 128.122925, 98.0, 20.0 ],
									"text" : "s 1patternrecord"
								}

							}
, 							{
								"box" : 								{
									"color" : [ 0.364706, 0.807843, 1.0, 1.0 ],
									"fontname" : "Arial",
									"fontsize" : 12.0,
									"id" : "obj-1181",
									"maxclass" : "newobj",
									"numinlets" : 1,
									"numoutlets" : 0,
									"patching_rect" : [ 468.5, 177.600891, 97.0, 20.0 ],
									"text" : "s 1combinepitch"
								}

							}
, 							{
								"box" : 								{
									"color" : [ 0.364706, 0.807843, 1.0, 1.0 ],
									"fontname" : "Arial",
									"fontsize" : 12.0,
									"id" : "obj-1182",
									"maxclass" : "newobj",
									"numinlets" : 1,
									"numoutlets" : 0,
									"patching_rect" : [ 509.0, 251.81781, 138.0, 20.0 ],
									"text" : "s 1combinerandompitch"
								}

							}
, 							{
								"box" : 								{
									"color" : [ 0.364706, 0.807843, 1.0, 1.0 ],
									"fontname" : "Arial",
									"fontsize" : 12.0,
									"id" : "obj-1183",
									"maxclass" : "newobj",
									"numinlets" : 1,
									"numoutlets" : 0,
									"patching_rect" : [ 495.5, 227.078796, 93.0, 20.0 ],
									"text" : "s 1combinesize"
								}

							}
, 							{
								"box" : 								{
									"color" : [ 0.364706, 0.807843, 1.0, 1.0 ],
									"fontname" : "Arial",
									"fontsize" : 12.0,
									"id" : "obj-1184",
									"maxclass" : "newobj",
									"numinlets" : 1,
									"numoutlets" : 0,
									"patching_rect" : [ 482.0, 202.339844, 93.0, 20.0 ],
									"text" : "s 1combinerate"
								}

							}
, 							{
								"box" : 								{
									"color" : [ 0.364706, 0.807843, 1.0, 1.0 ],
									"fontname" : "Arial",
									"fontsize" : 12.0,
									"id" : "obj-1916",
									"maxclass" : "newobj",
									"numinlets" : 1,
									"numoutlets" : 0,
									"patching_rect" : [ 414.5, 276.556824, 79.0, 20.0 ],
									"text" : "s 1grainpitch"
								}

							}
, 							{
								"box" : 								{
									"color" : [ 0.364706, 0.807843, 1.0, 1.0 ],
									"fontname" : "Arial",
									"fontsize" : 12.0,
									"id" : "obj-1259",
									"maxclass" : "newobj",
									"numinlets" : 1,
									"numoutlets" : 0,
									"patching_rect" : [ 360.5, 177.600891, 87.0, 20.0 ],
									"text" : "s 1grainfreeze"
								}

							}
, 							{
								"box" : 								{
									"color" : [ 0.364706, 0.807843, 1.0, 1.0 ],
									"fontname" : "Arial",
									"fontsize" : 12.0,
									"id" : "obj-1165",
									"maxclass" : "newobj",
									"numinlets" : 1,
									"numoutlets" : 0,
									"patching_rect" : [ 401.0, 251.81781, 93.0, 20.0 ],
									"text" : "s 1grainwindow"
								}

							}
, 							{
								"box" : 								{
									"color" : [ 0.364706, 0.807843, 1.0, 1.0 ],
									"fontname" : "Arial",
									"fontsize" : 12.0,
									"id" : "obj-1170",
									"maxclass" : "newobj",
									"numinlets" : 1,
									"numoutlets" : 0,
									"patching_rect" : [ 387.5, 227.078857, 75.0, 20.0 ],
									"text" : "s 1grainsize"
								}

							}
, 							{
								"box" : 								{
									"color" : [ 0.364706, 0.807843, 1.0, 1.0 ],
									"fontname" : "Arial",
									"fontsize" : 12.0,
									"id" : "obj-1258",
									"maxclass" : "newobj",
									"numinlets" : 1,
									"numoutlets" : 0,
									"patching_rect" : [ 266.0, 227.078857, 91.0, 20.0 ],
									"text" : "s 1slicerandom"
								}

							}
, 							{
								"box" : 								{
									"color" : [ 0.364706, 0.807843, 1.0, 1.0 ],
									"fontname" : "Arial",
									"fontsize" : 12.0,
									"id" : "obj-1271",
									"maxclass" : "newobj",
									"numinlets" : 1,
									"numoutlets" : 0,
									"patching_rect" : [ 306.5, 301.295776, 110.0, 20.0 ],
									"text" : "s 1sliceenvamount"
								}

							}
, 							{
								"box" : 								{
									"color" : [ 0.364706, 0.807843, 1.0, 1.0 ],
									"fontname" : "Arial",
									"fontsize" : 12.0,
									"id" : "obj-1155",
									"maxclass" : "newobj",
									"numinlets" : 1,
									"numoutlets" : 0,
									"patching_rect" : [ 333.5, 128.122925, 53.0, 20.0 ],
									"text" : "s 1grain"
								}

							}
, 							{
								"box" : 								{
									"color" : [ 0.364706, 0.807843, 1.0, 1.0 ],
									"fontname" : "Arial",
									"fontsize" : 12.0,
									"id" : "obj-1156",
									"maxclass" : "newobj",
									"numinlets" : 1,
									"numoutlets" : 0,
									"patching_rect" : [ 293.0, 276.81781, 99.0, 20.0 ],
									"text" : "s 1sliceenvelope"
								}

							}
, 							{
								"box" : 								{
									"color" : [ 0.364706, 0.807843, 1.0, 1.0 ],
									"fontname" : "Arial",
									"fontsize" : 12.0,
									"id" : "obj-1159",
									"maxclass" : "newobj",
									"numinlets" : 1,
									"numoutlets" : 0,
									"patching_rect" : [ 279.5, 251.81781, 91.0, 20.0 ],
									"text" : "s 1slicereverse"
								}

							}
, 							{
								"box" : 								{
									"color" : [ 0.364706, 0.807843, 1.0, 1.0 ],
									"fontname" : "Arial",
									"fontsize" : 12.0,
									"id" : "obj-1813",
									"maxclass" : "newobj",
									"numinlets" : 1,
									"numoutlets" : 0,
									"patching_rect" : [ 225.5, 152.861877, 71.0, 20.0 ],
									"text" : "s 1slicerate"
								}

							}
, 							{
								"box" : 								{
									"color" : [ 0.364706, 0.807843, 1.0, 1.0 ],
									"fontname" : "Arial",
									"fontsize" : 12.0,
									"id" : "obj-248",
									"maxclass" : "newobj",
									"numinlets" : 1,
									"numoutlets" : 0,
									"patching_rect" : [ 239.0, 177.600891, 71.0, 20.0 ],
									"text" : "s 1retrigger"
								}

							}
, 							{
								"box" : 								{
									"color" : [ 0.364706, 0.807843, 1.0, 1.0 ],
									"fontname" : "Arial",
									"fontsize" : 12.0,
									"id" : "obj-1257",
									"maxclass" : "newobj",
									"numinlets" : 1,
									"numoutlets" : 0,
									"patching_rect" : [ 171.5, 328.122925, 67.0, 20.0 ],
									"text" : "s 1wtpalofi"
								}

							}
, 							{
								"box" : 								{
									"color" : [ 0.364706, 0.807843, 1.0, 1.0 ],
									"fontname" : "Arial",
									"fontsize" : 12.0,
									"id" : "obj-1146",
									"maxclass" : "newobj",
									"numinlets" : 1,
									"numoutlets" : 0,
									"patching_rect" : [ 212.0, 128.122925, 51.0, 20.0 ],
									"text" : "s 1slice"
								}

							}
, 							{
								"box" : 								{
									"color" : [ 0.364706, 0.807843, 1.0, 1.0 ],
									"fontname" : "Arial",
									"fontsize" : 12.0,
									"id" : "obj-309",
									"maxclass" : "newobj",
									"numinlets" : 1,
									"numoutlets" : 0,
									"patching_rect" : [ 77.0, 152.861938, 70.0, 20.0 ],
									"text" : "s 1overdub"
								}

							}
, 							{
								"box" : 								{
									"color" : [ 0.364706, 0.807843, 1.0, 1.0 ],
									"fontname" : "Arial",
									"fontsize" : 12.0,
									"id" : "obj-1521",
									"maxclass" : "newobj",
									"numinlets" : 1,
									"numoutlets" : 0,
									"patching_rect" : [ 63.5, 128.122925, 86.0, 20.0 ],
									"text" : "s 1wtparecord"
								}

							}
, 							{
								"box" : 								{
									"color" : [ 0.364706, 0.807843, 1.0, 1.0 ],
									"fontname" : "Arial",
									"fontsize" : 12.0,
									"id" : "obj-1270",
									"maxclass" : "newobj",
									"numinlets" : 1,
									"numoutlets" : 0,
									"patching_rect" : [ 144.5, 276.556763, 75.0, 20.0 ],
									"text" : "s 1wtpastart"
								}

							}
, 							{
								"box" : 								{
									"color" : [ 0.364706, 0.807843, 1.0, 1.0 ],
									"fontname" : "Arial",
									"fontsize" : 12.0,
									"id" : "obj-1269",
									"maxclass" : "newobj",
									"numinlets" : 1,
									"numoutlets" : 0,
									"patching_rect" : [ 131.0, 251.81781, 77.0, 20.0 ],
									"text" : "s 1wtpapitch"
								}

							}
, 							{
								"box" : 								{
									"color" : [ 0.364706, 0.807843, 1.0, 1.0 ],
									"fontname" : "Arial",
									"fontsize" : 12.0,
									"id" : "obj-1138",
									"maxclass" : "newobj",
									"numinlets" : 1,
									"numoutlets" : 0,
									"patching_rect" : [ 117.5, 227.078857, 92.0, 20.0 ],
									"text" : "s 1wtpareverse"
								}

							}
, 							{
								"box" : 								{
									"color" : [ 0.364706, 0.807843, 1.0, 1.0 ],
									"fontname" : "Arial",
									"fontsize" : 12.0,
									"id" : "obj-1129",
									"maxclass" : "newobj",
									"numinlets" : 1,
									"numoutlets" : 0,
									"patching_rect" : [ 90.5, 177.600891, 74.0, 20.0 ],
									"text" : "s 1wtpaplay"
								}

							}
, 							{
								"box" : 								{
									"color" : [ 0.364706, 0.807843, 1.0, 1.0 ],
									"fontname" : "Arial",
									"fontsize" : 12.0,
									"id" : "obj-1123",
									"maxclass" : "newobj",
									"numinlets" : 1,
									"numoutlets" : 0,
									"patching_rect" : [ 104.0, 202.339844, 71.0, 20.0 ],
									"text" : "s 1wtpahalf"
								}

							}
, 							{
								"box" : 								{
									"fontname" : "Arial",
									"fontsize" : 12.0,
									"id" : "obj-7",
									"maxclass" : "newobj",
									"numinlets" : 2,
									"numoutlets" : 38,
									"outlettype" : [ "", "", "", "", "", "", "", "", "", "", "", "", "", "", "", "", "", "", "", "", "", "", "", "", "", "", "", "", "", "", "", "", "", "", "", "", "", "" ],
									"patching_rect" : [ 50.0, 100.0, 518.5, 20.0 ],
									"text" : "gate 38"
								}

							}
, 							{
								"box" : 								{
									"comment" : "",
									"id" : "obj-50",
									"maxclass" : "inlet",
									"numinlets" : 0,
									"numoutlets" : 1,
									"outlettype" : [ "int" ],
									"patching_rect" : [ 50.0, 40.0, 25.0, 25.0 ]
								}

							}
, 							{
								"box" : 								{
									"comment" : "",
									"id" : "obj-51",
									"maxclass" : "inlet",
									"numinlets" : 0,
									"numoutlets" : 1,
									"outlettype" : [ "" ],
									"patching_rect" : [ 549.5, 40.0, 25.0, 25.0 ]
								}

							}
 ],
						"lines" : [ 							{
								"patchline" : 								{
									"destination" : [ "obj-7", 0 ],
									"disabled" : 0,
									"hidden" : 0,
									"source" : [ "obj-50", 0 ]
								}

							}
, 							{
								"patchline" : 								{
									"destination" : [ "obj-7", 1 ],
									"disabled" : 0,
									"hidden" : 0,
									"source" : [ "obj-51", 0 ]
								}

							}
, 							{
								"patchline" : 								{
									"destination" : [ "obj-1", 0 ],
									"disabled" : 0,
									"hidden" : 0,
									"source" : [ "obj-7", 8 ]
								}

							}
, 							{
								"patchline" : 								{
									"destination" : [ "obj-1123", 0 ],
									"disabled" : 0,
									"hidden" : 0,
									"source" : [ "obj-7", 4 ]
								}

							}
, 							{
								"patchline" : 								{
									"destination" : [ "obj-1129", 0 ],
									"disabled" : 0,
									"hidden" : 0,
									"source" : [ "obj-7", 3 ]
								}

							}
, 							{
								"patchline" : 								{
									"destination" : [ "obj-1138", 0 ],
									"disabled" : 0,
									"hidden" : 0,
									"source" : [ "obj-7", 5 ]
								}

							}
, 							{
								"patchline" : 								{
									"destination" : [ "obj-1146", 0 ],
									"disabled" : 0,
									"hidden" : 0,
									"source" : [ "obj-7", 12 ]
								}

							}
, 							{
								"patchline" : 								{
									"destination" : [ "obj-1155", 0 ],
									"disabled" : 0,
									"hidden" : 0,
									"source" : [ "obj-7", 21 ]
								}

							}
, 							{
								"patchline" : 								{
									"destination" : [ "obj-1156", 0 ],
									"disabled" : 0,
									"hidden" : 0,
									"source" : [ "obj-7", 18 ]
								}

							}
, 							{
								"patchline" : 								{
									"destination" : [ "obj-1159", 0 ],
									"disabled" : 0,
									"hidden" : 0,
									"source" : [ "obj-7", 17 ]
								}

							}
, 							{
								"patchline" : 								{
									"destination" : [ "obj-1165", 0 ],
									"disabled" : 0,
									"hidden" : 0,
									"source" : [ "obj-7", 26 ]
								}

							}
, 							{
								"patchline" : 								{
									"destination" : [ "obj-1170", 0 ],
									"disabled" : 0,
									"hidden" : 0,
									"source" : [ "obj-7", 25 ]
								}

							}
, 							{
								"patchline" : 								{
									"destination" : [ "obj-1181", 0 ],
									"disabled" : 0,
									"hidden" : 0,
									"source" : [ "obj-7", 31 ]
								}

							}
, 							{
								"patchline" : 								{
									"destination" : [ "obj-1182", 0 ],
									"disabled" : 0,
									"hidden" : 0,
									"source" : [ "obj-7", 34 ]
								}

							}
, 							{
								"patchline" : 								{
									"destination" : [ "obj-1183", 0 ],
									"disabled" : 0,
									"hidden" : 0,
									"source" : [ "obj-7", 33 ]
								}

							}
, 							{
								"patchline" : 								{
									"destination" : [ "obj-1184", 0 ],
									"disabled" : 0,
									"hidden" : 0,
									"source" : [ "obj-7", 32 ]
								}

							}
, 							{
								"patchline" : 								{
									"destination" : [ "obj-1257", 0 ],
									"disabled" : 0,
									"hidden" : 0,
									"source" : [ "obj-7", 9 ]
								}

							}
, 							{
								"patchline" : 								{
									"destination" : [ "obj-1258", 0 ],
									"disabled" : 0,
									"hidden" : 0,
									"source" : [ "obj-7", 16 ]
								}

							}
, 							{
								"patchline" : 								{
									"destination" : [ "obj-1259", 0 ],
									"disabled" : 0,
									"hidden" : 0,
									"source" : [ "obj-7", 23 ]
								}

							}
, 							{
								"patchline" : 								{
									"destination" : [ "obj-1260", 0 ],
									"disabled" : 0,
									"hidden" : 0,
									"source" : [ "obj-7", 30 ]
								}

							}
, 							{
								"patchline" : 								{
									"destination" : [ "obj-1269", 0 ],
									"disabled" : 0,
									"hidden" : 0,
									"source" : [ "obj-7", 6 ]
								}

							}
, 							{
								"patchline" : 								{
									"destination" : [ "obj-1270", 0 ],
									"disabled" : 0,
									"hidden" : 0,
									"source" : [ "obj-7", 7 ]
								}

							}
, 							{
								"patchline" : 								{
									"destination" : [ "obj-1271", 0 ],
									"disabled" : 0,
									"hidden" : 0,
									"source" : [ "obj-7", 19 ]
								}

							}
, 							{
								"patchline" : 								{
									"destination" : [ "obj-1273", 0 ],
									"disabled" : 0,
									"hidden" : 0,
									"source" : [ "obj-7", 36 ]
								}

							}
, 							{
								"patchline" : 								{
									"destination" : [ "obj-1274", 0 ],
									"disabled" : 0,
									"hidden" : 0,
									"source" : [ "obj-7", 29 ]
								}

							}
, 							{
								"patchline" : 								{
									"destination" : [ "obj-1521", 0 ],
									"disabled" : 0,
									"hidden" : 0,
									"source" : [ "obj-7", 1 ]
								}

							}
, 							{
								"patchline" : 								{
									"destination" : [ "obj-1813", 0 ],
									"disabled" : 0,
									"hidden" : 0,
									"source" : [ "obj-7", 13 ]
								}

							}
, 							{
								"patchline" : 								{
									"destination" : [ "obj-1916", 0 ],
									"disabled" : 0,
									"hidden" : 0,
									"source" : [ "obj-7", 27 ]
								}

							}
, 							{
								"patchline" : 								{
									"destination" : [ "obj-2", 0 ],
									"disabled" : 0,
									"hidden" : 0,
									"source" : [ "obj-7", 37 ]
								}

							}
, 							{
								"patchline" : 								{
									"destination" : [ "obj-248", 0 ],
									"disabled" : 0,
									"hidden" : 0,
									"source" : [ "obj-7", 14 ]
								}

							}
, 							{
								"patchline" : 								{
									"destination" : [ "obj-3", 0 ],
									"disabled" : 0,
									"hidden" : 0,
									"source" : [ "obj-7", 24 ]
								}

							}
, 							{
								"patchline" : 								{
									"destination" : [ "obj-309", 0 ],
									"disabled" : 0,
									"hidden" : 0,
									"source" : [ "obj-7", 2 ]
								}

							}
, 							{
								"patchline" : 								{
									"destination" : [ "obj-4", 0 ],
									"disabled" : 0,
									"hidden" : 0,
									"source" : [ "obj-7", 22 ]
								}

							}
, 							{
								"patchline" : 								{
									"destination" : [ "obj-52", 0 ],
									"disabled" : 0,
									"hidden" : 0,
									"source" : [ "obj-7", 10 ]
								}

							}
 ]
					}
,
					"patching_rect" : [ 61.0, 475.0, 53.0, 20.0 ],
					"saved_object_attributes" : 					{
						"default_fontface" : 0,
						"default_fontname" : "Arial",
						"default_fontsize" : 12.0,
						"description" : "",
						"digest" : "",
						"fontface" : 0,
						"fontname" : "Arial",
						"fontsize" : 12.0,
						"globalpatchername" : "",
						"tags" : ""
					}
,
					"text" : "p sends"
				}

			}
, 			{
				"box" : 				{
					"fontname" : "Arial",
					"fontsize" : 12.0,
					"id" : "obj-19",
					"maxclass" : "newobj",
					"numinlets" : 1,
					"numoutlets" : 1,
					"outlettype" : [ "int" ],
					"patcher" : 					{
						"fileversion" : 1,
						"appversion" : 						{
							"major" : 6,
							"minor" : 1,
							"revision" : 8,
							"architecture" : "x86"
						}
,
						"rect" : [ 155.0, 651.0, 346.0, 258.0 ],
						"bglocked" : 0,
						"openinpresentation" : 0,
						"default_fontsize" : 12.0,
						"default_fontface" : 0,
						"default_fontname" : "Arial",
						"gridonopen" : 0,
						"gridsize" : [ 15.0, 15.0 ],
						"gridsnaponopen" : 0,
						"statusbarvisible" : 2,
						"toolbarvisible" : 1,
						"boxanimatetime" : 200,
						"imprint" : 0,
						"enablehscroll" : 1,
						"enablevscroll" : 1,
						"devicewidth" : 0.0,
						"description" : "",
						"digest" : "",
						"tags" : "",
						"boxes" : [ 							{
								"box" : 								{
									"fontname" : "Arial",
									"fontsize" : 12.0,
									"frgb" : 0.0,
									"id" : "obj-2",
									"linecount" : 2,
									"maxclass" : "comment",
									"numinlets" : 1,
									"numoutlets" : 0,
									"patching_rect" : [ 104.0, 25.0, 154.0, 33.0 ],
									"text" : "pick wether to send a float or a bang"
								}

							}
, 							{
								"box" : 								{
									"fontname" : "Arial",
									"fontsize" : 12.0,
									"id" : "obj-15",
									"maxclass" : "newobj",
									"numinlets" : 1,
									"numoutlets" : 1,
									"outlettype" : [ "int" ],
									"patching_rect" : [ 285.0, 124.0, 24.0, 20.0 ],
									"text" : "t 1"
								}

							}
, 							{
								"box" : 								{
									"fontname" : "Arial",
									"fontsize" : 12.0,
									"id" : "obj-14",
									"maxclass" : "newobj",
									"numinlets" : 1,
									"numoutlets" : 1,
									"outlettype" : [ "int" ],
									"patching_rect" : [ 28.0, 124.0, 24.0, 20.0 ],
									"text" : "t 2"
								}

							}
, 							{
								"box" : 								{
									"fontname" : "Arial",
									"fontsize" : 12.0,
									"id" : "obj-10",
									"maxclass" : "newobj",
									"numinlets" : 16,
									"numoutlets" : 16,
									"outlettype" : [ "bang", "bang", "bang", "bang", "bang", "bang", "bang", "bang", "bang", "bang", "bang", "bang", "bang", "bang", "bang", "" ],
									"patching_rect" : [ 28.0, 85.0, 276.0, 20.0 ],
									"text" : "sel 2 3 4 5 6 10 13 17 18 19 22 24 30 37 38"
								}

							}
, 							{
								"box" : 								{
									"comment" : "",
									"id" : "obj-16",
									"maxclass" : "inlet",
									"numinlets" : 0,
									"numoutlets" : 1,
									"outlettype" : [ "int" ],
									"patching_rect" : [ 28.0, 25.0, 25.0, 25.0 ]
								}

							}
, 							{
								"box" : 								{
									"comment" : "",
									"id" : "obj-18",
									"maxclass" : "outlet",
									"numinlets" : 1,
									"numoutlets" : 0,
									"patching_rect" : [ 28.0, 178.0, 25.0, 25.0 ]
								}

							}
 ],
						"lines" : [ 							{
								"patchline" : 								{
									"destination" : [ "obj-14", 0 ],
									"disabled" : 0,
									"hidden" : 0,
									"midpoints" : [ 277.366669, 114.0, 37.5, 114.0 ],
									"source" : [ "obj-10", 14 ]
								}

							}
, 							{
								"patchline" : 								{
									"destination" : [ "obj-14", 0 ],
									"disabled" : 0,
									"hidden" : 0,
									"midpoints" : [ 260.233337, 114.0, 37.5, 114.0 ],
									"source" : [ "obj-10", 13 ]
								}

							}
, 							{
								"patchline" : 								{
									"destination" : [ "obj-14", 0 ],
									"disabled" : 0,
									"hidden" : 0,
									"midpoints" : [ 243.100006, 114.0, 37.5, 114.0 ],
									"source" : [ "obj-10", 12 ]
								}

							}
, 							{
								"patchline" : 								{
									"destination" : [ "obj-14", 0 ],
									"disabled" : 0,
									"hidden" : 0,
									"midpoints" : [ 225.96666, 114.0, 37.5, 114.0 ],
									"source" : [ "obj-10", 11 ]
								}

							}
, 							{
								"patchline" : 								{
									"destination" : [ "obj-14", 0 ],
									"disabled" : 0,
									"hidden" : 0,
									"midpoints" : [ 208.833328, 114.0, 37.5, 114.0 ],
									"source" : [ "obj-10", 10 ]
								}

							}
, 							{
								"patchline" : 								{
									"destination" : [ "obj-14", 0 ],
									"disabled" : 0,
									"hidden" : 0,
									"midpoints" : [ 191.699997, 114.0, 37.5, 114.0 ],
									"source" : [ "obj-10", 9 ]
								}

							}
, 							{
								"patchline" : 								{
									"destination" : [ "obj-14", 0 ],
									"disabled" : 0,
									"hidden" : 0,
									"midpoints" : [ 174.566666, 114.0, 37.5, 114.0 ],
									"source" : [ "obj-10", 8 ]
								}

							}
, 							{
								"patchline" : 								{
									"destination" : [ "obj-14", 0 ],
									"disabled" : 0,
									"hidden" : 0,
									"midpoints" : [ 157.433334, 114.0, 37.5, 114.0 ],
									"source" : [ "obj-10", 7 ]
								}

							}
, 							{
								"patchline" : 								{
									"destination" : [ "obj-14", 0 ],
									"disabled" : 0,
									"hidden" : 0,
									"midpoints" : [ 140.300003, 114.0, 37.5, 114.0 ],
									"source" : [ "obj-10", 6 ]
								}

							}
, 							{
								"patchline" : 								{
									"destination" : [ "obj-14", 0 ],
									"disabled" : 0,
									"hidden" : 0,
									"midpoints" : [ 123.166664, 114.0, 37.5, 114.0 ],
									"source" : [ "obj-10", 5 ]
								}

							}
, 							{
								"patchline" : 								{
									"destination" : [ "obj-14", 0 ],
									"disabled" : 0,
									"hidden" : 0,
									"midpoints" : [ 106.033333, 114.0, 37.5, 114.0 ],
									"source" : [ "obj-10", 4 ]
								}

							}
, 							{
								"patchline" : 								{
									"destination" : [ "obj-14", 0 ],
									"disabled" : 0,
									"hidden" : 0,
									"midpoints" : [ 88.900002, 114.0, 37.5, 114.0 ],
									"source" : [ "obj-10", 3 ]
								}

							}
, 							{
								"patchline" : 								{
									"destination" : [ "obj-14", 0 ],
									"disabled" : 0,
									"hidden" : 0,
									"midpoints" : [ 71.76667, 114.0, 37.5, 114.0 ],
									"source" : [ "obj-10", 2 ]
								}

							}
, 							{
								"patchline" : 								{
									"destination" : [ "obj-14", 0 ],
									"disabled" : 0,
									"hidden" : 0,
									"midpoints" : [ 54.633335, 114.0, 37.5, 114.0 ],
									"source" : [ "obj-10", 1 ]
								}

							}
, 							{
								"patchline" : 								{
									"destination" : [ "obj-14", 0 ],
									"disabled" : 0,
									"hidden" : 0,
									"midpoints" : [ 37.5, 114.0, 37.5, 114.0 ],
									"source" : [ "obj-10", 0 ]
								}

							}
, 							{
								"patchline" : 								{
									"destination" : [ "obj-15", 0 ],
									"disabled" : 0,
									"hidden" : 0,
									"source" : [ "obj-10", 15 ]
								}

							}
, 							{
								"patchline" : 								{
									"destination" : [ "obj-18", 0 ],
									"disabled" : 0,
									"hidden" : 0,
									"source" : [ "obj-14", 0 ]
								}

							}
, 							{
								"patchline" : 								{
									"destination" : [ "obj-18", 0 ],
									"disabled" : 0,
									"hidden" : 0,
									"midpoints" : [ 294.5, 160.5, 37.5, 160.5 ],
									"source" : [ "obj-15", 0 ]
								}

							}
, 							{
								"patchline" : 								{
									"destination" : [ "obj-10", 0 ],
									"disabled" : 0,
									"hidden" : 0,
									"source" : [ "obj-16", 0 ]
								}

							}
 ]
					}
,
					"patching_rect" : [ 378.0, 349.0, 43.0, 20.0 ],
					"saved_object_attributes" : 					{
						"default_fontface" : 0,
						"default_fontname" : "Arial",
						"default_fontsize" : 12.0,
						"description" : "",
						"digest" : "",
						"fontface" : 0,
						"fontname" : "Arial",
						"fontsize" : 12.0,
						"globalpatchername" : "",
						"tags" : ""
					}
,
					"text" : "p type"
				}

			}
, 			{
				"box" : 				{
					"fontname" : "Arial",
					"fontsize" : 12.0,
					"id" : "obj-4",
					"maxclass" : "newobj",
					"numinlets" : 3,
					"numoutlets" : 1,
					"outlettype" : [ "" ],
					"patching_rect" : [ 44.0, 403.0, 64.0, 20.0 ],
					"text" : "switch 2 1"
				}

			}
, 			{
				"box" : 				{
					"fontname" : "Arial",
					"fontsize" : 12.0,
					"id" : "obj-65",
					"maxclass" : "newobj",
					"numinlets" : 2,
					"numoutlets" : 2,
					"outlettype" : [ "int", "" ],
					"patcher" : 					{
						"fileversion" : 1,
						"appversion" : 						{
							"major" : 6,
							"minor" : 1,
							"revision" : 8,
							"architecture" : "x86"
						}
,
						"rect" : [ 25.0, 69.0, 341.0, 480.0 ],
						"bglocked" : 0,
						"openinpresentation" : 0,
						"default_fontsize" : 12.0,
						"default_fontface" : 0,
						"default_fontname" : "Arial",
						"gridonopen" : 0,
						"gridsize" : [ 15.0, 15.0 ],
						"gridsnaponopen" : 0,
						"statusbarvisible" : 2,
						"toolbarvisible" : 1,
						"boxanimatetime" : 200,
						"imprint" : 0,
						"enablehscroll" : 1,
						"enablevscroll" : 1,
						"devicewidth" : 0.0,
						"description" : "",
						"digest" : "",
						"tags" : "",
						"boxes" : [ 							{
								"box" : 								{
									"fontname" : "Arial",
									"fontsize" : 12.0,
									"id" : "obj-53",
									"maxclass" : "message",
									"numinlets" : 2,
									"numoutlets" : 1,
									"outlettype" : [ "" ],
									"patching_rect" : [ 178.0, 301.0, 64.0, 18.0 ],
									"text" : "mute 0 $1"
								}

							}
, 							{
								"box" : 								{
									"fontname" : "Arial",
									"fontsize" : 12.0,
									"id" : "obj-52",
									"maxclass" : "newobj",
									"numinlets" : 2,
									"numoutlets" : 1,
									"outlettype" : [ "int" ],
									"patching_rect" : [ 178.0, 271.0, 32.5, 20.0 ],
									"text" : "i"
								}

							}
, 							{
								"box" : 								{
									"fontname" : "Arial",
									"fontsize" : 12.0,
									"id" : "obj-51",
									"maxclass" : "newobj",
									"numinlets" : 1,
									"numoutlets" : 2,
									"outlettype" : [ "int", "int" ],
									"patching_rect" : [ 253.0, 215.0, 34.0, 20.0 ],
									"text" : "t 0 1"
								}

							}
, 							{
								"box" : 								{
									"fontname" : "Arial",
									"fontsize" : 12.0,
									"id" : "obj-49",
									"maxclass" : "newobj",
									"numinlets" : 1,
									"numoutlets" : 2,
									"outlettype" : [ "int", "bang" ],
									"patching_rect" : [ 208.0, 213.0, 34.0, 20.0 ],
									"text" : "t 1 b"
								}

							}
, 							{
								"box" : 								{
									"fontname" : "Arial",
									"fontsize" : 12.0,
									"id" : "obj-48",
									"maxclass" : "newobj",
									"numinlets" : 2,
									"numoutlets" : 2,
									"outlettype" : [ "bang", "" ],
									"patching_rect" : [ 221.0, 169.0, 36.0, 20.0 ],
									"text" : "sel 1"
								}

							}
, 							{
								"box" : 								{
									"fontname" : "Arial",
									"fontsize" : 12.0,
									"id" : "obj-45",
									"maxclass" : "newobj",
									"numinlets" : 2,
									"numoutlets" : 1,
									"outlettype" : [ "" ],
									"patching_rect" : [ 77.0, 287.0, 34.0, 20.0 ],
									"text" : "gate"
								}

							}
, 							{
								"box" : 								{
									"fontname" : "Arial",
									"fontsize" : 12.0,
									"id" : "obj-196",
									"maxclass" : "newobj",
									"numinlets" : 1,
									"numoutlets" : 1,
									"outlettype" : [ "int" ],
									"patching_rect" : [ 94.0, 169.0, 24.0, 20.0 ],
									"text" : "t 1"
								}

							}
, 							{
								"box" : 								{
									"fontname" : "Arial",
									"fontsize" : 12.0,
									"id" : "obj-192",
									"maxclass" : "newobj",
									"numinlets" : 1,
									"numoutlets" : 2,
									"outlettype" : [ "int", "int" ],
									"patching_rect" : [ 50.0, 169.0, 32.5, 20.0 ],
									"text" : "t i 0"
								}

							}
, 							{
								"box" : 								{
									"fontname" : "Arial",
									"fontsize" : 12.0,
									"id" : "obj-46",
									"maxclass" : "message",
									"numinlets" : 2,
									"numoutlets" : 1,
									"outlettype" : [ "" ],
									"patching_rect" : [ 94.0, 250.0, 64.0, 18.0 ],
									"text" : "mute 0 $1"
								}

							}
, 							{
								"box" : 								{
									"fontname" : "Arial",
									"fontsize" : 12.0,
									"id" : "obj-15",
									"maxclass" : "newobj",
									"numinlets" : 3,
									"numoutlets" : 2,
									"outlettype" : [ "int", "int" ],
									"patching_rect" : [ 50.0, 136.0, 63.0, 20.0 ],
									"text" : "split 1 6"
								}

							}
, 							{
								"box" : 								{
									"fontname" : "Arial",
									"fontsize" : 12.0,
									"id" : "obj-47",
									"maxclass" : "newobj",
									"numinlets" : 2,
									"numoutlets" : 1,
									"outlettype" : [ "int" ],
									"patching_rect" : [ 50.0, 100.0, 32.5, 20.0 ],
									"text" : "+ 1"
								}

							}
, 							{
								"box" : 								{
									"comment" : "",
									"id" : "obj-61",
									"maxclass" : "inlet",
									"numinlets" : 0,
									"numoutlets" : 1,
									"outlettype" : [ "int" ],
									"patching_rect" : [ 50.0, 40.0, 25.0, 25.0 ]
								}

							}
, 							{
								"box" : 								{
									"comment" : "",
									"id" : "obj-62",
									"maxclass" : "inlet",
									"numinlets" : 0,
									"numoutlets" : 1,
									"outlettype" : [ "int" ],
									"patching_rect" : [ 221.0, 40.0, 25.0, 25.0 ]
								}

							}
, 							{
								"box" : 								{
									"comment" : "",
									"id" : "obj-63",
									"maxclass" : "outlet",
									"numinlets" : 1,
									"numoutlets" : 0,
									"patching_rect" : [ 50.0, 379.0, 25.0, 25.0 ]
								}

							}
, 							{
								"box" : 								{
									"comment" : "",
									"id" : "obj-64",
									"maxclass" : "outlet",
									"numinlets" : 1,
									"numoutlets" : 0,
									"patching_rect" : [ 122.5, 379.0, 25.0, 25.0 ]
								}

							}
 ],
						"lines" : [ 							{
								"patchline" : 								{
									"destination" : [ "obj-192", 0 ],
									"disabled" : 0,
									"hidden" : 0,
									"source" : [ "obj-15", 0 ]
								}

							}
, 							{
								"patchline" : 								{
									"destination" : [ "obj-196", 0 ],
									"disabled" : 0,
									"hidden" : 0,
									"source" : [ "obj-15", 1 ]
								}

							}
, 							{
								"patchline" : 								{
									"destination" : [ "obj-46", 0 ],
									"disabled" : 0,
									"hidden" : 0,
									"source" : [ "obj-192", 1 ]
								}

							}
, 							{
								"patchline" : 								{
									"destination" : [ "obj-52", 1 ],
									"disabled" : 0,
									"hidden" : 0,
									"source" : [ "obj-192", 1 ]
								}

							}
, 							{
								"patchline" : 								{
									"destination" : [ "obj-63", 0 ],
									"disabled" : 0,
									"hidden" : 0,
									"source" : [ "obj-192", 0 ]
								}

							}
, 							{
								"patchline" : 								{
									"destination" : [ "obj-46", 0 ],
									"disabled" : 0,
									"hidden" : 0,
									"source" : [ "obj-196", 0 ]
								}

							}
, 							{
								"patchline" : 								{
									"destination" : [ "obj-52", 1 ],
									"disabled" : 0,
									"hidden" : 0,
									"source" : [ "obj-196", 0 ]
								}

							}
, 							{
								"patchline" : 								{
									"destination" : [ "obj-64", 0 ],
									"disabled" : 0,
									"hidden" : 0,
									"source" : [ "obj-45", 0 ]
								}

							}
, 							{
								"patchline" : 								{
									"destination" : [ "obj-45", 1 ],
									"disabled" : 0,
									"hidden" : 0,
									"source" : [ "obj-46", 0 ]
								}

							}
, 							{
								"patchline" : 								{
									"destination" : [ "obj-15", 0 ],
									"disabled" : 0,
									"hidden" : 0,
									"source" : [ "obj-47", 0 ]
								}

							}
, 							{
								"patchline" : 								{
									"destination" : [ "obj-49", 0 ],
									"disabled" : 0,
									"hidden" : 0,
									"source" : [ "obj-48", 0 ]
								}

							}
, 							{
								"patchline" : 								{
									"destination" : [ "obj-51", 0 ],
									"disabled" : 0,
									"hidden" : 0,
									"source" : [ "obj-48", 1 ]
								}

							}
, 							{
								"patchline" : 								{
									"destination" : [ "obj-45", 0 ],
									"disabled" : 0,
									"hidden" : 0,
									"source" : [ "obj-49", 0 ]
								}

							}
, 							{
								"patchline" : 								{
									"destination" : [ "obj-52", 0 ],
									"disabled" : 0,
									"hidden" : 0,
									"source" : [ "obj-49", 1 ]
								}

							}
, 							{
								"patchline" : 								{
									"destination" : [ "obj-45", 0 ],
									"disabled" : 0,
									"hidden" : 0,
									"source" : [ "obj-51", 0 ]
								}

							}
, 							{
								"patchline" : 								{
									"destination" : [ "obj-53", 0 ],
									"disabled" : 0,
									"hidden" : 0,
									"source" : [ "obj-51", 1 ]
								}

							}
, 							{
								"patchline" : 								{
									"destination" : [ "obj-53", 0 ],
									"disabled" : 0,
									"hidden" : 0,
									"source" : [ "obj-52", 0 ]
								}

							}
, 							{
								"patchline" : 								{
									"destination" : [ "obj-64", 0 ],
									"disabled" : 0,
									"hidden" : 0,
									"source" : [ "obj-53", 0 ]
								}

							}
, 							{
								"patchline" : 								{
									"destination" : [ "obj-47", 0 ],
									"disabled" : 0,
									"hidden" : 0,
									"source" : [ "obj-61", 0 ]
								}

							}
, 							{
								"patchline" : 								{
									"destination" : [ "obj-48", 0 ],
									"disabled" : 0,
									"hidden" : 0,
									"source" : [ "obj-62", 0 ]
								}

							}
 ]
					}
,
					"patching_rect" : [ 146.0, 170.833344, 57.0, 20.0 ],
					"saved_object_attributes" : 					{
						"default_fontface" : 0,
						"default_fontname" : "Arial",
						"default_fontsize" : 12.0,
						"description" : "",
						"digest" : "",
						"fontface" : 0,
						"fontname" : "Arial",
						"fontsize" : 12.0,
						"globalpatchername" : "",
						"tags" : ""
					}
,
					"text" : "p muting"
				}

			}
, 			{
				"box" : 				{
					"fontname" : "Arial",
					"fontsize" : 12.0,
					"id" : "obj-42",
					"maxclass" : "newobj",
					"numinlets" : 2,
					"numoutlets" : 1,
					"outlettype" : [ "" ],
					"patching_rect" : [ 29.0, 433.0, 34.0, 20.0 ],
					"text" : "gate"
				}

			}
, 			{
				"box" : 				{
					"fontname" : "Arial",
					"fontsize" : 12.0,
					"id" : "obj-41",
					"maxclass" : "newobj",
					"numinlets" : 1,
					"numoutlets" : 2,
					"outlettype" : [ "int", "" ],
					"patcher" : 					{
						"fileversion" : 1,
						"appversion" : 						{
							"major" : 6,
							"minor" : 1,
							"revision" : 8,
							"architecture" : "x86"
						}
,
						"rect" : [ 25.0, 69.0, 367.0, 286.0 ],
						"bglocked" : 0,
						"openinpresentation" : 0,
						"default_fontsize" : 12.0,
						"default_fontface" : 0,
						"default_fontname" : "Arial",
						"gridonopen" : 0,
						"gridsize" : [ 15.0, 15.0 ],
						"gridsnaponopen" : 0,
						"statusbarvisible" : 2,
						"toolbarvisible" : 1,
						"boxanimatetime" : 200,
						"imprint" : 0,
						"enablehscroll" : 1,
						"enablevscroll" : 1,
						"devicewidth" : 0.0,
						"description" : "",
						"digest" : "",
						"tags" : "",
						"boxes" : [ 							{
								"box" : 								{
									"fontname" : "Arial",
									"fontsize" : 12.0,
									"id" : "obj-5",
									"maxclass" : "newobj",
									"numinlets" : 2,
									"numoutlets" : 1,
									"outlettype" : [ "int" ],
									"patching_rect" : [ 31.0, 131.554352, 32.5, 20.0 ],
									"text" : "!- 1"
								}

							}
, 							{
								"box" : 								{
									"comment" : "to gate",
									"id" : "obj-3",
									"maxclass" : "outlet",
									"numinlets" : 1,
									"numoutlets" : 0,
									"patching_rect" : [ 31.0, 221.0, 25.0, 25.0 ]
								}

							}
, 							{
								"box" : 								{
									"fontname" : "Arial",
									"fontsize" : 12.0,
									"frgb" : 0.0,
									"id" : "obj-2",
									"linecount" : 2,
									"maxclass" : "comment",
									"numinlets" : 1,
									"numoutlets" : 0,
									"patching_rect" : [ 125.0, 58.0, 156.0, 33.0 ],
									"text" : "when umenu is set to OFF block LFO display window"
								}

							}
, 							{
								"box" : 								{
									"fontname" : "Arial",
									"fontsize" : 12.0,
									"id" : "obj-37",
									"maxclass" : "newobj",
									"numinlets" : 2,
									"numoutlets" : 2,
									"outlettype" : [ "bang", "" ],
									"patching_rect" : [ 88.0, 131.554352, 140.0, 20.0 ],
									"text" : "sel 1"
								}

							}
, 							{
								"box" : 								{
									"fontname" : "Arial",
									"fontsize" : 12.0,
									"id" : "obj-36",
									"maxclass" : "newobj",
									"numinlets" : 2,
									"numoutlets" : 1,
									"outlettype" : [ "int" ],
									"patching_rect" : [ 31.0, 82.0, 35.0, 20.0 ],
									"text" : "== 0"
								}

							}
, 							{
								"box" : 								{
									"fontname" : "Arial",
									"fontsize" : 12.0,
									"id" : "obj-35",
									"maxclass" : "message",
									"numinlets" : 2,
									"numoutlets" : 1,
									"outlettype" : [ "" ],
									"patching_rect" : [ 88.0, 173.108688, 103.0, 18.0 ],
									"text" : "bgcolor 0. 0. 0. 1."
								}

							}
, 							{
								"box" : 								{
									"fontname" : "Arial",
									"fontsize" : 12.0,
									"id" : "obj-34",
									"maxclass" : "message",
									"numinlets" : 2,
									"numoutlets" : 1,
									"outlettype" : [ "" ],
									"patching_rect" : [ 209.0, 173.108688, 103.0, 18.0 ],
									"text" : "bgcolor 0. 0. 0. 0."
								}

							}
, 							{
								"box" : 								{
									"comment" : "",
									"id" : "obj-38",
									"maxclass" : "inlet",
									"numinlets" : 0,
									"numoutlets" : 1,
									"outlettype" : [ "int" ],
									"patching_rect" : [ 31.0, 22.0, 25.0, 25.0 ]
								}

							}
, 							{
								"box" : 								{
									"comment" : "to panel",
									"id" : "obj-40",
									"maxclass" : "outlet",
									"numinlets" : 1,
									"numoutlets" : 0,
									"patching_rect" : [ 88.0, 221.0, 25.0, 25.0 ]
								}

							}
 ],
						"lines" : [ 							{
								"patchline" : 								{
									"destination" : [ "obj-40", 0 ],
									"disabled" : 0,
									"hidden" : 0,
									"source" : [ "obj-34", 0 ]
								}

							}
, 							{
								"patchline" : 								{
									"destination" : [ "obj-40", 0 ],
									"disabled" : 0,
									"hidden" : 0,
									"source" : [ "obj-35", 0 ]
								}

							}
, 							{
								"patchline" : 								{
									"destination" : [ "obj-37", 0 ],
									"disabled" : 0,
									"hidden" : 0,
									"midpoints" : [ 40.5, 116.277176, 97.5, 116.277176 ],
									"source" : [ "obj-36", 0 ]
								}

							}
, 							{
								"patchline" : 								{
									"destination" : [ "obj-5", 0 ],
									"disabled" : 0,
									"hidden" : 0,
									"source" : [ "obj-36", 0 ]
								}

							}
, 							{
								"patchline" : 								{
									"destination" : [ "obj-34", 0 ],
									"disabled" : 0,
									"hidden" : 0,
									"source" : [ "obj-37", 1 ]
								}

							}
, 							{
								"patchline" : 								{
									"destination" : [ "obj-35", 0 ],
									"disabled" : 0,
									"hidden" : 0,
									"source" : [ "obj-37", 0 ]
								}

							}
, 							{
								"patchline" : 								{
									"destination" : [ "obj-36", 0 ],
									"disabled" : 0,
									"hidden" : 0,
									"source" : [ "obj-38", 0 ]
								}

							}
, 							{
								"patchline" : 								{
									"destination" : [ "obj-3", 0 ],
									"disabled" : 0,
									"hidden" : 0,
									"source" : [ "obj-5", 0 ]
								}

							}
 ]
					}
,
					"patching_rect" : [ 184.0, 135.666672, 49.0, 20.0 ],
					"saved_object_attributes" : 					{
						"default_fontface" : 0,
						"default_fontname" : "Arial",
						"default_fontsize" : 12.0,
						"description" : "",
						"digest" : "",
						"fontface" : 0,
						"fontname" : "Arial",
						"fontsize" : 12.0,
						"globalpatchername" : "",
						"tags" : ""
					}
,
					"text" : "p block"
				}

			}
, 			{
				"box" : 				{
					"bgcolor" : [ 0.0, 0.0, 0.0, 0.0 ],
					"bordercolor" : [ 0.0, 0.0, 0.0, 0.0 ],
					"id" : "obj-30",
					"maxclass" : "panel",
					"numinlets" : 1,
					"numoutlets" : 0,
					"patching_rect" : [ 216.5, 170.833344, 13.0, 13.0 ],
					"presentation" : 1,
					"presentation_rect" : [ 42.713196, 114.0, 287.893402, 17.0 ]
				}

			}
, 			{
				"box" : 				{
					"fontname" : "Arial",
					"fontsize" : 10.0,
					"frgb" : 0.0,
					"id" : "obj-3",
					"maxclass" : "comment",
					"numinlets" : 1,
					"numoutlets" : 0,
					"patching_rect" : [ 278.0, 93.5, 57.0, 18.0 ],
					"presentation" : 1,
					"presentation_rect" : [ 204.713196, 41.5, 39.0, 18.0 ],
					"text" : "param",
					"textcolor" : [ 1.0, 1.0, 1.0, 1.0 ]
				}

			}
, 			{
				"box" : 				{
					"fontname" : "Arial",
					"fontsize" : 10.0,
					"frgb" : 0.0,
					"id" : "obj-2",
					"maxclass" : "comment",
					"numinlets" : 1,
					"numoutlets" : 0,
					"patching_rect" : [ 286.0, 56.0, 57.0, 18.0 ],
					"presentation" : 1,
					"presentation_rect" : [ 42.713196, 41.5, 46.0, 18.0 ],
					"text" : "modifier",
					"textcolor" : [ 1.0, 1.0, 1.0, 1.0 ]
				}

			}
, 			{
				"box" : 				{
					"align" : 1,
					"arrow" : 0,
					"arrowframe" : 0,
					"bgcolor" : [ 0.0, 0.0, 0.0, 0.2 ],
					"bgcolor2" : [ 0.0, 0.0, 0.0, 1.0 ],
					"fontname" : "Helvetica",
					"fontsize" : 12.0,
					"framecolor" : [ 0.0, 0.0, 0.0, 0.0 ],
					"hint" : "Select target parameter",
					"hltcolor" : [ 0.657031, 0.269985, 0.671192, 1.0 ],
					"id" : "obj-1",
					"items" : [ "OFF", ",", "<separator>", ",", "loop", "-", "rec", ",", "loop", "-", "odb", ",", "loop", "-", "play", ",", "loop", "-", "half", ",", "loop", "-", "rev", ",", "loop", "-", "pitch", ",", "loop", "-", "start", ",", "loop", "-", "end", ",", "loop", "-", "lofi", ",", "loop", "-", "jump", ",", "<separator>", ",", "slice", "-", "slice", ",", "slice", "-", "rate", ",", "slice", "-", "retrig", ",", "Xslice", "-", "onsetX", ",", "slice", "-", "random", ",", "slice", "-", "reverse", ",", "slice", "-", "env", ",", "slice", "-", "env", "amnt", ",", "<separator>", ",", "grain", "-", "grain", ",", "grain", "-", "pos", ",", "grain", "-", "freeze", ",", "grain", "-", "speed", ",", "grain", "-", "size", ",", "grain", "-", "win", "size", ",", "grain", "-", "pitch", ",", "<separator>", ",", "cmbn", "-", "combine", ",", "cmbn", "-", "loudness", ",", "cmbn", "-", "pitch", ",", "cmbn", "-", "rate", ",", "cmbn", "-", "size", ",", "cmbn", "-", "pich", ",", "<separator>", ",", "pttr", "-", "record", ",", "pttr", "-", "play" ],
					"maxclass" : "umenu",
					"numinlets" : 1,
					"numoutlets" : 3,
					"outlettype" : [ "int", "", "" ],
					"parameter_enable" : 0,
					"patching_rect" : [ 184.0, 93.5, 88.5, 18.0 ],
					"presentation" : 1,
					"presentation_rect" : [ 245.106598, 41.5, 85.5, 18.0 ],
					"rounded" : 0,
					"textcolor" : [ 1.0, 1.0, 1.0, 1.0 ],
					"textcolor2" : [ 1.0, 1.0, 1.0, 1.0 ],
					"varname" : "#1_modifiermapping"
				}

			}
, 			{
				"box" : 				{
					"fontname" : "Arial",
					"fontsize" : 10.0,
					"frgb" : 0.0,
					"id" : "obj-233",
					"maxclass" : "comment",
					"numinlets" : 1,
					"numoutlets" : 0,
					"patching_rect" : [ 235.200012, 299.5, 46.0, 18.0 ],
					"presentation" : 1,
					"presentation_rect" : [ 230.83252, 66.5, 46.0, 18.0 ],
					"text" : "out high",
					"textcolor" : [ 1.0, 1.0, 1.0, 1.0 ]
				}

			}
, 			{
				"box" : 				{
					"fontname" : "Arial",
					"fontsize" : 10.0,
					"frgb" : 0.0,
					"id" : "obj-232",
					"maxclass" : "comment",
					"numinlets" : 1,
					"numoutlets" : 0,
					"patching_rect" : [ 187.399994, 299.5, 42.0, 18.0 ],
					"presentation" : 1,
					"presentation_rect" : [ 187.459412, 66.5, 42.0, 18.0 ],
					"text" : "out low",
					"textcolor" : [ 1.0, 1.0, 1.0, 1.0 ]
				}

			}
, 			{
				"box" : 				{
					"fontname" : "Arial",
					"fontsize" : 10.0,
					"frgb" : 0.0,
					"id" : "obj-231",
					"maxclass" : "comment",
					"numinlets" : 1,
					"numoutlets" : 0,
					"patching_rect" : [ 146.0, 299.5, 40.0, 18.0 ],
					"presentation" : 1,
					"presentation_rect" : [ 143.086304, 66.5, 40.0, 18.0 ],
					"text" : "in high",
					"textcolor" : [ 1.0, 1.0, 1.0, 1.0 ]
				}

			}
, 			{
				"box" : 				{
					"fontname" : "Arial",
					"fontsize" : 10.0,
					"frgb" : 0.0,
					"id" : "obj-230",
					"maxclass" : "comment",
					"numinlets" : 1,
					"numoutlets" : 0,
					"patching_rect" : [ 95.800003, 299.5, 36.0, 18.0 ],
					"presentation" : 1,
					"presentation_rect" : [ 99.713196, 66.5, 36.0, 18.0 ],
					"text" : "in low",
					"textcolor" : [ 1.0, 1.0, 1.0, 1.0 ]
				}

			}
, 			{
				"box" : 				{
					"fontname" : "Arial",
					"fontsize" : 10.0,
					"frgb" : 0.0,
					"id" : "obj-229",
					"maxclass" : "comment",
					"numinlets" : 1,
					"numoutlets" : 0,
					"patching_rect" : [ 44.0, 111.666672, 38.0, 18.0 ],
					"presentation" : 1,
					"presentation_rect" : [ 45.713196, 66.5, 38.0, 18.0 ],
					"text" : "speed",
					"textcolor" : [ 1.0, 1.0, 1.0, 1.0 ]
				}

			}
, 			{
				"box" : 				{
					"bgcolor" : [ 0.0, 0.0, 0.0, 0.2 ],
					"bordercolor" : [ 0.501961, 0.501961, 0.501961, 0.0 ],
					"fontname" : "Arial",
					"fontsize" : 12.0,
					"hbgcolor" : [ 0.0, 0.0, 0.0, 0.2 ],
					"hint" : "LFO speed",
					"htricolor" : [ 0.657031, 0.269985, 0.671192, 1.0 ],
					"id" : "obj-228",
					"maxclass" : "flonum",
					"maximum" : 1.0,
					"minimum" : 0.0,
					"numinlets" : 1,
					"numoutlets" : 2,
					"outlettype" : [ "float", "bang" ],
					"parameter_enable" : 0,
					"patching_rect" : [ 44.0, 135.666672, 44.0, 20.0 ],
					"presentation" : 1,
					"presentation_rect" : [ 42.713196, 86.5, 44.0, 20.0 ],
					"textcolor" : [ 1.0, 1.0, 1.0, 1.0 ],
					"varname" : "#1_mod_lfo_speed"
				}

			}
, 			{
				"box" : 				{
					"bgcolor" : [ 0.0, 0.0, 0.0, 0.2 ],
					"bordercolor" : [ 0.501961, 0.501961, 0.501961, 0.0 ],
					"fontname" : "Arial",
					"fontsize" : 12.0,
					"hbgcolor" : [ 0.0, 0.0, 0.0, 0.2 ],
					"hint" : "Low input scaling",
					"htricolor" : [ 0.657031, 0.269985, 0.671192, 1.0 ],
					"id" : "obj-227",
					"maxclass" : "flonum",
					"maximum" : 1.0,
					"minimum" : 0.0,
					"numinlets" : 1,
					"numoutlets" : 2,
					"outlettype" : [ "float", "bang" ],
					"parameter_enable" : 0,
					"patching_rect" : [ 91.800003, 319.5, 44.0, 20.0 ],
					"presentation" : 1,
					"presentation_rect" : [ 95.713196, 86.5, 44.0, 20.0 ],
					"textcolor" : [ 1.0, 1.0, 1.0, 1.0 ],
					"varname" : "#1_mod_lowinput_scaling"
				}

			}
, 			{
				"box" : 				{
					"bgcolor" : [ 0.0, 0.0, 0.0, 0.2 ],
					"bordercolor" : [ 0.501961, 0.501961, 0.501961, 0.0 ],
					"fontname" : "Arial",
					"fontsize" : 12.0,
					"hbgcolor" : [ 0.0, 0.0, 0.0, 0.2 ],
					"hint" : "High input scaling",
					"htricolor" : [ 0.657031, 0.269985, 0.671192, 1.0 ],
					"id" : "obj-226",
					"maxclass" : "flonum",
					"maximum" : 1.0,
					"minimum" : 0.0,
					"numinlets" : 1,
					"numoutlets" : 2,
					"outlettype" : [ "float", "bang" ],
					"parameter_enable" : 0,
					"patching_rect" : [ 139.600006, 319.5, 44.0, 20.0 ],
					"presentation" : 1,
					"presentation_rect" : [ 141.086304, 86.5, 44.0, 20.0 ],
					"textcolor" : [ 1.0, 1.0, 1.0, 1.0 ],
					"varname" : "#1_mod_highinput_scaling"
				}

			}
, 			{
				"box" : 				{
					"bgcolor" : [ 0.0, 0.0, 0.0, 0.2 ],
					"bordercolor" : [ 0.501961, 0.501961, 0.501961, 0.0 ],
					"fontname" : "Arial",
					"fontsize" : 12.0,
					"hbgcolor" : [ 0.0, 0.0, 0.0, 0.2 ],
					"hint" : "High output scaling",
					"htricolor" : [ 0.657031, 0.269985, 0.671192, 1.0 ],
					"id" : "obj-225",
					"maxclass" : "flonum",
					"maximum" : 1.0,
					"minimum" : 0.0,
					"numinlets" : 1,
					"numoutlets" : 2,
					"outlettype" : [ "float", "bang" ],
					"parameter_enable" : 0,
					"patching_rect" : [ 187.399994, 319.5, 44.0, 20.0 ],
					"presentation" : 1,
					"presentation_rect" : [ 186.459412, 86.5, 44.0, 20.0 ],
					"textcolor" : [ 1.0, 1.0, 1.0, 1.0 ],
					"varname" : "#1_mod_lowoutput_scaling"
				}

			}
, 			{
				"box" : 				{
					"bgcolor" : [ 0.0, 0.0, 0.0, 0.2 ],
					"bordercolor" : [ 0.501961, 0.501961, 0.501961, 0.0 ],
					"fontname" : "Arial",
					"fontsize" : 12.0,
					"hbgcolor" : [ 0.0, 0.0, 0.0, 0.2 ],
					"hint" : "High output scaling",
					"htricolor" : [ 0.657031, 0.269985, 0.671192, 1.0 ],
					"id" : "obj-224",
					"maxclass" : "flonum",
					"maximum" : 1.0,
					"minimum" : 0.0,
					"numinlets" : 1,
					"numoutlets" : 2,
					"outlettype" : [ "float", "bang" ],
					"parameter_enable" : 0,
					"patching_rect" : [ 235.200012, 319.5, 44.0, 20.0 ],
					"presentation" : 1,
					"presentation_rect" : [ 231.83252, 86.5, 44.0, 20.0 ],
					"textcolor" : [ 1.0, 1.0, 1.0, 1.0 ],
					"varname" : "#1_mod_highoutput_scaling"
				}

			}
, 			{
				"box" : 				{
					"bgcolor" : [ 0.8, 1.0, 0.4, 1.0 ],
					"color" : [ 0.8, 1.0, 0.4, 1.0 ],
					"fontname" : "Arial",
					"fontsize" : 12.0,
					"id" : "obj-1212",
					"maxclass" : "newobj",
					"numinlets" : 0,
					"numoutlets" : 1,
					"outlettype" : [ "" ],
					"patching_rect" : [ 255.5, 135.666672, 61.0, 20.0 ],
					"text" : "r numbox"
				}

			}
, 			{
				"box" : 				{
					"bgcolor" : [ 0.8, 1.0, 0.4, 1.0 ],
					"color" : [ 0.8, 1.0, 0.4, 1.0 ],
					"fontname" : "Arial",
					"fontsize" : 12.0,
					"id" : "obj-1938",
					"maxclass" : "newobj",
					"numinlets" : 0,
					"numoutlets" : 1,
					"outlettype" : [ "" ],
					"patching_rect" : [ 146.0, 22.485901, 57.0, 20.0 ],
					"text" : "r hltcolor"
				}

			}
, 			{
				"box" : 				{
					"fontname" : "Arial",
					"fontsize" : 10.0,
					"frgb" : 0.0,
					"id" : "obj-1518",
					"maxclass" : "comment",
					"numinlets" : 1,
					"numoutlets" : 0,
					"patching_rect" : [ 317.5, 179.5, 57.0, 18.0 ],
					"presentation" : 1,
					"presentation_rect" : [ 290.426392, 66.5, 38.0, 18.0 ],
					"text" : "thresh",
					"textcolor" : [ 1.0, 1.0, 1.0, 1.0 ]
				}

			}
, 			{
				"box" : 				{
					"align" : 1,
					"arrow" : 0,
					"arrowframe" : 0,
					"bgcolor" : [ 0.0, 0.0, 0.0, 0.2 ],
					"bgcolor2" : [ 0.0, 0.0, 0.0, 1.0 ],
					"fontname" : "Helvetica",
					"fontsize" : 12.0,
					"framecolor" : [ 0.0, 0.0, 0.0, 0.0 ],
					"hint" : "Select modifier source",
					"hltcolor" : [ 0.657031, 0.269985, 0.671192, 1.0 ],
					"id" : "obj-240",
					"items" : [ "lfo", "-", "sine", ",", "lfo", "-", "ramp", "up", ",", "lfo", "-", "ramp", "down", ",", "lfo", "-", "triangle", ",", "lfo", "-", "square", ",", "lfo", "-", "random", ",", "<separator>", ",", "anl", "-", "loudness", ",", "anl", "-", "peakamp", ",", "anl", "-", "pitch", ",", "anl", "-", "centroid", ",", "anl", "-", "spread", ",", "anl", "-", "skewness", ",", "anl", "-", "brightness", ",", "anl", "-", "roughness", ",", "<separator>", ",", "atk", "-", "bang", ",", "atk", "-", "toggle" ],
					"maxclass" : "umenu",
					"numinlets" : 1,
					"numoutlets" : 3,
					"outlettype" : [ "int", "", "" ],
					"parameter_enable" : 0,
					"patching_rect" : [ 146.0, 56.0, 132.5, 18.0 ],
					"presentation" : 1,
					"presentation_rect" : [ 89.878296, 41.5, 100.5, 18.0 ],
					"rounded" : 0,
					"textcolor" : [ 1.0, 1.0, 1.0, 1.0 ],
					"textcolor2" : [ 1.0, 1.0, 1.0, 1.0 ],
					"varname" : "#1_modifiersourceselect"
				}

			}
, 			{
				"box" : 				{
					"bgcolor" : [ 0.0, 0.0, 0.0, 0.2 ],
					"bordercolor" : [ 0.501961, 0.501961, 0.501961, 0.0 ],
					"fontname" : "Arial",
					"fontsize" : 12.0,
					"hbgcolor" : [ 0.0, 0.0, 0.0, 0.2 ],
					"hint" : "Threshold for trigger a bang",
					"htricolor" : [ 0.657031, 0.269985, 0.671192, 1.0 ],
					"id" : "obj-1520",
					"maxclass" : "flonum",
					"maximum" : 1.0,
					"minimum" : 0.0,
					"numinlets" : 1,
					"numoutlets" : 2,
					"outlettype" : [ "float", "bang" ],
					"parameter_enable" : 0,
					"patching_rect" : [ 324.0, 204.0, 44.0, 20.0 ],
					"presentation" : 1,
					"presentation_rect" : [ 287.426392, 86.5, 44.0, 20.0 ],
					"textcolor" : [ 1.0, 1.0, 1.0, 1.0 ],
					"varname" : "#1_mod_bang_threshold"
				}

			}
, 			{
				"box" : 				{
					"fontname" : "Arial",
					"fontsize" : 12.0,
					"id" : "obj-220",
					"maxclass" : "newobj",
					"numinlets" : 3,
					"numoutlets" : 1,
					"outlettype" : [ "bang" ],
					"patcher" : 					{
						"fileversion" : 1,
						"appversion" : 						{
							"major" : 6,
							"minor" : 1,
							"revision" : 8,
							"architecture" : "x86"
						}
,
						"rect" : [ 229.0, 275.0, 524.0, 307.0 ],
						"bglocked" : 0,
						"openinpresentation" : 0,
						"default_fontsize" : 12.0,
						"default_fontface" : 0,
						"default_fontname" : "Arial",
						"gridonopen" : 0,
						"gridsize" : [ 15.0, 15.0 ],
						"gridsnaponopen" : 0,
						"statusbarvisible" : 2,
						"toolbarvisible" : 1,
						"boxanimatetime" : 200,
						"imprint" : 0,
						"enablehscroll" : 1,
						"enablevscroll" : 1,
						"devicewidth" : 0.0,
						"description" : "",
						"digest" : "",
						"tags" : "",
						"boxes" : [ 							{
								"box" : 								{
									"bgcolor" : [ 0.0, 0.0, 0.0, 1.0 ],
									"color" : [ 0.0, 0.0, 0.0, 1.0 ],
									"fontname" : "Arial",
									"fontsize" : 12.0,
									"id" : "obj-51",
									"maxclass" : "newobj",
									"numinlets" : 3,
									"numoutlets" : 3,
									"outlettype" : [ "", "", "" ],
									"patching_rect" : [ 310.0, 118.82653, 201.0, 20.0 ],
									"text" : "route attackbang attacktoggle",
									"textcolor" : [ 1.0, 1.0, 1.0, 1.0 ]
								}

							}
, 							{
								"box" : 								{
									"color" : [ 0.364706, 0.807843, 1.0, 1.0 ],
									"fontname" : "Arial",
									"fontsize" : 12.0,
									"id" : "obj-49",
									"maxclass" : "newobj",
									"numinlets" : 0,
									"numoutlets" : 1,
									"outlettype" : [ "" ],
									"patching_rect" : [ 310.0, 85.0, 105.0, 20.0 ],
									"text" : "r analysis_stream"
								}

							}
, 							{
								"box" : 								{
									"fontname" : "Arial",
									"fontsize" : 12.0,
									"id" : "obj-215",
									"maxclass" : "newobj",
									"numinlets" : 6,
									"numoutlets" : 1,
									"outlettype" : [ "" ],
									"patching_rect" : [ 66.0, 83.0, 119.0, 20.0 ],
									"text" : "scale 0. 1. 0.01 0.99"
								}

							}
, 							{
								"box" : 								{
									"fontname" : "Arial",
									"fontsize" : 12.0,
									"id" : "obj-213",
									"maxclass" : "newobj",
									"numinlets" : 1,
									"numoutlets" : 3,
									"outlettype" : [ "", "int", "int" ],
									"patching_rect" : [ 40.0, 152.653061, 50.0, 20.0 ],
									"text" : "change"
								}

							}
, 							{
								"box" : 								{
									"fontname" : "Arial",
									"fontsize" : 12.0,
									"id" : "obj-210",
									"maxclass" : "newobj",
									"numinlets" : 2,
									"numoutlets" : 2,
									"outlettype" : [ "bang", "" ],
									"patching_rect" : [ 40.0, 187.0, 36.0, 20.0 ],
									"text" : "sel 1"
								}

							}
, 							{
								"box" : 								{
									"fontname" : "Arial",
									"fontsize" : 12.0,
									"id" : "obj-209",
									"maxclass" : "newobj",
									"numinlets" : 2,
									"numoutlets" : 1,
									"outlettype" : [ "int" ],
									"patching_rect" : [ 40.0, 118.82653, 45.0, 20.0 ],
									"text" : ">= 0.5"
								}

							}
, 							{
								"box" : 								{
									"fontname" : "Arial",
									"fontsize" : 12.0,
									"id" : "obj-204",
									"maxclass" : "newobj",
									"numinlets" : 1,
									"numoutlets" : 1,
									"outlettype" : [ "int" ],
									"patching_rect" : [ 265.0, 118.82653, 24.0, 20.0 ],
									"text" : "t 0"
								}

							}
, 							{
								"box" : 								{
									"fontname" : "Arial",
									"fontsize" : 12.0,
									"id" : "obj-8",
									"maxclass" : "newobj",
									"numinlets" : 2,
									"numoutlets" : 1,
									"outlettype" : [ "int" ],
									"patching_rect" : [ 219.0, 118.82653, 32.5, 20.0 ],
									"text" : "- 15"
								}

							}
, 							{
								"box" : 								{
									"fontname" : "Arial",
									"fontsize" : 12.0,
									"id" : "obj-7",
									"maxclass" : "newobj",
									"numinlets" : 3,
									"numoutlets" : 2,
									"outlettype" : [ "int", "int" ],
									"patching_rect" : [ 219.0, 85.0, 65.0, 20.0 ],
									"text" : "split 16 17"
								}

							}
, 							{
								"box" : 								{
									"fontname" : "Arial",
									"fontsize" : 12.0,
									"id" : "obj-205",
									"maxclass" : "newobj",
									"numinlets" : 3,
									"numoutlets" : 1,
									"outlettype" : [ "" ],
									"patching_rect" : [ 219.0, 152.653061, 201.0, 20.0 ],
									"text" : "switch 2"
								}

							}
, 							{
								"box" : 								{
									"comment" : "From LFO output (both)",
									"id" : "obj-216",
									"maxclass" : "inlet",
									"numinlets" : 0,
									"numoutlets" : 1,
									"outlettype" : [ "" ],
									"patching_rect" : [ 40.0, 35.0, 25.0, 25.0 ]
								}

							}
, 							{
								"box" : 								{
									"comment" : "From threshold parameter",
									"id" : "obj-217",
									"maxclass" : "inlet",
									"numinlets" : 0,
									"numoutlets" : 1,
									"outlettype" : [ "float" ],
									"patching_rect" : [ 265.0, 35.0, 25.0, 25.0 ]
								}

							}
, 							{
								"box" : 								{
									"comment" : "From waveform select umenu",
									"id" : "obj-218",
									"maxclass" : "inlet",
									"numinlets" : 0,
									"numoutlets" : 1,
									"outlettype" : [ "int" ],
									"patching_rect" : [ 219.0, 35.0, 25.0, 25.0 ]
								}

							}
, 							{
								"box" : 								{
									"comment" : "",
									"id" : "obj-219",
									"maxclass" : "outlet",
									"numinlets" : 1,
									"numoutlets" : 0,
									"patching_rect" : [ 40.0, 234.0, 25.0, 25.0 ]
								}

							}
 ],
						"lines" : [ 							{
								"patchline" : 								{
									"destination" : [ "obj-205", 0 ],
									"disabled" : 0,
									"hidden" : 0,
									"midpoints" : [ 274.5, 145.239792, 228.5, 145.239792 ],
									"source" : [ "obj-204", 0 ]
								}

							}
, 							{
								"patchline" : 								{
									"destination" : [ "obj-219", 0 ],
									"disabled" : 0,
									"hidden" : 0,
									"midpoints" : [ 228.5, 219.826538, 49.5, 219.826538 ],
									"source" : [ "obj-205", 0 ]
								}

							}
, 							{
								"patchline" : 								{
									"destination" : [ "obj-213", 0 ],
									"disabled" : 0,
									"hidden" : 0,
									"source" : [ "obj-209", 0 ]
								}

							}
, 							{
								"patchline" : 								{
									"destination" : [ "obj-219", 0 ],
									"disabled" : 0,
									"hidden" : 0,
									"source" : [ "obj-210", 0 ]
								}

							}
, 							{
								"patchline" : 								{
									"destination" : [ "obj-210", 0 ],
									"disabled" : 0,
									"hidden" : 0,
									"source" : [ "obj-213", 0 ]
								}

							}
, 							{
								"patchline" : 								{
									"destination" : [ "obj-209", 1 ],
									"disabled" : 0,
									"hidden" : 0,
									"source" : [ "obj-215", 0 ]
								}

							}
, 							{
								"patchline" : 								{
									"destination" : [ "obj-209", 0 ],
									"disabled" : 0,
									"hidden" : 0,
									"source" : [ "obj-216", 0 ]
								}

							}
, 							{
								"patchline" : 								{
									"destination" : [ "obj-215", 0 ],
									"disabled" : 0,
									"hidden" : 0,
									"midpoints" : [ 274.5, 71.0, 75.5, 71.0 ],
									"source" : [ "obj-217", 0 ]
								}

							}
, 							{
								"patchline" : 								{
									"destination" : [ "obj-7", 0 ],
									"disabled" : 0,
									"hidden" : 0,
									"source" : [ "obj-218", 0 ]
								}

							}
, 							{
								"patchline" : 								{
									"color" : [ 0.0, 0.0, 0.0, 1.0 ],
									"destination" : [ "obj-51", 0 ],
									"disabled" : 0,
									"hidden" : 0,
									"source" : [ "obj-49", 0 ]
								}

							}
, 							{
								"patchline" : 								{
									"color" : [ 0.0, 0.0, 0.0, 1.0 ],
									"destination" : [ "obj-205", 2 ],
									"disabled" : 0,
									"hidden" : 0,
									"source" : [ "obj-51", 1 ]
								}

							}
, 							{
								"patchline" : 								{
									"color" : [ 0.0, 0.0, 0.0, 1.0 ],
									"destination" : [ "obj-205", 1 ],
									"disabled" : 0,
									"hidden" : 0,
									"source" : [ "obj-51", 0 ]
								}

							}
, 							{
								"patchline" : 								{
									"destination" : [ "obj-204", 0 ],
									"disabled" : 0,
									"hidden" : 0,
									"source" : [ "obj-7", 1 ]
								}

							}
, 							{
								"patchline" : 								{
									"destination" : [ "obj-8", 0 ],
									"disabled" : 0,
									"hidden" : 0,
									"source" : [ "obj-7", 0 ]
								}

							}
, 							{
								"patchline" : 								{
									"destination" : [ "obj-205", 0 ],
									"disabled" : 0,
									"hidden" : 0,
									"source" : [ "obj-8", 0 ]
								}

							}
 ]
					}
,
					"patching_rect" : [ 184.0, 259.5, 159.0, 20.0 ],
					"saved_object_attributes" : 					{
						"default_fontface" : 0,
						"default_fontname" : "Arial",
						"default_fontsize" : 12.0,
						"description" : "",
						"digest" : "",
						"fontface" : 0,
						"fontname" : "Arial",
						"fontsize" : 12.0,
						"globalpatchername" : "",
						"tags" : ""
					}
,
					"text" : "p bangs"
				}

			}
, 			{
				"box" : 				{
					"fontname" : "Arial",
					"fontsize" : 12.0,
					"id" : "obj-17",
					"maxclass" : "newobj",
					"numinlets" : 2,
					"numoutlets" : 1,
					"outlettype" : [ "" ],
					"patching_rect" : [ 44.0, 204.0, 121.0, 20.0 ],
					"text" : "poly~ lfo~"
				}

			}
, 			{
				"box" : 				{
					"fontname" : "Arial",
					"fontsize" : 12.0,
					"id" : "obj-20",
					"maxclass" : "newobj",
					"numinlets" : 1,
					"numoutlets" : 2,
					"outlettype" : [ "", "int" ],
					"patcher" : 					{
						"fileversion" : 1,
						"appversion" : 						{
							"major" : 6,
							"minor" : 1,
							"revision" : 8,
							"architecture" : "x86"
						}
,
						"rect" : [ 223.0, 401.0, 1108.0, 322.0 ],
						"bglocked" : 0,
						"openinpresentation" : 0,
						"default_fontsize" : 12.0,
						"default_fontface" : 0,
						"default_fontname" : "Arial",
						"gridonopen" : 0,
						"gridsize" : [ 15.0, 15.0 ],
						"gridsnaponopen" : 0,
						"statusbarvisible" : 2,
						"toolbarvisible" : 1,
						"boxanimatetime" : 200,
						"imprint" : 0,
						"enablehscroll" : 1,
						"enablevscroll" : 1,
						"devicewidth" : 0.0,
						"description" : "",
						"digest" : "",
						"tags" : "",
						"boxes" : [ 							{
								"box" : 								{
									"color" : [ 0.364706, 0.807843, 1.0, 1.0 ],
									"fontname" : "Arial",
									"fontsize" : 12.0,
									"id" : "obj-7",
									"maxclass" : "newobj",
									"numinlets" : 0,
									"numoutlets" : 1,
									"outlettype" : [ "" ],
									"patching_rect" : [ 143.875, 109.0, 105.0, 20.0 ],
									"text" : "r analysis_stream"
								}

							}
, 							{
								"box" : 								{
									"bgcolor" : [ 0.0, 0.0, 0.0, 1.0 ],
									"color" : [ 0.0, 0.0, 0.0, 1.0 ],
									"fontname" : "Arial",
									"fontsize" : 12.0,
									"id" : "obj-4",
									"maxclass" : "newobj",
									"numinlets" : 9,
									"numoutlets" : 9,
									"outlettype" : [ "", "", "", "", "", "", "", "", "" ],
									"patching_rect" : [ 143.875, 145.0, 810.0, 20.0 ],
									"text" : "route loudness_S peakamp_S pitch_S centroid_S spread_S skewness_S brightness_S roughness_S",
									"textcolor" : [ 1.0, 1.0, 1.0, 1.0 ]
								}

							}
, 							{
								"box" : 								{
									"comment" : "Output to bangs subpatch",
									"id" : "obj-16",
									"maxclass" : "outlet",
									"numinlets" : 1,
									"numoutlets" : 0,
									"patching_rect" : [ 989.0, 221.0, 25.0, 25.0 ]
								}

							}
, 							{
								"box" : 								{
									"comment" : "From waveform umenu",
									"id" : "obj-6",
									"maxclass" : "inlet",
									"numinlets" : 0,
									"numoutlets" : 1,
									"outlettype" : [ "int" ],
									"patching_rect" : [ 45.0, 62.0, 25.0, 25.0 ]
								}

							}
, 							{
								"box" : 								{
									"fontname" : "Arial",
									"fontsize" : 12.0,
									"id" : "obj-5",
									"maxclass" : "newobj",
									"numinlets" : 2,
									"numoutlets" : 1,
									"outlettype" : [ "int" ],
									"patching_rect" : [ 45.0, 145.0, 32.5, 20.0 ],
									"text" : "- 6"
								}

							}
, 							{
								"box" : 								{
									"fontname" : "Arial",
									"fontsize" : 12.0,
									"id" : "obj-196",
									"maxclass" : "newobj",
									"numinlets" : 1,
									"numoutlets" : 1,
									"outlettype" : [ "int" ],
									"patching_rect" : [ 85.0, 145.0, 24.0, 20.0 ],
									"text" : "t 0"
								}

							}
, 							{
								"box" : 								{
									"fontname" : "Arial",
									"fontsize" : 12.0,
									"id" : "obj-15",
									"maxclass" : "newobj",
									"numinlets" : 3,
									"numoutlets" : 2,
									"outlettype" : [ "int", "int" ],
									"patching_rect" : [ 45.0, 109.0, 59.0, 20.0 ],
									"text" : "split 7 14"
								}

							}
, 							{
								"box" : 								{
									"comment" : "Output of analysis parameter",
									"id" : "obj-3",
									"maxclass" : "outlet",
									"numinlets" : 1,
									"numoutlets" : 0,
									"patching_rect" : [ 45.0, 221.0, 25.0, 25.0 ]
								}

							}
, 							{
								"box" : 								{
									"fontname" : "Arial",
									"fontsize" : 12.0,
									"id" : "obj-1",
									"maxclass" : "newobj",
									"numinlets" : 9,
									"numoutlets" : 1,
									"outlettype" : [ "" ],
									"patching_rect" : [ 45.0, 187.0, 810.0, 20.0 ],
									"text" : "switch 8"
								}

							}
 ],
						"lines" : [ 							{
								"patchline" : 								{
									"destination" : [ "obj-3", 0 ],
									"disabled" : 0,
									"hidden" : 0,
									"source" : [ "obj-1", 0 ]
								}

							}
, 							{
								"patchline" : 								{
									"destination" : [ "obj-196", 0 ],
									"disabled" : 0,
									"hidden" : 0,
									"source" : [ "obj-15", 1 ]
								}

							}
, 							{
								"patchline" : 								{
									"destination" : [ "obj-5", 0 ],
									"disabled" : 0,
									"hidden" : 0,
									"source" : [ "obj-15", 0 ]
								}

							}
, 							{
								"patchline" : 								{
									"destination" : [ "obj-1", 0 ],
									"disabled" : 0,
									"hidden" : 0,
									"source" : [ "obj-196", 0 ]
								}

							}
, 							{
								"patchline" : 								{
									"color" : [ 0.0, 0.0, 0.0, 1.0 ],
									"destination" : [ "obj-1", 8 ],
									"disabled" : 0,
									"hidden" : 0,
									"source" : [ "obj-4", 7 ]
								}

							}
, 							{
								"patchline" : 								{
									"color" : [ 0.0, 0.0, 0.0, 1.0 ],
									"destination" : [ "obj-1", 7 ],
									"disabled" : 0,
									"hidden" : 0,
									"source" : [ "obj-4", 6 ]
								}

							}
, 							{
								"patchline" : 								{
									"color" : [ 0.0, 0.0, 0.0, 1.0 ],
									"destination" : [ "obj-1", 6 ],
									"disabled" : 0,
									"hidden" : 0,
									"source" : [ "obj-4", 5 ]
								}

							}
, 							{
								"patchline" : 								{
									"color" : [ 0.0, 0.0, 0.0, 1.0 ],
									"destination" : [ "obj-1", 5 ],
									"disabled" : 0,
									"hidden" : 0,
									"source" : [ "obj-4", 4 ]
								}

							}
, 							{
								"patchline" : 								{
									"color" : [ 0.0, 0.0, 0.0, 1.0 ],
									"destination" : [ "obj-1", 4 ],
									"disabled" : 0,
									"hidden" : 0,
									"source" : [ "obj-4", 3 ]
								}

							}
, 							{
								"patchline" : 								{
									"color" : [ 0.0, 0.0, 0.0, 1.0 ],
									"destination" : [ "obj-1", 3 ],
									"disabled" : 0,
									"hidden" : 0,
									"source" : [ "obj-4", 2 ]
								}

							}
, 							{
								"patchline" : 								{
									"color" : [ 0.0, 0.0, 0.0, 1.0 ],
									"destination" : [ "obj-1", 2 ],
									"disabled" : 0,
									"hidden" : 0,
									"source" : [ "obj-4", 1 ]
								}

							}
, 							{
								"patchline" : 								{
									"color" : [ 0.0, 0.0, 0.0, 1.0 ],
									"destination" : [ "obj-1", 1 ],
									"disabled" : 0,
									"hidden" : 0,
									"source" : [ "obj-4", 0 ]
								}

							}
, 							{
								"patchline" : 								{
									"destination" : [ "obj-1", 0 ],
									"disabled" : 0,
									"hidden" : 0,
									"source" : [ "obj-5", 0 ]
								}

							}
, 							{
								"patchline" : 								{
									"destination" : [ "obj-15", 0 ],
									"disabled" : 0,
									"hidden" : 0,
									"source" : [ "obj-6", 0 ]
								}

							}
, 							{
								"patchline" : 								{
									"destination" : [ "obj-16", 0 ],
									"disabled" : 0,
									"hidden" : 0,
									"midpoints" : [ 54.5, 99.5, 998.5, 99.5 ],
									"source" : [ "obj-6", 0 ]
								}

							}
, 							{
								"patchline" : 								{
									"color" : [ 0.0, 0.0, 0.0, 1.0 ],
									"destination" : [ "obj-4", 0 ],
									"disabled" : 0,
									"hidden" : 0,
									"source" : [ "obj-7", 0 ]
								}

							}
 ]
					}
,
					"patching_rect" : [ 184.0, 204.0, 89.0, 20.0 ],
					"saved_object_attributes" : 					{
						"default_fontface" : 0,
						"default_fontname" : "Arial",
						"default_fontsize" : 12.0,
						"description" : "",
						"digest" : "",
						"fontface" : 0,
						"fontname" : "Arial",
						"fontsize" : 12.0,
						"globalpatchername" : "",
						"tags" : ""
					}
,
					"text" : "p analysis_bits"
				}

			}
, 			{
				"box" : 				{
					"bgcolor" : [ 0.0, 0.0, 0.0, 1.0 ],
					"bordercolor" : [ 0.0, 0.0, 0.0, 0.0 ],
					"id" : "obj-9",
					"ignoreclick" : 1,
					"maxclass" : "multislider",
					"numinlets" : 1,
					"numoutlets" : 2,
					"outlettype" : [ "", "" ],
					"parameter_enable" : 0,
					"patching_rect" : [ 29.0, 502.0, 64.0, 21.0 ],
					"presentation" : 1,
					"presentation_rect" : [ 42.713196, 114.0, 287.893402, 17.0 ],
					"setminmax" : [ 0.0, 1.0 ],
					"setstyle" : 3,
					"slidercolor" : [ 0.657031, 0.269985, 0.671192, 1.0 ]
				}

			}
, 			{
				"box" : 				{
					"fontname" : "Arial",
					"fontsize" : 12.0,
					"id" : "obj-25",
					"maxclass" : "newobj",
					"numinlets" : 6,
					"numoutlets" : 1,
					"outlettype" : [ "" ],
					"patching_rect" : [ 44.0, 349.0, 258.0, 20.0 ],
					"text" : "scale 0. 1. 0. 1."
				}

			}
, 			{
				"box" : 				{
					"angle" : -90.0,
					"bgcolor" : [ 0.141176, 0.14902, 0.172549, 0.501961 ],
					"border" : 1,
					"grad1" : [ 0.141176, 0.14902, 0.172549, 1.0 ],
					"grad2" : [ 0.176471, 0.188235, 0.219608, 1.0 ],
					"id" : "obj-1265",
					"maxclass" : "panel",
					"numinlets" : 1,
					"numoutlets" : 0,
					"patching_rect" : [ 363.14209, 77.688599, 35.259106, 28.325703 ],
					"presentation" : 1,
					"presentation_rect" : [ 37.960754, 36.341919, 299.389404, 101.511131 ],
					"rounded" : 4
				}

			}
 ],
		"lines" : [ 			{
				"patchline" : 				{
					"destination" : [ "obj-19", 0 ],
					"disabled" : 0,
					"hidden" : 0,
					"midpoints" : [ 193.5, 131.75, 387.5, 131.75 ],
					"source" : [ "obj-1", 0 ]
				}

			}
, 			{
				"patchline" : 				{
					"destination" : [ "obj-41", 0 ],
					"disabled" : 0,
					"hidden" : 0,
					"source" : [ "obj-1", 0 ]
				}

			}
, 			{
				"patchline" : 				{
					"destination" : [ "obj-52", 0 ],
					"disabled" : 0,
					"hidden" : 0,
					"midpoints" : [ 193.5, 123.0, 433.0, 123.0, 433.0, 454.0, 70.5, 454.0 ],
					"source" : [ "obj-1", 0 ]
				}

			}
, 			{
				"patchline" : 				{
					"destination" : [ "obj-1520", 0 ],
					"disabled" : 0,
					"hidden" : 0,
					"source" : [ "obj-1212", 0 ]
				}

			}
, 			{
				"patchline" : 				{
					"destination" : [ "obj-224", 0 ],
					"disabled" : 0,
					"hidden" : 0,
					"source" : [ "obj-1212", 0 ]
				}

			}
, 			{
				"patchline" : 				{
					"destination" : [ "obj-225", 0 ],
					"disabled" : 0,
					"hidden" : 0,
					"source" : [ "obj-1212", 0 ]
				}

			}
, 			{
				"patchline" : 				{
					"destination" : [ "obj-226", 0 ],
					"disabled" : 0,
					"hidden" : 0,
					"source" : [ "obj-1212", 0 ]
				}

			}
, 			{
				"patchline" : 				{
					"destination" : [ "obj-227", 0 ],
					"disabled" : 0,
					"hidden" : 0,
					"source" : [ "obj-1212", 0 ]
				}

			}
, 			{
				"patchline" : 				{
					"destination" : [ "obj-228", 0 ],
					"disabled" : 0,
					"hidden" : 0,
					"source" : [ "obj-1212", 0 ]
				}

			}
, 			{
				"patchline" : 				{
					"destination" : [ "obj-220", 2 ],
					"disabled" : 0,
					"hidden" : 0,
					"source" : [ "obj-1520", 0 ]
				}

			}
, 			{
				"patchline" : 				{
					"destination" : [ "obj-220", 0 ],
					"disabled" : 0,
					"hidden" : 0,
					"midpoints" : [ 53.5, 237.75, 193.5, 237.75 ],
					"source" : [ "obj-17", 0 ]
				}

			}
, 			{
				"patchline" : 				{
					"destination" : [ "obj-25", 0 ],
					"disabled" : 0,
					"hidden" : 0,
					"source" : [ "obj-17", 0 ]
				}

			}
, 			{
				"patchline" : 				{
					"destination" : [ "obj-4", 0 ],
					"disabled" : 0,
					"hidden" : 0,
					"midpoints" : [ 387.5, 391.5, 53.5, 391.5 ],
					"source" : [ "obj-19", 0 ]
				}

			}
, 			{
				"patchline" : 				{
					"destination" : [ "obj-1", 0 ],
					"disabled" : 0,
					"hidden" : 0,
					"source" : [ "obj-1938", 0 ]
				}

			}
, 			{
				"patchline" : 				{
					"destination" : [ "obj-240", 0 ],
					"disabled" : 0,
					"hidden" : 0,
					"source" : [ "obj-1938", 0 ]
				}

			}
, 			{
				"patchline" : 				{
					"destination" : [ "obj-220", 1 ],
					"disabled" : 0,
					"hidden" : 0,
					"source" : [ "obj-20", 1 ]
				}

			}
, 			{
				"patchline" : 				{
					"destination" : [ "obj-220", 0 ],
					"disabled" : 0,
					"hidden" : 0,
					"source" : [ "obj-20", 0 ]
				}

			}
, 			{
				"patchline" : 				{
					"destination" : [ "obj-25", 0 ],
					"disabled" : 0,
					"hidden" : 0,
					"midpoints" : [ 193.5, 254.5, 53.5, 254.5 ],
					"source" : [ "obj-20", 0 ]
				}

			}
, 			{
				"patchline" : 				{
					"destination" : [ "obj-4", 2 ],
					"disabled" : 0,
					"hidden" : 0,
					"midpoints" : [ 193.5, 286.0, 324.0, 286.0, 324.0, 378.0, 98.5, 378.0 ],
					"source" : [ "obj-220", 0 ]
				}

			}
, 			{
				"patchline" : 				{
					"destination" : [ "obj-25", 4 ],
					"disabled" : 0,
					"hidden" : 0,
					"source" : [ "obj-224", 0 ]
				}

			}
, 			{
				"patchline" : 				{
					"destination" : [ "obj-25", 3 ],
					"disabled" : 0,
					"hidden" : 0,
					"source" : [ "obj-225", 0 ]
				}

			}
, 			{
				"patchline" : 				{
					"destination" : [ "obj-25", 2 ],
					"disabled" : 0,
					"hidden" : 0,
					"source" : [ "obj-226", 0 ]
				}

			}
, 			{
				"patchline" : 				{
					"destination" : [ "obj-25", 1 ],
					"disabled" : 0,
					"hidden" : 0,
					"source" : [ "obj-227", 0 ]
				}

			}
, 			{
				"patchline" : 				{
					"destination" : [ "obj-17", 0 ],
					"disabled" : 0,
					"hidden" : 0,
					"source" : [ "obj-228", 0 ]
				}

			}
, 			{
				"patchline" : 				{
					"destination" : [ "obj-20", 0 ],
					"disabled" : 0,
					"hidden" : 0,
					"source" : [ "obj-240", 0 ]
				}

			}
, 			{
				"patchline" : 				{
					"destination" : [ "obj-65", 0 ],
					"disabled" : 0,
					"hidden" : 0,
					"source" : [ "obj-240", 0 ]
				}

			}
, 			{
				"patchline" : 				{
					"destination" : [ "obj-4", 1 ],
					"disabled" : 0,
					"hidden" : 0,
					"midpoints" : [ 53.5, 379.0, 76.0, 379.0 ],
					"source" : [ "obj-25", 0 ]
				}

			}
, 			{
				"patchline" : 				{
					"destination" : [ "obj-42", 1 ],
					"disabled" : 0,
					"hidden" : 0,
					"source" : [ "obj-4", 0 ]
				}

			}
, 			{
				"patchline" : 				{
					"destination" : [ "obj-30", 0 ],
					"disabled" : 0,
					"hidden" : 0,
					"source" : [ "obj-41", 1 ]
				}

			}
, 			{
				"patchline" : 				{
					"destination" : [ "obj-42", 0 ],
					"disabled" : 0,
					"hidden" : 0,
					"midpoints" : [ 193.5, 166.833344, 38.5, 166.833344 ],
					"source" : [ "obj-41", 0 ]
				}

			}
, 			{
				"patchline" : 				{
					"destination" : [ "obj-65", 1 ],
					"disabled" : 0,
					"hidden" : 0,
					"source" : [ "obj-41", 0 ]
				}

			}
, 			{
				"patchline" : 				{
					"destination" : [ "obj-52", 1 ],
					"disabled" : 0,
					"hidden" : 0,
					"midpoints" : [ 38.5, 466.5, 104.5, 466.5 ],
					"source" : [ "obj-42", 0 ]
				}

			}
, 			{
				"patchline" : 				{
					"destination" : [ "obj-9", 0 ],
					"disabled" : 0,
					"hidden" : 0,
					"source" : [ "obj-42", 0 ]
				}

			}
, 			{
				"patchline" : 				{
					"destination" : [ "obj-17", 0 ],
					"disabled" : 0,
					"hidden" : 0,
					"midpoints" : [ 193.5, 196.916687, 53.5, 196.916687 ],
					"source" : [ "obj-65", 1 ]
				}

			}
, 			{
				"patchline" : 				{
					"destination" : [ "obj-17", 1 ],
					"disabled" : 0,
					"hidden" : 0,
					"source" : [ "obj-65", 0 ]
				}

			}
 ],
		"dependency_cache" : [ 			{
				"name" : "lfo~.maxpat",
				"bootpath" : "/Users/Rodrigo/Dropbox/Patches/The Party Van",
				"patcherrelativepath" : ".",
				"type" : "JSON",
				"implicit" : 1
			}
 ]
	}

}
